# https://github.com/mikedh/trimesh
v -0.01472615 -0.08523087 0.12547245
v -0.01941995 -0.08254681 0.12807348
v 0.01683150 -0.08407233 0.12149191
v 0.01688091 -0.08403840 0.12154721
v 0.01455954 -0.08401549 0.13124692
v 0.01928501 -0.01865950 0.13295388
v -0.02400196 -0.00551646 0.12841084
v 0.01448518 -0.08555407 -0.02099709
v 0.01448498 -0.08555412 -0.02099741
v -0.01729295 0.07100809 0.13124379
v -0.02283114 0.07762626 0.12363415
v -0.02282016 0.07760718 0.12367401
v -0.02282551 0.07763979 0.12364768
v -0.02281846 0.07771387 0.12356663
v -0.02421063 0.06729454 -0.11504086
v 0.02130915 0.06670283 -0.12900678
v 0.02127918 0.06676762 -0.12903771
v -0.02308253 0.08024727 0.11777568
v -0.02131550 0.08285719 0.12039690
v -0.02250296 0.08030189 0.12065872
v -0.02269078 0.07898585 0.12216770
v -0.02207191 0.07901824 0.12502926
v -0.02274851 0.08148059 0.11618682
v -0.02237398 0.08253533 0.11472978
v -0.02231680 0.08265866 0.11454461
v -0.02320487 0.08135628 0.11323649
v -0.02182724 0.07745754 0.12630199
v -0.02073977 0.08006941 0.12609479
v -0.02008597 0.08254412 0.12292487
v -0.02054916 0.07853929 0.12739706
v -0.02038106 0.07773645 0.12800507
v -0.01968082 0.07905414 0.12792236
v -0.02155284 0.08106536 -0.12444062
v -0.02179703 0.08091699 -0.12402391
v -0.02141120 0.08250349 -0.12244143
v -0.02030478 0.08292116 -0.12407775
v -0.02186845 0.08050319 -0.12443620
v -0.02041480 0.08155733 -0.12618538
v -0.02046267 0.08085461 -0.12688438
v -0.01974931 0.08298563 -0.12475566
v -0.01995904 0.08153861 -0.12667078
v -0.02190384 0.08211652 -0.12151408
v -0.02230617 0.08158750 -0.12054614
v -0.02028134 0.08366909 -0.12126539
v -0.02161247 0.08338232 -0.11593219
v -0.01962342 0.07952114 -0.12862480
v -0.02109936 0.08423950 -0.10661356
v -0.02247420 0.08244752 -0.11405506
v 0.02239511 -0.06753549 -0.12985050
v 0.02298294 -0.06929033 -0.12876523
v 0.02401067 -0.06948923 -0.12612703
v 0.02340230 -0.07094984 -0.12758794
v 0.02356533 -0.05993861 -0.12792277
v 0.02430984 -0.05855501 -0.12653622
v 0.02462830 -0.06723008 -0.12387252
v 0.02477085 -0.06166038 -0.12397529
v 0.02279905 -0.07383564 -0.12764527
v 0.02249971 -0.07224401 -0.12888813
v 0.02191024 -0.07513761 -0.12895299
v 0.02157109 -0.07352345 -0.13017410
v 0.02200686 -0.07054292 -0.13002528
v 0.02095385 -0.07640134 -0.13022379
v 0.02174425 -0.07717905 -0.12816443
v 0.02101436 -0.07672673 -0.12996894
v 0.02115555 -0.07793773 -0.12892759
v 0.02196536 -0.07043064 -0.13009042
v 0.02036722 -0.07464719 -0.13130971
v 0.02126402 -0.07899805 -0.12715984
v 0.02045922 -0.07832828 -0.12932665
v 0.02064626 -0.07955052 -0.12771856
v 0.01946945 -0.07878866 -0.12979976
v 0.01810327 0.08241167 -0.12310611
v 0.02090768 0.08238879 -0.12260637
v 0.01968075 0.08186059 -0.12430536
v 0.02122549 0.08231803 -0.12195132
v 0.01972593 0.08606895 -0.08200455
v 0.01988227 0.08600609 -0.08165327
v -0.02139466 0.08375887 -0.11296750
v -0.02151369 0.08370893 -0.11278652
v -0.02053196 0.08450657 -0.10750500
v 0.01911693 0.08540020 -0.10571488
v 0.02139541 0.08518736 -0.11063880
v 0.02106816 0.08522599 -0.11127787
v -0.02041490 0.08461741 -0.09343262
v -0.01507367 0.08542741 -0.06586357
v -0.01771885 0.08503069 -0.10755576
v -0.01685191 0.08506375 -0.10854699
v -0.01965162 0.08471938 -0.10611385
v -0.01943243 0.08427567 -0.11922594
v -0.01783928 0.08470859 -0.12141551
v -0.01625642 0.08449454 -0.12295396
v -0.02164232 0.08405850 -0.09510070
v -0.02116848 0.08438626 -0.09237085
v -0.01906968 0.08396255 -0.12289526
v -0.01669460 0.08422448 -0.12347640
v -0.02066345 0.08349057 -0.12066638
v 0.02526653 -0.00764018 -0.12386422
v 0.02556168 -0.00876574 -0.12215833
v 0.02428469 -0.02200335 -0.12687290
v 0.02483601 -0.02373752 -0.12576769
v 0.02516867 -0.02534800 -0.12454302
v 0.02518328 -0.02523304 -0.12442856
v 0.02266659 -0.02501004 -0.12926645
v 0.02340733 -0.02331180 -0.12818687
v 0.02143493 -0.02583573 -0.13066604
v -0.02043804 -0.08095763 -0.12694692
v -0.02044514 -0.07957445 -0.12839228
v -0.01918932 -0.08074664 -0.12953714
v -0.02024891 -0.07800943 -0.12965373
v -0.02143337 -0.07677340 -0.12844432
v -0.01989324 -0.07630183 -0.13077100
v -0.02087183 -0.07349215 -0.13081433
v -0.02217898 -0.07236585 -0.12971589
v -0.01828763 -0.07716119 -0.13159948
v -0.01933312 -0.07441136 -0.13170334
v -0.01751858 -0.08154779 -0.13030675
v -0.01744851 -0.08287465 -0.12880443
v -0.01893637 -0.07348043 -0.13194111
v -0.02317143 0.08087000 -0.09025717
v -0.02140063 0.08460246 0.10803171
v -0.02390501 0.08060489 0.10402003
v -0.02198422 0.08391920 0.10935258
v -0.02347222 0.08112503 0.11018289
v -0.02273428 0.08251235 0.11157303
v -0.02389852 0.07956142 0.10862251
v -0.02360616 0.08067967 0.10973825
v -0.02409588 0.07929059 0.10553069
v -0.02420948 0.07793256 0.10699913
v -0.02413354 0.07889199 0.10596646
v -0.02288475 0.08287230 0.10064991
v -0.02247448 0.08346558 0.09960965
v -0.02416116 -0.06594959 0.12757224
v -0.02372782 -0.06761702 0.12874191
v -0.02386126 -0.06809458 0.12826529
v -0.02349409 -0.06848525 0.12934199
v -0.02323804 -0.06931638 0.12988073
v -0.02446074 -0.06724117 0.12628416
v -0.02364946 -0.07088841 0.12831223
v -0.02255654 -0.07112419 0.13091482
v -0.02302034 -0.07241688 0.12962304
v -0.02318753 -0.07232856 0.12922554
v -0.02197209 -0.07252242 0.13165122
v -0.02305886 -0.07264480 0.12939597
v -0.02174220 -0.07864350 0.12909555
v -0.02169458 -0.07806592 0.12967020
v -0.02019206 -0.08033820 0.13025579
v -0.02022324 -0.08096989 0.12962763
v -0.02285294 -0.07779312 0.12710336
v -0.02010866 -0.07821209 0.13163909
v -0.02124962 -0.07651287 0.13122039
v -0.02352389 -0.07599127 0.12606349
v -0.02368320 -0.07760034 0.12446217
v -0.02368903 -0.07770262 0.12436044
v -0.02376671 -0.07169485 0.12750907
v 0.01917584 0.08603340 -0.02242574
v 0.01860226 0.08615467 -0.02360129
v 0.02412542 0.08212278 -0.00931556
v 0.02505823 0.08017796 -0.00559401
v 0.02057146 0.08573847 -0.07545692
v 0.02358297 0.08023717 -0.11270321
v 0.02181264 0.08446572 -0.11134925
v 0.02296643 0.08172567 -0.11349339
v 0.02551139 0.03359577 -0.11954221
v 0.02335601 0.05159688 -0.12706641
v 0.02279025 0.05333922 -0.12816373
v 0.02219386 0.05492420 -0.12907158
v 0.02279713 0.04661903 -0.12868198
v 0.02156184 0.04556608 -0.12985285
v 0.02341575 0.04510897 -0.12787279
v 0.02192259 0.06816058 -0.12754864
v 0.02354681 0.07768788 -0.12087600
v 0.02331360 0.07924210 -0.12215500
v 0.02298346 0.07791007 -0.12348376
v 0.02279202 0.07801282 -0.12394062
v 0.02243209 0.07613124 -0.12525996
v 0.02157309 0.07798731 -0.12614552
v 0.02153144 0.07806303 -0.12617433
v 0.02001462 0.07973304 -0.12614859
v 0.02211636 0.07953690 -0.12470061
v 0.02246939 0.08084627 -0.12280781
v 0.02201970 0.08139636 -0.12285455
v 0.02399952 0.04335643 -0.12678530
v 0.02440194 0.03847945 -0.12598563
v 0.02216861 0.08086616 -0.12337901
v 0.02209242 0.05515627 -0.12918890
v 0.02334238 0.08094842 -0.11200031
v 0.02265236 0.04696310 -0.12886215
v 0.02559119 0.03069525 -0.11960338
v 0.02562630 0.03230902 -0.11799935
v 0.02502197 0.03851116 -0.12312470
v -0.01775313 0.08561701 -0.01507348
v -0.01784310 0.08561308 -0.01497013
v 0.02327549 -0.06762569 0.11255916
v 0.02325460 -0.06811758 0.11207008
v 0.02310280 -0.06780284 0.12365882
v 0.02245863 -0.07208777 0.12503023
v 0.02275481 -0.06862623 0.12565475
v 0.02304394 -0.06697814 0.12447732
v 0.02423468 -0.02222454 0.12385070
v 0.02238079 -0.07264559 0.12447473
v 0.02364411 -0.00859973 0.12892045
v 0.02588997 0.04853100 0.12651070
v 0.02589303 0.04887239 0.12684996
v 0.02465318 0.05570038 0.13079520
v 0.02412878 0.07853147 0.12809597
v 0.02494688 0.08042908 0.12435522
v 0.02470850 0.08160542 0.12270069
v 0.02431227 0.08269453 0.12377658
v 0.02373454 0.08338325 0.12373432
v 0.02423215 0.08208519 0.12598945
v 0.02318896 0.08393129 0.12216809
v 0.02247046 0.08373645 0.12478272
v 0.02488203 0.08094992 0.12487171
v 0.02047413 0.08518819 0.12055443
v 0.02577539 0.04703899 0.12784601
v 0.02244769 -0.07029042 0.12681593
v 0.02304983 -0.06968529 0.10768954
v 0.02356707 -0.06457537 0.10431626
v 0.02359200 -0.06392037 0.10496747
v 0.02202548 -0.07435287 0.12559232
v 0.02269845 0.05993238 0.13214967
v 0.02307600 -0.06931761 0.11087488
v 0.02326703 0.06125812 0.13181760
v 0.02214242 -0.04199051 0.12955409
v 0.02095465 0.08494711 0.12168371
v 0.02144381 0.08466587 0.12287038
v 0.02567311 0.07092983 0.12620644
v -0.02023539 0.08551762 0.07363776
v -0.02115259 0.08528664 0.07488027
v -0.02152544 0.08484025 0.08288963
v -0.02278412 0.08309020 0.08958963
v -0.01747670 0.08399210 0.12218596
v -0.01804103 0.08319206 0.12360102
v -0.01892624 0.08084826 0.12689735
v -0.01888279 0.07940139 0.12828001
v -0.01940419 0.08069106 0.12673360
v -0.01760046 0.08417744 0.12176749
v -0.01628986 0.08116161 0.12725041
v 0.01852217 0.08520505 0.12054031
v 0.01815218 0.08509213 0.12106106
v 0.02208996 0.08385422 0.12489372
v 0.02231085 0.08266224 0.12653244
v 0.02334734 0.07897354 0.12852285
v -0.02012110 0.08545355 0.08788616
v -0.01915614 0.08538180 0.10835729
v -0.01808558 0.08529686 0.11441330
v -0.01971482 0.08479624 0.11670971
v -0.01990278 0.08468071 0.11703177
v -0.02073174 0.08394924 0.11867162
v -0.01586321 0.08530904 0.11446056
v -0.01950795 0.08533653 0.10879103
v -0.02075200 0.08477971 0.11071712
v -0.02216887 0.08361478 0.10985777
v -0.02129914 0.08509471 0.08596565
v -0.01917044 0.08573746 0.07535957
v 0.01884707 0.08463887 0.12280248
v 0.02389338 0.08317174 0.12424412
v 0.02375090 0.07887574 0.12843207
v 0.02215232 0.08363685 0.12523297
v -0.01381760 0.07970713 0.12866392
v -0.01868271 0.08477815 0.11916429
v -0.01967557 0.08373424 0.12129429
v -0.01854283 0.08472418 0.11947624
v -0.01888148 0.08470731 0.11945412
v 0.01712074 0.08122173 0.12783861
v -0.02134591 0.08505885 0.08605281
v -0.02087513 0.08468767 0.11094428
v 0.01579754 -0.08487406 -0.02312053
v 0.01608472 -0.08471982 -0.02359056
v 0.01665799 -0.08432102 -0.02819660
v -0.01076474 -0.08598683 -0.02485193
v -0.01584481 -0.08580936 -0.10885684
v -0.01597779 -0.08578959 -0.10912074
v -0.01500177 -0.08582251 -0.11195762
v -0.01705902 -0.08553847 -0.11136005
v -0.01547666 -0.08578387 -0.11286694
v -0.01389046 -0.08578715 -0.11461751
v -0.01662085 -0.08561087 -0.11177293
v 0.01833621 -0.08241444 -0.12496155
v 0.02056895 -0.08045046 -0.12579437
v 0.01920635 -0.08148440 -0.12684326
v 0.01698180 -0.08345301 -0.12601492
v 0.01762987 -0.08239735 -0.12777532
v 0.02096967 -0.07953391 -0.12714374
v 0.02103890 -0.07929402 -0.12745749
v 0.01087452 -0.08547353 -0.12084224
v 0.01246404 -0.08526847 -0.12280249
v 0.01528176 -0.08445535 -0.12314411
v 0.01688279 -0.08352762 -0.12583166
v 0.00802501 -0.08522269 -0.12509537
v 0.00869141 -0.08522934 -0.12509144
v 0.00935233 -0.08559108 -0.12262083
v 0.00844321 -0.08511361 -0.12566562
v -0.00225315 -0.08444651 -0.12730632
v -0.00155427 -0.08491700 -0.12553976
v 0.00988082 -0.08229235 -0.13061318
v 0.01008983 -0.08132177 -0.13123568
v 0.00981107 -0.08054393 -0.13169660
v 0.01035286 -0.08227271 -0.13058619
v 0.01028580 -0.08365707 -0.12914317
v 0.00298783 -0.08456038 -0.12733657
v -0.01407225 -0.08497303 -0.12237724
v -0.01504375 -0.08489259 -0.12231268
v -0.01472961 -0.08505642 -0.12156796
v -0.01589308 -0.08426265 -0.12451977
v -0.01707328 -0.08441231 -0.12186757
v -0.01888401 -0.08373639 -0.12122459
v -0.01273789 -0.08325247 -0.12910532
v -0.00976493 -0.08427851 -0.12725821
v -0.01031123 -0.08425609 -0.12724458
v -0.01457040 -0.08398552 -0.12704310
v -0.01523398 -0.08554645 -0.11732616
v -0.01708799 -0.08011486 -0.13100241
v -0.01487222 -0.08556029 -0.11733419
v 0.01578021 -0.08419555 -0.12395212
v 0.01176579 -0.08615467 0.02911559
v 0.01408939 -0.08594576 0.02991774
v 0.01363988 -0.08607287 0.02922652
v 0.00473917 -0.08368954 -0.12926317
v 0.01033146 -0.08466838 -0.12732773
v 0.01237353 -0.08445562 -0.12708402
v 0.01265930 -0.08349233 -0.12894195
v 0.01311866 -0.08345486 -0.12889745
v 0.01558499 -0.08317114 -0.12857652
v 0.01561720 -0.08175280 -0.12998634
v 0.01320194 -0.08207968 -0.13034933
v 0.01664262 -0.07805670 -0.13193677
v 0.01569815 -0.08139909 -0.13020443
v 0.01931295 -0.07727784 -0.13112065
v 0.01495360 -0.08411041 -0.12670021
v 0.00957397 -0.08467666 -0.12734793
v -0.00132262 -0.08500384 -0.12502578
v 0.01286828 -0.08610872 0.02785117
v 0.01435987 -0.08581739 0.02949176
v 0.01670137 -0.08356225 -0.12612790
v -0.01631444 -0.08496634 -0.11990474
v 0.01004604 -0.08407215 -0.12846764
v -0.01394493 -0.08578314 -0.11472137
v -0.01856928 -0.08297118 -0.12609848
v 0.01576317 -0.08314611 -0.12854884
v 0.01124729 -0.08515775 -0.12514450
v 0.01324756 -0.08435575 -0.12697097
v 0.01405958 -0.08468546 -0.12514310
v 0.01375709 -0.08485583 -0.12464018
v 0.00965422 -0.08558508 -0.12296055
v 0.01130833 -0.08518428 -0.12500527
v 0.00984486 -0.08558729 -0.12260928
v 0.00394585 -0.08368006 -0.12926629
v 0.01577243 -0.08172906 -0.12996029
v 0.01775305 -0.08104473 -0.12924900
v 0.01951958 -0.08023930 -0.12842077
v 0.00989958 -0.08366511 -0.12915727
v -0.01673849 -0.08362918 -0.12672333
v 0.01447213 -0.08465013 -0.12442449
v 0.01281144 -0.08615467 0.08834367
v 0.01310676 -0.08610016 0.08840251
v 0.02370650 -0.07146767 0.01570181
v 0.01731672 -0.08387267 -0.02221257
v 0.02589303 -0.05142133 -0.10532501
v 0.01531714 -0.08536624 0.03156508
v 0.01715216 -0.08422633 0.05703182
v 0.01622528 -0.08485259 0.05867589
v 0.02576884 -0.05841834 -0.11227934
v 0.02555449 -0.06277861 -0.10815640
v 0.02550564 -0.06339070 -0.10876535
v 0.02576139 -0.05981452 -0.11084714
v 0.02454702 -0.07006748 -0.11541470
v 0.02448004 -0.07041207 -0.11857777
v 0.02486049 -0.06844004 -0.11379269
v 0.02508791 -0.06676393 -0.11212367
v 0.01418728 -0.08567009 0.09036040
v 0.01541483 -0.08510295 0.09202020
v 0.01296127 -0.08614006 0.08860281
v 0.01824726 -0.08299608 0.12258368
v 0.01860814 -0.08248344 0.12309876
v 0.01565003 -0.08481469 0.12009791
v 0.02208834 -0.07330058 0.12663889
v 0.02109956 -0.07777304 0.12499890
v 0.02147646 -0.07623339 0.12653470
v 0.02148072 -0.07618389 0.12658394
v 0.02084402 -0.07724600 0.12833815
v 0.02023928 -0.07960683 0.12776337
v 0.01987344 -0.07992399 0.12848148
v 0.01884890 -0.08045652 0.13075574
v 0.01885569 -0.08077052 0.13044384
v 0.01820416 -0.08220672 0.12900650
v 0.01738601 -0.08265282 0.13035222
v 0.01614625 -0.08398640 0.12946378
v 0.01898779 -0.08167823 0.12761749
v 0.01721861 -0.08345396 0.12775163
v 0.01491114 -0.08502889 0.12828239
v 0.01774602 -0.08313840 0.12685647
v 0.01567771 -0.08400456 0.12999979
v 0.01445160 -0.08511571 0.12887633
v 0.01958241 -0.08070633 0.12769952
v 0.01863265 -0.08088636 0.13080499
v 0.02556861 -0.06238651 -0.11340577
v 0.02522751 -0.06542060 -0.11360632
v 0.02088651 -0.07815053 0.12744007
v 0.02455600 -0.06011656 -0.12526430
v 0.01663045 -0.08447262 -0.00297129
v 0.01592116 -0.08500998 0.05558992
v 0.02375092 -0.07360914 -0.12176598
v 0.02315365 -0.07507604 -0.12323296
v 0.02134822 -0.07908653 -0.12442681
v 0.02190640 -0.07798000 -0.12613813
v 0.02209903 -0.07666669 -0.12764973
v 0.02221110 -0.07738740 -0.11990529
v 0.02442708 -0.00452634 -0.12642269
v 0.02547781 -0.00938759 -0.12277754
v 0.01727755 -0.08390654 -0.02213577
v 0.02452168 -0.06797354 -0.12461292
v 0.02411621 -0.07097122 -0.12477829
v 0.02401718 -0.07233749 -0.12331781
v 0.02545122 -0.05985802 -0.11935406
v 0.02070279 -0.07897088 0.12662204
v 0.01926061 -0.08138208 0.12702300
v 0.02000093 -0.08037860 0.12521220
v 0.02493721 -0.06602136 -0.11984701
v 0.02368381 -0.07183732 0.01251455
v 0.01811399 -0.08312414 0.12285766
v 0.01982715 -0.08104526 0.11890785
v 0.01832101 -0.08265531 0.12574303
v 0.02352457 -0.07386359 -0.12484196
v 0.02368014 -0.07252931 -0.12633333
v 0.02573637 -0.06067665 -0.11170416
v 0.02572613 -0.05924857 -0.11310495
v 0.02487843 -0.06741039 -0.11840852
v 0.02493739 -0.00623731 -0.12529508
v -0.02159941 -0.08081110 0.12694404
v -0.02144479 -0.08181677 0.12594723
v -0.02170024 -0.07986749 0.12788003
v -0.01978317 -0.08086546 0.13032506
v -0.01822103 -0.08238081 0.13009628
v -0.01698979 -0.08158139 0.13152229
v -0.02199511 -0.08188794 0.12304822
v -0.02066329 -0.08270844 0.12596485
v -0.01855441 -0.08022210 0.13190814
v -0.02294874 -0.07954370 0.12536243
v -0.01575420 -0.08050952 0.13267412
v -0.01665373 -0.08357167 0.12954091
v -0.01566095 -0.08286989 0.13063152
v -0.01478079 -0.08437808 0.12914688
v -0.01542116 -0.08268883 0.13088298
v -0.01385179 -0.08375046 0.13019755
v -0.01261740 -0.08275372 0.13142498
v -0.01418737 -0.08173015 0.13214872
v -0.01104546 -0.08365268 0.13057586
v -0.01227886 -0.08458722 0.12928582
v 0.00175279 -0.08410144 0.13118046
v -0.02187154 -0.08206340 0.12308509
v -0.01272847 -0.08483794 0.12872241
v -0.01570809 -0.08249233 0.13100593
v 0.01332012 -0.08532865 0.13033793
v 0.01227880 -0.08542654 0.12853312
v -0.01460373 -0.08615467 0.09404991
v -0.02074621 -0.08360958 0.09880055
v -0.01995739 -0.08429581 0.09813117
v -0.02090497 -0.08340384 0.09829688
v -0.01958362 -0.08418699 0.11549956
v -0.02105585 -0.08304237 0.11627682
v -0.02024371 -0.08370558 0.11845027
v -0.01994680 -0.08390178 0.11919695
v -0.01837408 -0.08475177 0.11829854
v -0.02192013 -0.08200373 0.12293437
v -0.02030630 -0.08338373 0.12266003
v -0.01873574 -0.08437017 0.12189893
v -0.01716046 -0.08505944 0.12083877
v -0.01752024 -0.08456033 0.12432088
v -0.01598445 -0.08528822 0.11976471
v -0.01474333 -0.08522535 0.12548599
v -0.01557871 -0.08534326 0.11937053
v 0.00907585 -0.08579181 0.11402153
v 0.00923857 -0.08578849 0.11402739
v -0.02295222 -0.07833613 0.12656224
v -0.01776650 -0.08554285 0.09694189
v -0.01514067 -0.08100855 0.13248922
v -0.01965445 -0.08366231 0.12414178
v -0.02107090 -0.08263377 0.12514136
v -0.01909430 -0.08379301 0.12530251
v -0.01821987 -0.08376886 0.12687820
v -0.01787502 -0.08374585 0.12748563
v -0.01664318 -0.08465412 0.12602353
v -0.01630366 -0.08468207 0.12667398
v -0.01508289 -0.08454073 0.12876232
v -0.01350509 -0.08507189 0.12754303
v -0.01472109 -0.08523045 0.12548127
v -0.01793605 -0.07172225 0.13355318
v -0.01813958 -0.07143565 0.13349482
v -0.01918209 -0.07345124 0.13306270
v -0.01828080 -0.07458281 0.13318509
v -0.02026243 -0.07526656 0.13247436
v -0.02042569 -0.07502654 0.13241753
v -0.02174152 -0.07300755 0.13187598
v -0.01451130 -0.07897813 0.13336348
v -0.01170091 -0.07862568 0.13348547
v -0.01294743 -0.08038458 0.13302509
v -0.01320158 -0.08067043 0.13285586
v -0.01967496 -0.07882595 0.13176656
v -0.01731457 -0.07888318 0.13279120
v -0.02014701 -0.07210480 0.13279819
v -0.01775616 0.01886471 0.13322642
v -0.01795614 0.01909303 0.13322176
v -0.01931116 0.02082818 0.13300421
v -0.01771461 0.03733274 0.13280818
v -0.01896728 0.03518755 0.13273657
v -0.02021493 0.03335759 0.13234770
v -0.02149319 0.03181494 0.13170858
v -0.02081708 0.04173296 0.13188745
v -0.01987396 0.04753318 0.13226500
v -0.02066787 0.04890562 0.13178571
v -0.01909442 0.05769668 0.13208679
v -0.01922630 0.05787414 0.13205712
v -0.02134529 0.03189630 0.13179176
v -0.02151823 -0.01903885 0.13193157
v -0.01326178 -0.07703086 0.13363428
v 0.01830778 0.06567069 0.13214274
v 0.02366484 0.06218616 0.13158477
v 0.01981925 0.06841196 0.13207084
v 0.02212547 0.06817916 0.13187600
v 0.02342033 -0.00810613 0.12940736
v 0.01936934 -0.01867664 0.13293819
v 0.00391524 -0.07824988 0.13373693
v 0.01905787 0.07352372 0.13149874
v 0.01693524 0.07966631 0.12910978
v 0.01938621 0.07956293 0.12904584
v 0.02122538 0.07752292 0.12986751
v 0.02171900 0.07935389 0.12887502
v 0.02322333 0.07701441 0.12939385
v 0.02491482 0.07762136 0.12720410
v 0.02365731 0.07853162 0.12861711
v 0.01954146 0.07271798 0.13176079
v 0.02080765 0.07111157 0.13194926
v -0.01244784 0.07585776 0.13049996
v 0.01235544 -0.07662529 0.13353203
v 0.00249198 -0.08040722 0.13336561
v 0.00142211 -0.08177317 0.13282168
v 0.00018040 -0.08323026 0.13205755
v 0.01266886 -0.08003828 0.13298249
v 0.01391717 -0.07816689 0.13332965
v 0.01548529 -0.07930567 0.13272189
v 0.01423439 -0.08133972 0.13253842
v 0.01705546 -0.08031705 0.13198589
v 0.01580615 -0.08225109 0.13170177
v 0.01754434 -0.07932791 0.13185651
v 0.01705897 -0.07607714 0.13225927
v 0.01674485 -0.07672805 0.13235830
v 0.02048505 -0.07252940 0.13019938
v 0.02197493 -0.07210275 0.12782728
v 0.01831654 -0.07764375 0.13152600
v 0.01413927 -0.08146735 0.13249647
v 0.01298953 -0.08299445 0.13197320
v 0.02174925 -0.06861975 0.12846490
v 0.02150979 -0.06514905 0.12909006
v -0.01546350 0.06461084 0.13196890
v -0.01656442 0.06594661 0.13186532
v -0.01432499 0.07786384 0.12964395
v -0.01439277 0.07582155 0.13043322
v -0.01538913 0.07780749 0.12957113
v -0.01622292 0.07970145 0.12862023
v -0.01800048 0.07747998 0.12920440
v -0.01965836 0.07519079 0.12972320
v -0.01885914 0.07369509 0.13031851
v -0.02051506 0.07244838 0.12980432
v -0.01928653 0.07294288 0.13031510
v -0.02011247 0.07150817 0.13028889
v -0.01955736 0.07048431 0.13068754
v 0.00266619 -0.08016804 0.13343683
v -0.01450352 0.07146977 0.13128095
v -0.01470772 0.07105765 0.13133393
v 0.02118793 0.07102552 0.13186978
v 0.02463463 0.06894662 0.12985865
v 0.02532092 0.06783580 0.12876578
v 0.01631475 0.07772187 0.12998752
v -0.01324392 0.07405060 0.13091413
v 0.02071953 -0.07600453 0.12956973
v 0.02423718 0.06875751 0.13048509
v -0.01576167 0.06898057 0.13155555
v 0.02109663 0.07076536 0.13197208
v -0.01743967 0.06583535 0.13174093
v 0.01691291 0.01311558 0.13277962
v 0.02380766 0.06738827 0.13111676
v 0.02482310 0.06600107 0.12975448
v 0.02266213 0.06946154 0.13153041
v 0.01963088 -0.07468284 0.13086578
v 0.01934800 -0.01872084 0.13294489
v 0.02121621 0.05721725 0.13224802
v 0.01949767 0.05410982 0.13232006
v -0.01420218 0.07106438 0.13134862
v -0.01734059 0.07099834 0.13123335
v -0.01701886 0.06655115 0.13177000
v -0.02076513 0.06085316 0.13081284
v -0.01561967 0.02745243 0.13310602
v -0.01592131 -0.07411282 0.13368940
v -0.00732821 -0.07977758 0.13336761
v -0.02073144 -0.07113199 0.13248243
v -0.02542751 -0.05629423 -0.06304542
v -0.02522909 -0.06338004 -0.07008288
v -0.02521691 -0.06363246 -0.07033350
v -0.02509769 -0.06550467 -0.07219188
v -0.02088872 0.02930789 -0.13017586
v -0.02450519 0.04990361 -0.11540792
v -0.02302594 0.04443119 -0.12646121
v -0.02253655 0.04625839 -0.12745754
v -0.02283793 0.04516890 -0.12688099
v -0.02447890 0.05311579 -0.11503541
v -0.02386943 0.07086024 -0.12277089
v -0.02304562 0.07069121 -0.12574542
v -0.02261757 0.06989523 -0.12652955
v -0.02369751 0.07231093 -0.12414634
v -0.02267088 0.07315244 -0.12611355
v -0.02240531 0.07265337 -0.12660523
v -0.02215884 0.07334105 -0.12686619
v -0.02078879 0.07351002 -0.12854809
v -0.02183988 0.07027743 -0.12776734
v -0.02220301 0.06914946 -0.12726401
v -0.02035507 0.06681055 -0.12955877
v -0.02149636 0.07117095 -0.12806382
v -0.02388050 0.07099216 -0.12263998
v -0.02443329 0.05694445 -0.11405004
v -0.02419311 0.07165914 -0.10506462
v -0.02404274 0.07299637 -0.10655315
v -0.02418005 0.06908202 -0.11326430
v -0.02431793 0.07030747 -0.10359005
v -0.02436547 0.06891207 -0.10215769
v -0.02416386 0.06962947 -0.11272009
v -0.01932172 0.05951562 -0.13064364
v -0.02133732 0.05886914 -0.12900625
v -0.02017529 0.05761306 -0.13023595
v -0.01901381 0.05575739 -0.13084573
v -0.02585429 -0.04528760 0.09168369
v -0.02584878 -0.04737780 0.08960692
v -0.02589303 -0.04254321 0.08877078
v -0.02502222 -0.07344778 0.10373799
v -0.02417517 -0.07677029 0.11682034
v -0.02506633 -0.07321752 0.10341878
v -0.02559436 -0.05979451 0.08855185
v -0.02440831 -0.07583014 0.09801364
v -0.02559838 -0.06015285 0.07691732
v -0.02562648 -0.00506166 0.11191944
v -0.02563638 -0.00647836 0.11333123
v -0.02560672 -0.00611265 0.11651467
v -0.02268056 -0.04733277 -0.12861166
v -0.02290518 -0.04812722 -0.12820015
v -0.02340508 -0.04996382 -0.12721335
v -0.02368886 -0.04879221 -0.12605370
v -0.02488224 0.06772261 -0.06105379
v -0.02488087 0.06783574 -0.06094137
v -0.02445884 -0.07242784 -0.08751957
v -0.02390745 -0.07548622 -0.08773013
v -0.02362818 -0.07662599 -0.08603861
v -0.02259090 -0.07993866 -0.08931374
v -0.01999803 -0.08437231 -0.09931729
v -0.02127067 -0.08259795 -0.10603318
v -0.02057081 -0.08375033 -0.10566750
v -0.02092835 -0.08333105 -0.10675619
v -0.02305997 -0.07731888 -0.10927487
v -0.02272938 -0.07847787 -0.11042124
v -0.02347410 -0.07566231 -0.11045502
v -0.02360451 -0.07503042 -0.11093565
v -0.02374151 -0.07430867 -0.11193385
v -0.02403646 -0.07179340 -0.11507849
v -0.02431533 -0.06926375 -0.11820858
v -0.02486379 -0.06595995 -0.11493453
v -0.02484261 -0.06454965 -0.11635247
v -0.02497151 -0.06525995 -0.11424070
v -0.02443034 -0.06658756 -0.12119046
v -0.02445615 -0.06522111 -0.12265275
v -0.02442439 -0.06555120 -0.12298023
v -0.02400562 -0.06436582 -0.12461537
v -0.02371440 -0.06546355 -0.12570149
v -0.02340564 -0.06651001 -0.12673639
v -0.02065246 -0.06822160 -0.13121313
v -0.02435881 -0.06701059 -0.12160966
v -0.02480843 -0.06789316 -0.11121534
v -0.02362277 -0.07371875 -0.11698501
v -0.02333171 -0.07120117 -0.12575727
v -0.02322292 -0.07268501 -0.12441031
v -0.02442629 -0.07047431 -0.11095436
v -0.02383270 -0.06769070 -0.12509672
v -0.02447797 -0.07231161 -0.08740438
v -0.02294820 -0.07214800 -0.12669199
v -0.02285682 -0.07067674 -0.12804828
v -0.02224848 -0.07219644 -0.12954866
v -0.02221755 -0.07378988 -0.12831183
v -0.02154389 -0.07826176 -0.12710535
v -0.02208712 -0.07211268 -0.12980991
v -0.02371134 0.07239115 -0.12406685
v -0.02518465 -0.06974511 0.11814555
v -0.02444171 0.05700448 0.11721644
v -0.02448659 0.05845216 0.11583457
v -0.02440410 0.06163255 0.11617639
v -0.02303639 0.05593465 0.12745405
v -0.02237187 0.05736350 0.12888429
v -0.02163433 0.05875104 0.13027464
v -0.02513434 0.01156018 0.11998425
v -0.02524368 0.01046939 0.11889869
v -0.02528640 0.00984143 0.11827406
v -0.02352043 0.03400155 0.12821000
v -0.02385003 0.03561030 0.12698366
v -0.02406313 0.03715314 0.12569369
v -0.02363648 0.03631111 0.12768338
v -0.02370568 0.03875570 0.12729168
v -0.02393452 0.04030744 0.12601032
v -0.02414743 0.04185017 0.12472023
v -0.02259831 0.04173879 0.13027326
v -0.02452637 0.05989694 0.11444992
v -0.02374603 0.06383001 0.12400944
v -0.02386806 0.06286535 0.12304900
v -0.02244696 -0.08108535 0.12101894
v -0.02431064 -0.07161655 -0.10644830
v -0.02304899 -0.07986947 0.12221755
v -0.02471829 -0.07285350 0.12070356
v -0.02470165 -0.07204727 0.12150491
v -0.02502907 -0.07125541 0.11946695
v -0.02502155 -0.07094385 0.11977665
v -0.02518377 -0.06969939 0.11819099
v -0.02446074 -0.06435783 0.12632952
v -0.02465679 -0.06282464 0.12503022
v -0.02536142 -0.00729121 0.12098669
v -0.02364749 -0.00711334 0.12964933
v -0.02028847 -0.00297724 0.13257909
v -0.02296066 -0.00892417 0.13068052
v -0.02472923 -0.00546160 0.12563425
v -0.02456598 -0.00463135 0.12646178
v -0.02433556 -0.00387953 0.12721245
v -0.02491345 -0.00355257 0.12470857
v -0.02519092 -0.00558289 0.12268681
v -0.02330654 0.07941649 -0.10298194
v -0.02136637 -0.00479424 0.13198972
v -0.02307125 0.06848012 0.12582094
v -0.02239728 0.06990362 0.12724602
v -0.02256361 0.07062298 0.12671861
v -0.02358339 0.07161441 0.12328795
v -0.02273891 0.07151916 0.12602627
v -0.02162289 0.07627269 0.12724764
v -0.02334744 0.07613028 0.12213954
v -0.02119850 0.07425728 0.12877129
v -0.02015241 0.07689257 0.12858670
v -0.02370956 0.07310806 0.12195049
v -0.02099819 0.06949462 0.12968138
v -0.02418348 0.06938414 0.11542322
v -0.02426726 0.07640358 0.10829858
v -0.02421460 0.07784020 0.10690727
v -0.02348380 0.08178891 0.10238354
v -0.02424831 0.07364148 0.11119359
v -0.02445688 0.07161841 0.10636053
v -0.02425302 0.07653491 0.10842930
v -0.02317062 0.04041260 0.12894647
v -0.02160450 -0.02159218 -0.13000977
v -0.02139163 -0.02181323 -0.13022604
v -0.02009540 -0.02217095 -0.13130551
v -0.02083086 -0.01951077 -0.13074900
v -0.02273343 0.08040691 -0.11890634
v -0.02297184 0.07903266 -0.12027559
v -0.02376772 0.07192005 -0.12368219
v -0.02524368 -0.01490242 0.12188469
v -0.02348067 0.07885769 -0.09508114
v -0.02324745 0.08014803 -0.09661492
v -0.02292076 0.08173405 -0.09503385
v -0.02295391 0.07105258 0.12555926
v -0.02495480 0.06266091 0.06925633
v -0.02487546 0.06442080 0.07100625
v -0.02401642 0.07820584 0.11009330
v -0.02383320 0.07908710 0.11097185
v -0.02343515 0.08006426 0.11476867
v -0.02356127 0.07871332 0.11624395
v -0.02350580 0.07889616 0.11642649
v -0.02361483 0.07740912 0.11776682
v -0.02363466 0.07733255 0.11769042
v -0.02286497 0.08211892 -0.09183097
v -0.02553432 -0.06265118 0.08289475
v -0.02251615 0.08082972 -0.12130240
v -0.02317885 -0.07803573 -0.09307144
v -0.02284499 -0.07912667 -0.09133055
v -0.02248044 -0.08019017 -0.08956190
v -0.02236084 0.01137871 -0.12827676
v -0.02040308 -0.01839815 -0.13111810
v -0.01618558 -0.08587817 0.09552549
v -0.01773568 -0.08555265 0.09691750
v -0.02431046 -0.07113266 -0.11160668
v -0.02143803 -0.07955661 -0.12557066
v -0.02204624 -0.07919476 -0.12240115
v -0.02190642 -0.07950138 -0.12270360
v -0.02066133 -0.08219281 -0.12141891
v -0.01909538 -0.08346907 -0.12188835
v -0.02028237 -0.08148836 -0.12611235
v -0.01920297 -0.08214838 -0.12811054
v -0.02259960 -0.07739433 -0.12062096
v -0.02131573 -0.08132050 -0.11886258
v -0.01900634 -0.08432952 -0.11617667
v -0.01738702 -0.08517665 -0.11699278
v -0.01789792 -0.08479218 -0.11832616
v -0.02246073 0.08331252 -0.09345818
v -0.02565512 -0.00685023 0.11014183
v -0.02329062 -0.07510879 -0.11836093
v -0.02501208 0.06297954 -0.03475308
v -0.02260368 0.07995103 -0.12217687
v -0.02327200 0.07710204 -0.12219865
v -0.02326064 0.07647907 -0.12281746
v -0.02366024 0.07473219 -0.12173994
v -0.02056996 0.07350617 -0.12878623
v -0.01957420 0.07566904 -0.12920323
v -0.02076362 0.07690063 -0.12799831
v -0.02205800 0.04032589 0.13107297
v -0.02343810 0.07200909 0.12368240
v -0.02356392 0.07584490 -0.12063280
v -0.01903642 -0.08484016 -0.11104534
v -0.02020543 -0.08389873 -0.10950259
v -0.01863860 -0.08511916 -0.11002819
v -0.02038671 -0.08278496 -0.12030300
v -0.01719874 -0.08549199 -0.11166395
v -0.02500453 0.06126676 0.07068989
v -0.02508100 -0.07313846 0.10349711
v -0.02431920 -0.07629585 0.11728948
v -0.02457692 0.06736745 0.10777399
v -0.02200743 0.07923124 -0.12570224
v -0.02274785 0.07832721 -0.12379262
v -0.02171117 0.07834853 -0.12657463
v -0.01940315 -0.08470376 0.09773459
v -0.01991670 0.07904757 -0.12867125
v -0.02034178 0.07971125 -0.12801853
v -0.02120886 0.07957300 -0.12692312
v -0.02145900 0.03175291 0.13173211
v -0.01933993 -0.08473666 0.09788439
v -0.02010989 -0.08205368 -0.12521120
v -0.02125381 -0.08078137 -0.12396511
v -0.02488748 -0.07396337 0.09986092
v -0.02513601 -0.01349036 0.12328945
v -0.02246988 -0.01001874 0.13122021
v -0.02185336 0.03989508 0.13127269
v -0.02027376 0.05978613 0.13132465
v -0.02203499 -0.01087012 0.13158123
v -0.02281818 0.07812430 -0.12371125
v -0.02367725 0.07410424 -0.12236415
v -0.02317362 -0.06986832 -0.12725002
v -0.02354933 -0.07039029 -0.12495499
v -0.02081341 -0.06864574 -0.13106853
v -0.01954853 -0.06573397 -0.13176842
v -0.01964993 -0.06593550 -0.13174533
v -0.02314401 -0.07820348 -0.09041797
v -0.02348332 -0.07498356 -0.11541994
v -0.02304554 -0.07666972 -0.11708841
v -0.02379555 -0.07405817 -0.11168581
v -0.02488320 -0.06698877 -0.11031790
v -0.02418251 -0.07400645 -0.08626414
v -0.02438459 -0.06793617 -0.11971015
v -0.02539947 -0.05773238 -0.06165435
v -0.02552712 -0.06293547 0.08261238
v -0.02578884 -0.02450955 0.09823225
v -0.02525388 -0.00615233 0.12212001
v -0.02443351 0.05128534 -0.11685347
v -0.02424462 0.07368559 0.11123748
v -0.02369503 0.07316882 0.12201109
v -0.02208492 0.08411695 0.08780128
v -0.01999554 0.03167406 -0.13099116
v -0.02012816 0.03137759 -0.13092691
v -0.01873384 0.03438649 -0.13149042
v -0.01748726 0.08372113 -0.12440616
v -0.01871870 0.08290934 -0.12581973
v -0.01713970 0.08245373 -0.12711507
v -0.01807844 0.08384518 -0.12387517
v -0.01809829 0.07837850 -0.12930729
v -0.01930886 0.07618087 -0.12924753
v -0.01528781 -0.07538419 -0.13260597
v -0.01631433 -0.07769176 -0.13209545
v -0.01413207 -0.07803541 -0.13240239
v -0.01191573 -0.07834862 -0.13267855
v -0.00988071 -0.07939492 -0.13252741
v -0.01259230 -0.08034321 -0.13185152
v -0.01484953 -0.08006658 -0.13161236
v -0.01085011 -0.07600608 -0.13315371
v -0.01031119 -0.08059847 -0.13206907
v -0.01747898 0.03666889 -0.13155691
v -0.01843583 0.05687338 -0.13094339
v -0.01885592 0.06894172 -0.13023706
v -0.02005499 0.06647985 -0.12988261
v 0.01505829 0.07456663 -0.12987131
v 0.01630655 0.07643475 -0.12952085
v 0.01474011 0.07767962 -0.12901985
v 0.01754534 0.07770758 -0.12857128
v 0.01542363 0.07851880 -0.12863766
v 0.01598272 0.07919268 -0.12831204
v 0.01910472 0.07601910 -0.12862583
v 0.01760924 0.07486753 -0.12941149
v 0.01878031 0.07874128 -0.12738103
v 0.01941410 0.07565128 -0.12860419
v 0.01988950 0.06570117 -0.13002451
v 0.01848776 0.06760708 -0.13035926
v 0.01518180 0.07443598 -0.12987868
v 0.02124532 0.08049821 -0.12468809
v 0.00111332 -0.07678349 -0.13373693
v 0.00180809 -0.07678156 -0.13372402
v 0.01464567 -0.07615777 -0.13290116
v 0.01948446 -0.07318617 -0.13177835
v 0.01918570 -0.06885278 -0.13215512
v 0.02043118 -0.06715916 -0.13162903
v 0.01832647 -0.07529749 -0.13198815
v 0.01371366 -0.07629754 -0.13305477
v 0.00588834 -0.07870731 -0.13275333
v 0.00676125 -0.08062340 -0.13182380
v 0.01608917 -0.07583661 -0.13255921
v 0.01500628 -0.07845107 -0.13235452
v -0.01994201 0.06675159 -0.12995718
v -0.01868371 0.06924992 -0.13024098
v -0.01265101 -0.07582103 -0.13299832
v 0.02167106 -0.06581776 -0.13074847
v 0.01809785 -0.07536572 -0.13205956
v 0.01844989 0.08108505 -0.12575541
v -0.01805433 0.07844299 -0.12929360
v -0.01837600 0.08133635 -0.12822109
v -0.01765141 0.03637166 -0.13156474
v -0.01425538 -0.07836656 -0.13228521
v 0.01978438 0.05930651 -0.13074083
v 0.01910416 0.06012653 -0.13079957
f 203 195 199
f 215 195 203
f 203 227 215
f 420 200 220
f 316 333 355
f 681 649 814
f 316 355 456
f 456 271 316
f 204 215 573
f 573 215 227
f 6 581 535
f 594 502 503
f 666 598 597
f 597 632 633
f 639 632 597
f 637 632 639
f 639 598 849
f 758 648 127
f 813 648 797
f 797 597 633
f 121 758 127
f 813 797 795
f 633 632 631
f 158 157 208
f 206 227 158
f 158 213 206
f 206 213 227
f 213 208 210
f 217 200 420
f 196 194 195
f 200 194 196
f 196 220 200
f 366 202 219
f 219 199 195
f 203 199 219
f 219 202 203
f 815 638 635
f 634 815 814
f 689 849 814
f 632 637 689
f 689 631 632
f 649 681 679
f 347 333 316
f 473 456 355
f 572 577 204
f 532 534 575
f 558 534 557
f 10 575 558
f 558 575 534
f 524 534 532
f 557 534 574
f 534 524 574
f 557 260 560
f 238 235 560
f 560 260 238
f 588 502 581
f 496 568 523
f 502 594 523
f 535 581 523
f 581 502 523
f 434 438 433
f 717 716 719
f 719 716 137
f 713 815 153
f 668 669 666
f 602 852 666
f 666 597 602
f 646 645 669
f 599 598 666
f 599 600 814
f 814 849 599
f 599 849 598
f 848 598 639
f 639 597 848
f 848 597 598
f 772 637 639
f 639 849 772
f 772 689 637
f 849 689 772
f 763 744 648
f 127 648 129
f 850 797 633
f 850 795 797
f 207 213 158
f 158 208 207
f 207 208 213
f 204 577 582
f 582 518 204
f 405 280 406
f 422 280 405
f 406 408 405
f 405 408 422
f 374 280 422
f 374 361 280
f 416 408 403
f 422 408 416
f 416 403 420
f 203 202 359
f 359 202 366
f 367 369 420
f 403 424 414
f 414 424 425
f 222 194 200
f 200 217 222
f 420 194 222
f 222 217 420
f 357 194 420
f 218 219 195
f 454 355 373
f 537 497 538
f 538 454 5
f 436 710 656
f 636 634 814
f 638 815 828
f 815 634 828
f 654 776 652
f 656 776 654
f 675 679 681
f 675 681 814
f 316 271 274
f 274 347 316
f 271 456 274
f 656 457 459
f 451 457 461
f 455 355 454
f 456 473 455
f 245 250 239
f 239 214 156
f 209 211 226
f 252 247 251
f 32 562 235
f 204 573 583
f 583 572 204
f 573 572 583
f 589 578 532
f 532 575 589
f 525 260 557
f 557 574 525
f 559 560 235
f 559 562 558
f 559 558 557
f 557 560 559
f 695 732 694
f 10 558 563
f 558 562 563
f 454 449 452
f 477 497 440
f 500 438 440
f 536 497 537
f 535 523 540
f 540 523 568
f 540 6 535
f 567 513 580
f 566 832 567
f 567 832 513
f 556 578 10
f 532 578 556
f 221 579 519
f 519 579 555
f 555 505 519
f 506 504 503
f 503 505 506
f 496 523 516
f 516 523 594
f 492 438 500
f 437 482 2
f 2 482 434
f 147 431 437
f 437 2 147
f 147 433 146
f 434 433 147
f 147 2 434
f 504 506 510
f 149 150 146
f 493 150 149
f 149 492 493
f 494 150 493
f 503 504 488
f 488 594 503
f 491 492 500
f 490 492 491
f 491 488 490
f 594 488 491
f 137 716 714
f 713 153 714
f 714 153 137
f 715 815 713
f 713 714 715
f 715 714 716
f 814 815 715
f 715 689 814
f 717 689 715
f 715 716 717
f 133 134 135
f 699 725 726
f 137 134 132
f 134 133 132
f 700 725 699
f 829 719 137
f 717 719 829
f 475 153 439
f 439 436 431
f 712 815 635
f 712 153 815
f 712 635 652
f 712 439 153
f 652 776 712
f 656 710 712
f 712 776 656
f 710 436 712
f 436 439 712
f 666 852 665
f 665 668 666
f 852 668 665
f 645 672 671
f 684 645 113
f 836 672 645
f 762 648 813
f 762 763 648
f 744 763 762
f 648 744 128
f 128 129 648
f 648 758 622
f 622 621 648
f 15 620 624
f 624 620 625
f 648 621 624
f 745 121 123
f 794 771 121
f 121 745 794
f 758 121 119
f 121 771 119
f 813 816 747
f 642 816 813
f 642 698 816
f 633 631 642
f 631 689 642
f 642 689 717
f 257 208 209
f 257 210 208
f 238 260 265
f 265 242 238
f 260 525 265
f 265 525 242
f 520 223 518
f 520 579 221
f 221 223 520
f 406 424 404
f 404 424 403
f 404 408 406
f 403 408 404
f 280 361 358
f 361 411 358
f 358 279 280
f 411 279 358
f 289 411 270
f 378 416 420
f 420 220 378
f 384 576 585
f 216 196 195
f 399 384 385
f 585 576 548
f 90 83 91
f 91 83 73
f 90 87 76
f 76 87 85
f 82 211 209
f 209 208 82
f 83 76 82
f 82 208 157
f 73 83 82
f 403 414 368
f 420 403 368
f 368 367 420
f 369 367 368
f 413 414 425
f 363 359 366
f 203 359 189
f 359 363 189
f 189 363 98
f 189 227 203
f 158 227 189
f 365 357 420
f 365 364 194
f 194 357 365
f 194 364 426
f 426 218 194
f 366 219 426
f 219 218 426
f 426 363 366
f 364 365 426
f 426 365 397
f 195 194 193
f 193 218 195
f 194 218 193
f 446 538 447
f 441 482 485
f 434 482 441
f 435 438 434
f 434 441 435
f 435 441 442
f 477 440 435
f 435 440 438
f 435 447 477
f 451 436 465
f 465 436 656
f 656 459 465
f 465 457 451
f 465 459 457
f 814 600 845
f 845 675 814
f 666 675 845
f 845 599 666
f 600 599 845
f 669 837 674
f 674 847 669
f 663 674 837
f 847 674 663
f 669 847 667
f 268 288 315
f 810 653 808
f 820 653 810
f 458 653 820
f 457 653 458
f 808 653 655
f 655 457 656
f 655 653 457
f 474 473 355
f 355 455 474
f 474 455 473
f 263 239 261
f 211 214 225
f 225 226 211
f 214 239 225
f 240 239 263
f 240 225 239
f 226 225 240
f 248 247 252
f 19 249 25
f 23 18 19
f 19 18 20
f 20 18 21
f 191 76 85
f 156 76 191
f 86 87 90
f 192 191 86
f 85 87 86
f 86 191 85
f 89 80 90
f 90 44 89
f 113 645 644
f 530 572 573
f 577 572 530
f 530 205 577
f 227 213 530
f 530 573 227
f 213 210 530
f 210 205 530
f 569 575 10
f 569 589 575
f 242 525 526
f 235 562 561
f 561 559 235
f 562 559 561
f 806 761 13
f 13 761 735
f 734 708 731
f 731 806 734
f 761 806 731
f 731 749 693
f 731 694 732
f 695 566 741
f 31 32 30
f 695 741 738
f 738 732 695
f 565 562 566
f 565 563 562
f 566 567 565
f 565 567 563
f 131 855 130
f 130 122 131
f 124 745 123
f 442 441 445
f 446 447 445
f 472 470 456
f 456 470 779
f 780 779 468
f 468 779 470
f 495 440 497
f 500 440 495
f 496 516 495
f 495 516 594
f 495 491 500
f 594 491 495
f 497 536 595
f 595 536 568
f 595 495 497
f 595 568 496
f 496 495 595
f 568 536 542
f 5 544 542
f 541 540 542
f 6 540 586
f 221 6 586
f 592 566 695
f 695 832 592
f 592 832 566
f 10 563 590
f 563 567 590
f 590 567 580
f 580 513 591
f 591 556 10
f 10 590 591
f 591 590 580
f 555 579 533
f 533 556 555
f 532 556 533
f 502 588 593
f 588 517 593
f 503 502 593
f 593 505 503
f 593 519 505
f 593 517 519
f 587 517 588
f 519 517 587
f 221 519 587
f 587 588 581
f 587 6 221
f 581 6 587
f 512 506 505
f 512 505 555
f 513 510 512
f 512 510 506
f 555 556 512
f 512 591 513
f 556 591 512
f 543 545 541
f 541 542 543
f 543 542 544
f 543 384 545
f 150 494 145
f 146 150 145
f 511 832 695
f 513 832 511
f 511 510 513
f 438 492 499
f 492 149 499
f 499 149 146
f 146 433 499
f 499 433 438
f 501 494 493
f 493 492 501
f 501 492 490
f 490 488 501
f 7 726 725
f 699 726 7
f 137 132 718
f 718 132 725
f 718 829 137
f 704 708 705
f 705 701 704
f 704 701 700
f 829 718 727
f 727 701 705
f 725 700 727
f 700 701 727
f 138 134 137
f 137 154 138
f 135 134 138
f 137 153 152
f 152 154 137
f 152 153 475
f 430 439 431
f 432 439 430
f 431 147 430
f 430 147 432
f 708 704 703
f 703 704 700
f 703 731 708
f 749 731 703
f 852 602 606
f 606 620 15
f 625 620 647
f 648 624 647
f 647 624 625
f 620 606 647
f 647 606 602
f 647 602 597
f 647 797 648
f 597 797 647
f 669 645 670
f 670 671 669
f 645 671 670
f 669 671 680
f 680 671 672
f 672 836 680
f 645 684 683
f 683 836 645
f 26 18 23
f 26 124 123
f 13 18 11
f 11 18 737
f 11 737 734
f 734 806 11
f 11 806 13
f 123 121 126
f 18 26 766
f 766 26 123
f 123 126 766
f 130 855 231
f 855 794 231
f 231 745 130
f 231 794 745
f 758 119 759
f 230 794 855
f 230 229 794
f 794 229 92
f 244 228 229
f 740 708 734
f 770 748 740
f 740 737 770
f 816 698 707
f 698 642 697
f 813 795 640
f 579 520 584
f 518 582 584
f 584 520 518
f 584 582 577
f 577 529 584
f 546 545 550
f 550 384 585
f 545 384 550
f 51 425 52
f 52 54 51
f 50 54 52
f 406 280 284
f 391 356 371
f 371 376 391
f 391 373 356
f 5 454 393
f 454 388 393
f 280 279 282
f 282 411 289
f 282 279 411
f 289 270 269
f 269 315 289
f 268 315 269
f 269 360 268
f 401 411 361
f 401 270 411
f 401 269 270
f 360 269 401
f 375 374 422
f 422 417 375
f 375 417 374
f 422 416 418
f 418 417 422
f 416 399 382
f 382 418 416
f 417 418 382
f 195 215 198
f 553 548 576
f 416 378 379
f 379 399 416
f 380 399 379
f 379 378 220
f 220 380 379
f 377 399 380
f 377 380 220
f 220 196 377
f 196 216 377
f 576 384 381
f 384 399 381
f 399 377 381
f 656 785 811
f 892 872 912
f 912 915 892
f 893 915 899
f 892 915 893
f 899 903 893
f 896 895 908
f 81 83 90
f 90 76 81
f 81 76 83
f 156 214 155
f 155 76 156
f 214 76 155
f 159 214 211
f 159 76 214
f 211 82 159
f 161 157 158
f 161 82 157
f 397 365 398
f 414 413 412
f 412 425 51
f 412 413 425
f 51 54 412
f 56 412 400
f 400 412 54
f 188 98 190
f 188 189 98
f 190 172 171
f 363 426 427
f 498 538 497
f 498 447 538
f 498 497 477
f 477 447 498
f 453 435 442
f 447 435 453
f 371 356 317
f 402 317 360
f 649 679 711
f 638 828 651
f 847 663 664
f 664 667 847
f 664 675 666
f 664 663 675
f 666 669 664
f 669 667 664
f 347 287 286
f 476 810 780
f 780 468 476
f 809 655 656
f 808 655 809
f 656 811 809
f 809 811 808
f 246 251 247
f 247 261 246
f 246 250 245
f 245 251 246
f 246 239 250
f 246 261 239
f 232 241 237
f 237 240 263
f 267 248 252
f 249 248 267
f 264 248 249
f 263 261 264
f 264 261 247
f 247 248 264
f 264 237 263
f 23 19 24
f 24 19 25
f 24 26 23
f 25 124 24
f 124 26 24
f 30 32 28
f 14 18 13
f 14 21 18
f 156 191 255
f 255 239 156
f 245 239 255
f 255 191 192
f 192 228 255
f 228 244 255
f 255 251 245
f 255 244 251
f 192 86 88
f 90 80 88
f 88 86 90
f 78 89 44
f 80 89 78
f 94 44 90
f 889 878 890
f 72 91 73
f 531 529 577
f 570 569 10
f 589 569 570
f 10 578 570
f 578 589 570
f 733 735 761
f 761 731 733
f 733 731 732
f 732 738 733
f 566 562 564
f 562 738 564
f 564 741 566
f 564 738 741
f 739 738 562
f 31 738 739
f 562 32 739
f 32 31 739
f 735 733 736
f 736 733 738
f 736 31 30
f 736 738 31
f 745 124 253
f 253 122 130
f 130 745 253
f 253 124 25
f 25 249 253
f 249 122 253
f 449 445 443
f 485 452 443
f 443 452 449
f 443 441 485
f 443 445 441
f 450 445 449
f 450 449 454
f 454 538 450
f 486 452 485
f 454 452 486
f 539 540 568
f 568 542 539
f 539 542 540
f 552 536 537
f 552 538 5
f 537 538 552
f 547 586 540
f 547 540 541
f 541 545 547
f 547 545 546
f 396 543 544
f 384 543 396
f 385 384 396
f 144 145 475
f 475 439 144
f 144 439 432
f 432 147 144
f 144 147 146
f 146 145 144
f 805 511 695
f 805 723 830
f 721 133 135
f 721 132 133
f 699 7 721
f 725 132 721
f 721 7 725
f 721 749 699
f 723 721 139
f 142 494 830
f 830 723 142
f 723 139 142
f 142 145 494
f 489 488 504
f 504 501 489
f 489 501 488
f 830 494 833
f 722 501 504
f 504 730 722
f 494 501 596
f 501 722 596
f 596 722 730
f 724 718 725
f 725 727 724
f 724 727 718
f 141 138 154
f 702 700 699
f 702 703 700
f 699 749 702
f 749 703 702
f 743 747 816
f 743 740 748
f 813 747 743
f 743 128 744
f 743 748 128
f 743 762 813
f 744 762 743
f 15 624 623
f 624 626 623
f 93 229 80
f 93 92 229
f 80 47 93
f 47 92 93
f 80 229 84
f 229 228 84
f 84 88 80
f 84 228 192
f 192 88 84
f 708 740 709
f 705 708 709
f 734 737 854
f 854 740 734
f 737 740 854
f 728 727 705
f 829 727 728
f 697 709 690
f 690 709 740
f 691 707 698
f 698 697 691
f 697 690 691
f 641 640 795
f 795 850 641
f 641 642 813
f 813 640 641
f 641 850 633
f 633 642 641
f 209 226 212
f 226 241 212
f 212 257 209
f 210 257 212
f 238 242 259
f 259 241 238
f 259 242 210
f 210 212 259
f 259 212 241
f 238 241 233
f 233 241 232
f 232 237 233
f 579 584 571
f 571 584 529
f 571 533 579
f 546 550 522
f 522 547 546
f 586 547 522
f 522 550 585
f 585 548 522
f 522 548 204
f 204 518 522
f 518 223 522
f 522 223 221
f 221 586 522
f 57 52 425
f 327 903 908
f 327 908 329
f 329 908 898
f 908 895 898
f 407 424 406
f 425 424 407
f 407 57 425
f 281 284 280
f 280 282 281
f 281 282 283
f 283 351 281
f 406 284 68
f 68 407 406
f 63 407 68
f 329 64 69
f 67 66 60
f 67 896 897
f 895 896 67
f 329 898 67
f 67 898 895
f 50 52 58
f 58 60 50
f 361 374 421
f 421 4 361
f 421 391 4
f 454 373 394
f 373 391 394
f 394 388 454
f 394 391 388
f 362 401 361
f 360 401 362
f 362 402 360
f 361 4 362
f 417 382 395
f 215 216 197
f 197 198 215
f 197 216 195
f 195 198 197
f 204 548 224
f 110 686 113
f 113 686 685
f 682 685 686
f 113 685 682
f 682 684 113
f 656 654 790
f 654 783 790
f 790 785 656
f 790 827 785
f 283 282 340
f 826 811 785
f 785 827 826
f 858 872 906
f 858 912 872
f 858 840 752
f 899 915 914
f 914 896 899
f 897 896 914
f 915 889 914
f 899 896 894
f 894 903 899
f 77 82 76
f 76 159 77
f 77 159 82
f 160 171 172
f 158 189 160
f 189 171 160
f 182 172 190
f 190 183 182
f 369 398 370
f 370 398 365
f 420 369 370
f 370 365 420
f 397 398 428
f 369 368 428
f 428 398 369
f 428 368 414
f 414 412 428
f 101 400 54
f 56 400 101
f 101 98 102
f 53 54 50
f 53 99 54
f 167 187 166
f 163 188 190
f 190 171 163
f 189 188 163
f 163 171 189
f 444 445 447
f 447 453 444
f 442 445 444
f 444 453 442
f 318 286 287
f 333 347 318
f 347 286 318
f 318 355 333
f 318 373 355
f 356 373 318
f 318 317 356
f 360 317 334
f 781 711 679
f 679 675 781
f 675 663 781
f 659 661 842
f 634 636 650
f 650 828 634
f 650 651 828
f 274 338 277
f 276 338 274
f 464 476 468
f 468 467 464
f 256 241 226
f 256 237 241
f 226 240 256
f 240 237 256
f 120 122 249
f 249 267 120
f 120 267 252
f 252 251 120
f 33 37 34
f 817 37 33
f 44 94 36
f 36 94 40
f 35 42 45
f 44 36 35
f 34 42 35
f 35 33 34
f 758 759 729
f 771 794 48
f 48 754 755
f 755 729 48
f 48 729 759
f 45 42 48
f 48 42 43
f 79 44 45
f 79 78 44
f 45 48 79
f 79 48 794
f 794 92 79
f 79 92 47
f 79 47 80
f 80 78 79
f 90 91 862
f 862 94 90
f 82 161 180
f 17 175 16
f 165 166 16
f 890 878 879
f 879 889 890
f 879 911 880
f 177 884 886
f 887 177 17
f 887 884 177
f 887 879 884
f 868 872 892
f 906 872 868
f 868 867 906
f 116 114 313
f 116 108 114
f 892 893 900
f 900 873 892
f 900 893 903
f 822 911 46
f 822 39 911
f 911 39 41
f 755 754 773
f 773 48 43
f 754 48 773
f 43 42 773
f 773 42 34
f 34 37 773
f 773 37 817
f 817 798 773
f 577 205 258
f 258 531 577
f 258 205 210
f 210 242 258
f 735 736 27
f 27 736 30
f 448 450 538
f 445 450 448
f 448 538 446
f 446 445 448
f 460 464 463
f 463 464 467
f 551 542 536
f 536 552 551
f 5 542 551
f 551 552 5
f 387 393 388
f 387 386 385
f 385 396 387
f 5 393 387
f 387 544 5
f 387 396 544
f 706 805 695
f 695 694 706
f 693 749 706
f 749 721 706
f 706 731 693
f 694 731 706
f 723 805 706
f 706 721 723
f 511 805 831
f 136 721 135
f 136 139 721
f 135 138 136
f 138 141 136
f 515 833 494
f 730 833 515
f 494 596 515
f 515 596 730
f 154 152 151
f 151 141 154
f 151 152 475
f 475 141 151
f 143 141 475
f 746 743 816
f 18 766 768
f 766 767 768
f 737 18 768
f 768 767 737
f 770 737 769
f 769 767 770
f 737 767 769
f 770 767 764
f 764 748 770
f 128 748 764
f 129 128 764
f 696 728 705
f 705 709 696
f 696 709 697
f 720 697 642
f 720 642 717
f 692 690 740
f 692 691 690
f 707 691 692
f 816 707 692
f 692 746 816
f 249 19 262
f 262 264 249
f 237 264 262
f 262 233 237
f 329 69 71
f 71 69 351
f 284 281 285
f 285 68 284
f 63 68 285
f 50 60 61
f 60 66 61
f 907 67 897
f 66 67 907
f 52 57 59
f 59 58 52
f 59 63 64
f 60 58 59
f 59 407 63
f 57 407 59
f 376 362 3
f 3 362 4
f 3 391 376
f 4 391 3
f 402 362 372
f 371 317 372
f 317 402 372
f 372 376 371
f 372 362 376
f 385 395 383
f 383 395 382
f 383 399 385
f 383 382 399
f 549 377 216
f 549 224 553
f 549 553 576
f 576 381 549
f 549 381 377
f 548 553 554
f 554 224 548
f 553 224 554
f 201 215 204
f 201 216 215
f 201 549 216
f 686 783 678
f 783 789 678
f 678 663 837
f 658 657 659
f 658 783 654
f 658 654 652
f 652 775 658
f 782 783 686
f 782 686 106
f 106 827 782
f 788 116 117
f 108 116 788
f 686 110 107
f 106 686 107
f 107 788 106
f 108 788 107
f 808 811 791
f 791 793 808
f 792 812 810
f 792 810 808
f 808 793 792
f 793 306 792
f 912 858 875
f 17 914 888
f 888 914 889
f 888 887 17
f 889 887 888
f 902 896 908
f 902 894 896
f 908 903 902
f 903 894 902
f 162 160 172
f 172 180 162
f 162 180 161
f 165 175 164
f 164 182 165
f 397 428 419
f 54 99 100
f 100 101 54
f 98 101 410
f 190 98 410
f 99 104 169
f 169 182 99
f 165 182 169
f 167 166 169
f 169 166 165
f 185 187 168
f 185 166 187
f 168 914 185
f 185 914 17
f 17 16 185
f 185 16 166
f 415 412 56
f 415 426 397
f 415 427 426
f 415 101 102
f 56 101 415
f 98 363 415
f 363 427 415
f 102 98 415
f 317 318 8
f 8 288 268
f 8 287 288
f 8 334 317
f 268 360 8
f 360 334 8
f 711 781 844
f 661 650 844
f 844 842 661
f 781 842 844
f 649 711 844
f 844 650 649
f 663 678 796
f 796 678 789
f 662 781 663
f 662 842 781
f 659 842 843
f 843 658 659
f 842 796 843
f 783 658 843
f 843 796 789
f 843 789 783
f 660 661 659
f 659 650 660
f 660 650 661
f 814 649 846
f 649 650 846
f 846 636 814
f 846 650 636
f 347 274 292
f 274 277 292
f 273 779 780
f 456 779 273
f 476 464 825
f 820 810 825
f 810 476 825
f 825 464 460
f 825 463 820
f 460 463 825
f 229 230 266
f 122 120 266
f 266 230 855
f 855 131 266
f 266 131 122
f 45 44 96
f 96 35 45
f 44 35 96
f 760 48 759
f 760 759 119
f 771 48 760
f 760 119 771
f 40 94 860
f 94 862 860
f 860 861 911
f 862 859 860
f 860 859 861
f 860 41 40
f 911 41 860
f 863 879 878
f 73 82 75
f 181 180 184
f 181 891 73
f 184 891 181
f 73 75 181
f 82 180 181
f 181 75 82
f 177 891 179
f 179 891 184
f 179 174 175
f 184 180 179
f 179 180 172
f 172 174 179
f 73 891 74
f 74 72 73
f 91 72 74
f 74 861 91
f 909 861 74
f 175 174 173
f 173 164 175
f 182 164 173
f 172 182 173
f 173 174 172
f 170 175 165
f 165 16 170
f 170 16 175
f 909 74 178
f 178 74 891
f 178 891 177
f 177 886 178
f 884 879 881
f 881 886 884
f 889 879 885
f 885 887 889
f 879 887 885
f 871 116 313
f 840 858 839
f 839 118 840
f 858 118 839
f 892 873 869
f 869 868 892
f 873 868 869
f 38 41 39
f 38 36 40
f 40 41 38
f 817 33 38
f 33 35 38
f 38 35 36
f 817 688 834
f 817 611 610
f 610 688 817
f 610 611 608
f 645 646 610
f 610 646 669
f 669 688 610
f 669 668 607
f 619 626 624
f 619 623 626
f 15 623 619
f 619 606 15
f 852 606 619
f 619 668 852
f 619 607 668
f 608 611 612
f 605 644 645
f 243 258 242
f 531 258 243
f 13 735 12
f 12 27 13
f 735 27 12
f 13 27 22
f 22 14 13
f 21 14 22
f 22 28 19
f 30 28 22
f 22 27 30
f 20 21 22
f 22 19 20
f 437 431 479
f 479 480 437
f 479 436 451
f 431 436 479
f 462 458 820
f 820 463 462
f 462 461 457
f 457 458 462
f 451 461 462
f 462 479 451
f 463 479 462
f 481 482 437
f 437 480 481
f 471 486 485
f 469 467 468
f 469 480 467
f 510 511 509
f 511 831 509
f 504 510 507
f 510 509 507
f 830 833 508
f 508 805 830
f 508 831 805
f 139 136 140
f 140 136 141
f 141 143 140
f 140 142 139
f 145 142 140
f 140 143 475
f 740 743 853
f 743 746 853
f 127 129 125
f 129 764 125
f 125 766 126
f 125 121 127
f 125 126 121
f 851 696 697
f 728 696 851
f 697 720 851
f 829 728 851
f 851 720 829
f 757 720 717
f 717 829 757
f 829 720 757
f 19 28 29
f 29 262 19
f 903 327 328
f 349 327 329
f 349 328 327
f 70 281 351
f 70 285 281
f 65 69 64
f 64 63 65
f 63 285 65
f 285 70 65
f 351 69 65
f 65 70 351
f 105 907 897
f 105 914 168
f 897 914 105
f 168 187 105
f 187 907 105
f 103 187 167
f 103 907 187
f 167 169 103
f 62 59 64
f 60 59 62
f 62 67 60
f 62 64 329
f 329 67 62
f 423 392 421
f 423 421 374
f 386 387 390
f 390 392 386
f 390 387 388
f 388 391 390
f 391 421 390
f 421 392 390
f 204 224 521
f 521 201 204
f 224 549 521
f 549 201 521
f 677 682 686
f 686 678 677
f 677 678 837
f 677 680 836
f 836 683 677
f 677 837 669
f 669 680 677
f 677 683 684
f 684 682 677
f 657 658 774
f 659 657 774
f 774 650 659
f 651 650 774
f 774 658 775
f 783 782 784
f 784 782 827
f 784 790 783
f 827 790 784
f 335 340 282
f 335 330 340
f 335 282 289
f 289 315 335
f 311 310 302
f 302 310 309
f 308 311 117
f 310 311 308
f 308 309 310
f 117 116 308
f 308 116 873
f 106 788 787
f 787 788 826
f 787 827 106
f 787 826 827
f 339 788 117
f 811 826 786
f 826 788 786
f 788 339 786
f 113 112 109
f 108 107 109
f 109 110 113
f 109 107 110
f 336 792 306
f 915 912 874
f 874 875 915
f 912 875 874
f 905 889 915
f 915 875 905
f 878 889 905
f 905 863 878
f 158 160 186
f 160 162 186
f 186 161 158
f 186 162 161
f 409 182 183
f 183 100 409
f 99 182 409
f 409 100 99
f 429 100 183
f 101 100 429
f 97 410 101
f 101 429 97
f 190 410 97
f 97 429 183
f 97 183 190
f 412 415 55
f 55 428 412
f 55 419 428
f 397 419 55
f 55 415 397
f 9 318 287
f 287 8 9
f 9 8 318
f 663 796 676
f 676 796 842
f 676 662 663
f 842 662 676
f 345 277 338
f 345 292 277
f 345 338 314
f 314 304 345
f 345 304 302
f 347 292 345
f 345 287 347
f 345 346 287
f 276 273 278
f 278 792 276
f 272 276 274
f 272 273 276
f 272 274 456
f 456 273 272
f 254 244 229
f 229 266 254
f 251 244 254
f 254 120 251
f 254 266 120
f 95 862 91
f 95 859 862
f 91 861 95
f 861 859 95
f 911 879 910
f 879 863 910
f 46 911 910
f 910 863 46
f 177 179 176
f 176 179 175
f 17 177 176
f 176 175 17
f 883 881 879
f 911 861 883
f 883 861 909
f 886 881 883
f 909 178 883
f 883 178 886
f 865 858 906
f 865 118 858
f 873 116 870
f 116 871 870
f 870 868 873
f 870 871 868
f 867 868 913
f 868 871 913
f 873 900 901
f 901 296 873
f 818 798 817
f 817 834 818
f 818 834 798
f 755 773 799
f 799 773 798
f 798 834 799
f 756 688 669
f 669 607 756
f 607 619 756
f 819 611 817
f 603 610 608
f 608 605 603
f 645 610 603
f 603 605 645
f 113 644 643
f 529 531 527
f 531 243 527
f 527 574 524
f 527 525 574
f 527 526 525
f 527 524 532
f 527 571 529
f 533 571 527
f 532 533 527
f 466 479 463
f 480 469 483
f 483 469 468
f 1 468 470
f 1 471 468
f 470 472 1
f 1 472 456
f 456 455 1
f 824 833 730
f 824 508 833
f 824 730 504
f 824 509 831
f 831 508 824
f 475 145 148
f 148 140 475
f 145 140 148
f 746 692 742
f 742 853 746
f 742 692 740
f 740 853 742
f 765 764 767
f 765 125 764
f 765 767 766
f 766 125 765
f 236 29 28
f 236 32 235
f 236 28 32
f 262 29 236
f 329 71 350
f 350 349 329
f 350 71 351
f 340 349 350
f 350 351 283
f 283 340 350
f 907 103 49
f 49 169 104
f 49 103 169
f 99 53 49
f 49 104 99
f 49 53 50
f 66 907 49
f 50 61 49
f 49 61 66
f 374 417 389
f 389 423 374
f 392 423 389
f 386 392 389
f 417 395 389
f 385 386 389
f 389 395 385
f 841 774 775
f 652 635 841
f 841 775 652
f 635 638 841
f 638 651 841
f 651 774 841
f 354 335 315
f 330 335 354
f 354 315 288
f 340 330 342
f 342 324 340
f 341 320 321
f 321 342 341
f 341 342 346
f 302 304 303
f 303 311 302
f 303 336 306
f 792 336 303
f 302 309 295
f 301 295 294
f 294 295 309
f 348 308 873
f 301 294 348
f 309 308 348
f 348 294 309
f 307 339 793
f 307 786 339
f 793 791 307
f 307 791 811
f 811 786 307
f 108 109 111
f 111 109 112
f 114 108 111
f 687 112 113
f 687 838 112
f 114 111 115
f 115 111 112
f 312 303 304
f 792 303 312
f 312 304 314
f 276 792 312
f 314 338 312
f 338 276 312
f 630 875 858
f 858 627 630
f 630 627 875
f 875 627 876
f 876 905 875
f 863 905 876
f 812 792 275
f 792 278 275
f 275 278 273
f 275 273 780
f 780 810 275
f 810 812 275
f 882 879 880
f 882 883 879
f 880 911 882
f 911 883 882
f 906 867 866
f 866 865 906
f 867 913 866
f 866 913 871
f 118 865 866
f 313 114 866
f 114 115 866
f 866 115 118
f 866 871 313
f 298 900 903
f 298 901 900
f 800 834 688
f 688 799 800
f 800 799 834
f 621 622 801
f 801 624 621
f 801 619 624
f 823 819 817
f 822 819 823
f 39 822 823
f 817 38 823
f 823 38 39
f 615 612 613
f 618 615 613
f 613 819 618
f 613 612 611
f 611 819 613
f 615 616 609
f 608 612 609
f 609 612 615
f 628 616 615
f 528 243 242
f 528 527 243
f 242 526 528
f 526 527 528
f 480 479 478
f 479 466 478
f 467 480 478
f 478 463 467
f 478 466 463
f 484 471 485
f 485 482 484
f 468 471 484
f 484 483 468
f 482 481 484
f 484 481 480
f 480 483 484
f 487 455 454
f 487 1 455
f 454 486 487
f 486 471 487
f 471 1 487
f 504 507 514
f 514 824 504
f 514 507 509
f 509 824 514
f 234 235 238
f 234 236 235
f 238 233 234
f 233 262 234
f 262 236 234
f 321 320 323
f 323 342 321
f 324 342 323
f 323 326 324
f 287 346 344
f 288 287 344
f 344 354 288
f 117 311 353
f 353 339 117
f 353 306 793
f 793 339 353
f 320 341 293
f 293 295 301
f 332 345 302
f 302 295 332
f 112 838 673
f 673 115 112
f 118 115 673
f 840 118 673
f 752 840 673
f 673 778 752
f 753 778 673
f 673 838 753
f 856 627 858
f 856 629 627
f 856 858 752
f 627 629 904
f 904 876 627
f 46 863 821
f 821 822 46
f 804 819 821
f 821 819 822
f 296 901 297
f 901 298 297
f 297 299 296
f 297 298 903
f 903 326 297
f 297 326 299
f 835 799 688
f 835 801 799
f 688 756 835
f 835 756 619
f 619 801 835
f 799 801 807
f 807 729 755
f 755 799 807
f 758 729 807
f 807 622 758
f 807 801 622
f 616 628 604
f 604 609 616
f 604 605 608
f 608 609 604
f 644 605 604
f 604 643 644
f 328 349 325
f 903 328 325
f 325 326 903
f 324 326 325
f 325 349 340
f 340 324 325
f 296 299 300
f 299 326 300
f 330 354 343
f 354 344 343
f 343 342 330
f 346 342 343
f 343 344 346
f 311 303 305
f 305 353 311
f 305 303 306
f 306 353 305
f 331 293 301
f 320 293 331
f 301 348 331
f 295 293 290
f 345 332 290
f 290 332 295
f 291 341 346
f 291 293 341
f 346 345 291
f 345 290 291
f 291 290 293
f 629 856 857
f 601 628 857
f 857 628 629
f 857 778 753
f 752 778 857
f 857 856 752
f 629 628 877
f 877 904 629
f 863 876 864
f 864 821 863
f 802 821 904
f 904 877 802
f 750 628 601
f 750 604 628
f 113 643 750
f 750 687 113
f 601 857 750
f 320 331 337
f 617 615 618
f 618 802 617
f 617 802 877
f 617 628 615
f 617 877 628
f 803 864 876
f 821 864 803
f 876 904 803
f 904 821 803
f 614 802 618
f 821 802 614
f 804 821 614
f 618 819 614
f 614 819 804
f 643 604 777
f 777 750 643
f 604 750 777
f 751 857 753
f 751 750 857
f 753 838 751
f 838 687 751
f 687 750 751
f 322 337 300
f 326 323 322
f 322 300 326
f 322 323 320
f 320 337 322
f 300 337 352
f 296 300 352
f 319 331 348
f 319 337 331
f 319 352 337
f 296 352 319
f 873 296 319
f 319 348 873

