# https://github.com/mikedh/trimesh
v 0.02010666 -0.02669602 0.04633796
v 0.02009763 -0.02671188 0.04633840
v 0.01897762 -0.02441665 0.05001806
v 0.01897542 -0.02442084 0.05001820
v -0.01771314 -0.03171055 0.03798804
v -0.01771035 -0.03171178 0.03798851
v 0.02142435 -0.02507600 -0.06513464
v 0.02143459 -0.02506591 -0.06508701
v 0.01588091 -0.00018701 0.06339711
v -0.02026562 -0.02913222 -0.05781659
v -0.02028335 -0.02913238 -0.05777694
v 0.01097021 0.01488880 0.06125112
v 0.01095425 0.01488574 0.06126622
v 0.01050933 0.01370135 -0.06630955
v 0.00702175 0.03428231 0.01019786
v 0.00846803 0.03398912 0.01851486
v 0.00663924 0.03431386 0.01419814
v 0.00279002 0.03341379 0.03608580
v 0.00492073 0.03330486 0.03636720
v -0.00636183 0.03292396 0.04510321
v 0.00020161 0.03264259 0.04393858
v -0.01059460 0.03305387 0.04455288
v -0.00850642 0.03307547 0.04481578
v -0.00757182 0.03420560 0.03063908
v 0.00687182 0.03260474 0.04073709
v 0.00771969 0.03420423 0.01029429
v -0.00982910 0.03413176 0.03238595
v -0.00951231 0.03430192 0.02835710
v -0.01154946 0.03412368 0.02811638
v -0.00998552 0.03404063 0.03440123
v 0.00632447 0.03322409 0.03655349
v 0.00951953 0.03385335 0.01866195
v 0.00867952 0.03385156 0.02058150
v -0.01022961 0.03364734 0.03846170
v -0.00002654 0.03461483 -0.02922420
v -0.01228191 0.03351561 0.03821440
v -0.01240936 0.03333554 0.04024227
v 0.00006336 0.03460400 -0.02921171
v -0.00752432 0.03547904 -0.02013262
v -0.00945450 0.03554372 -0.02241012
v -0.01075714 0.03554326 -0.00839342
v 0.00707036 0.03313787 0.03665681
v 0.00694392 0.03295469 0.03868514
v 0.00458488 0.03389392 -0.03059254
v -0.00888925 0.03566977 -0.00614300
v -0.01093816 0.03552762 -0.00638883
v 0.00903902 0.03395030 0.01251323
v 0.01058498 0.03364861 0.01476572
v -0.00923390 0.03543785 -0.02439750
v -0.01127836 0.03528205 -0.02464140
v -0.00900201 0.03529736 -0.02637998
v -0.00858059 0.03273188 0.04686683
v 0.00917631 0.03253366 0.03901073
v 0.00930281 0.03271665 0.03698244
v 0.00906678 0.03229859 0.04104642
v 0.00103571 0.03256316 0.04405242
v 0.00453604 0.03220062 0.04453311
v 0.00569272 0.03204899 0.04469514
v 0.00846490 0.03298573 -0.04621695
v 0.00485960 0.03311738 -0.05073980
v 0.00674258 0.03298364 -0.05048736
v 0.00460225 0.03312211 -0.05077294
v 0.00966566 0.03287490 -0.03592340
v 0.00273349 0.03299827 -0.05302374
v 0.00297637 0.03282403 -0.05500144
v 0.00719327 0.03274282 -0.05445801
v 0.00912763 0.03266530 -0.05217869
v 0.00936384 0.03251153 -0.05415928
v -0.01199489 0.03318811 -0.05491238
v -0.00748642 0.03278319 -0.05632547
v -0.01279944 0.03312686 -0.05500836
v -0.01431843 0.03331765 -0.05319431
v 0.00116032 0.03253842 -0.05722932
v 0.00325802 0.03253081 -0.05696228
v 0.00749931 0.03237472 -0.05640824
v 0.00570845 0.03201176 -0.05862517
v 0.00781112 0.03198889 -0.05835597
v 0.00964258 0.03222723 -0.05612139
v 0.00995057 0.03185315 -0.05807078
v 0.00673577 0.03187985 0.04484450
v 0.00876580 0.03291460 -0.04617162
v -0.01403292 0.03301255 -0.05515347
v -0.01441586 0.03306321 0.04001488
v -0.01476571 0.03242330 0.04611264
v -0.01645585 0.03232245 0.04185621
v -0.01486548 0.03215829 0.04815255
v -0.01282977 0.03234094 0.04839265
v -0.00642412 0.03254388 0.04715942
v -0.01303987 0.03482905 -0.02684558
v -0.00427822 0.03181708 0.04953070
v -0.01358492 0.03478825 -0.02083267
v -0.01427063 0.03318872 0.03799473
v 0.01027546 0.03229455 -0.05402180
v 0.01037091 0.03204396 -0.05601056
v 0.01040447 0.03177239 -0.05800506
v -0.01271923 0.03513462 -0.00860151
v 0.01023469 0.03245679 0.03712679
v 0.00942080 0.03246385 0.03904877
v 0.00905112 0.03177542 0.04312288
v 0.00392858 0.03173395 0.04652880
v 0.01109021 0.03351421 0.01484333
v 0.00453214 0.03164133 0.04661470
v 0.00362375 0.03197950 -0.05888657
v -0.01625870 0.03284206 -0.05339291
v -0.01161687 0.03259906 -0.05683132
v 0.00157509 0.03183659 -0.05913229
v 0.01075137 0.03341173 0.01886260
v -0.01598486 0.03257278 -0.05535715
v 0.01141303 0.03152810 0.04142151
v 0.01140344 0.03140276 0.04198174
v 0.01059569 0.03133525 0.04336309
v -0.01365642 0.03242820 -0.05707308
v -0.01419472 0.03237096 -0.05713567
v 0.00677401 0.03119121 0.04694442
v 0.00905950 0.03117846 0.04520981
v -0.01566021 0.03214756 -0.05729930
v 0.01169604 0.03178414 -0.05379029
v 0.01198374 0.03147235 -0.05574850
v 0.01227206 0.03115862 -0.05770644
v 0.01169178 0.03142384 0.04146735
v -0.01510013 0.03415049 -0.02501306
v -0.01789394 0.03200144 -0.05554219
v 0.01344236 0.03070941 -0.05751284
v -0.01676199 0.03353885 -0.00490266
v -0.01900089 0.03226610 0.00101878
v 0.01278181 0.03145503 -0.04146346
v 0.00917931 0.03113809 0.04522907
v 0.01011208 0.03156865 -0.05877093
v 0.00921858 0.03108747 -0.06011293
v 0.01450274 0.03096194 0.03174048
v -0.01812891 0.03215141 -0.05356106
v -0.01696194 0.03343405 -0.02517754
v 0.00906391 0.03112082 0.04537257
v 0.00765826 0.03090545 0.04708532
v 0.00827799 0.03112715 -0.06023630
v -0.01544722 0.03407334 -0.02099738
v 0.00389009 0.03149302 -0.05997804
v -0.01672759 0.03144280 0.04798793
v 0.00617296 0.03115726 -0.06050653
v -0.01831831 0.03160805 0.04169143
v 0.00410243 0.03108149 -0.06076176
v -0.01882322 0.03271603 -0.02534181
v -0.02067335 0.03196374 -0.02550122
v 0.01293673 0.03110390 -0.05356458
v 0.01042152 0.03097887 -0.05994933
v 0.01267829 0.03048303 -0.05961314
v 0.00257745 0.03092910 -0.06094006
v 0.00207403 0.03087640 -0.06099868
v 0.01369249 0.03096501 -0.04129872
v -0.00795266 0.02946723 -0.06202460
v 0.01142812 0.03091052 0.04351135
v 0.00005258 0.03064999 -0.06123257
v -0.00196569 0.03041380 -0.06146508
v 0.01473917 0.03001716 -0.05727880
v 0.01508489 0.02952727 -0.05921180
v -0.01966054 0.03098828 0.03558431
v 0.00918473 0.03022282 0.04734755
v -0.02166694 0.03014892 -0.05380935
v -0.02146352 0.03009580 -0.05580420
v -0.01933240 0.03055685 -0.05760592
v -0.02318836 0.03024874 -0.03780448
v 0.00685329 0.03073703 0.04774781
v -0.00833388 0.02932327 -0.06216409
v 0.01291828 0.03002979 0.04378883
v 0.01178436 0.02992838 0.04568107
v 0.01544472 0.02881715 -0.06049345
v 0.01013129 0.02965099 0.04752505
v 0.01102143 0.02970877 -0.06177181
v 0.01322232 0.02938443 -0.06145991
v 0.01384049 0.03005945 0.04187693
v 0.00213650 0.03074817 -0.06120314
v -0.01308592 0.03124836 -0.05890835
v 0.00838393 0.02934164 0.04936026
v 0.00699088 0.02995432 0.04912199
v -0.01184172 0.02857196 -0.06253403
v -0.02242672 0.03091448 -0.02561856
v 0.00845904 0.03074437 -0.06078816
v -0.01265052 0.03031774 -0.06019884
v 0.00892581 0.02971001 -0.06203795
v -0.00143666 0.02931060 -0.06313368
v 0.00932920 0.02951170 0.04838662
v -0.02109863 0.02954708 -0.05772886
v -0.01552298 0.03185634 -0.05771369
v -0.01696436 0.03029073 -0.05930464
v -0.00283862 0.02881030 -0.06344109
v -0.02332175 0.02879714 -0.05388385
v -0.01638052 0.02900407 -0.06089381
v -0.02306881 0.02859202 -0.05585717
v 0.01360307 0.02845212 0.04605997
v -0.01369602 0.02783248 -0.06269525
v 0.01417021 0.02892505 0.04405854
v 0.01462667 0.02851614 0.04415749
v 0.01205806 0.02821136 0.04791400
v -0.01875639 0.02936012 -0.05943879
v 0.00956145 0.02849530 0.04959461
v 0.01033708 0.02791095 0.04975167
v -0.01830838 0.02839690 -0.06074606
v 0.01236499 0.02644452 0.04971873
v 0.01379805 0.02798784 -0.06256083
v -0.02030353 0.02784289 -0.06006823
v 0.02285032 -0.02480505 -0.02434718
v 0.02629945 -0.02074362 -0.03441756
v 0.02596874 -0.02154483 -0.03567211
v -0.01303742 0.03147769 0.05377491
v 0.01751748 0.02581776 0.01845703
v 0.01714193 0.02750026 0.01621463
v 0.01710145 0.02763194 0.01723744
v 0.01605790 0.02950848 0.01790163
v 0.01694582 0.02799967 0.02019166
v 0.01623947 0.02928709 0.01592088
v 0.01476704 0.02494415 0.04858552
v 0.01584003 0.02502491 0.04668762
v 0.01693540 0.02302052 0.04500167
v 0.01644193 0.02494599 0.04474594
v 0.01904536 0.00784269 0.05286959
v 0.01957393 0.00564618 0.05113096
v 0.01972537 0.00388773 0.05335253
v 0.01705864 0.02775497 0.01820452
v 0.01689792 0.02481761 0.04279070
v 0.01571156 0.02679115 0.04446819
v 0.01624204 0.02668802 0.04251988
v 0.01539090 0.02849225 0.04223090
v 0.01925271 0.00429340 0.05730385
v 0.01948232 0.00227849 0.05753505
v 0.01976835 0.00180956 0.05356639
v 0.01917725 0.00245803 0.05950433
v 0.01789918 0.00649322 0.06096343
v 0.01566464 0.00811146 0.06254350
v 0.01710598 0.00831708 0.06067984
v 0.01611161 0.01007276 0.06037755
v 0.01727641 0.00224027 0.06233927
v 0.01633978 0.00206211 0.06323585
v 0.01587685 -0.00017626 0.06340156
v 0.01815120 0.00239318 0.06140659
v 0.01663355 0.02653779 0.04055863
v 0.01581775 0.02835399 0.04027294
v 0.01481180 0.02982280 0.03797195
v 0.01419750 0.03055504 0.03782054
v 0.01336799 0.03142613 0.03762788
v 0.01945746 -0.00191540 0.05795248
v 0.01973868 0.00368863 0.05337418
v 0.01732281 -0.00207308 0.06174932
v 0.01777444 0.02437278 -0.05227547
v 0.01747028 0.02551359 -0.05850650
v 0.01682698 0.02738826 -0.05877616
v 0.01712962 0.02511517 -0.06053579
v 0.01649174 0.02699169 -0.06080494
v 0.01572806 0.02910850 -0.05908816
v 0.01540883 0.02956618 -0.05512257
v 0.01574479 0.02807306 -0.06100820
v 0.01758449 0.02317662 -0.06028364
v 0.02260672 -0.02502725 -0.02635861
v 0.01743599 0.02304541 -0.06086845
v 0.01586224 0.02215849 -0.06351033
v 0.01795158 -0.00540185 0.06013695
v 0.01588820 -0.00607083 0.06196812
v 0.01747233 -0.00424332 0.06106813
v 0.01712355 0.02461114 0.04081404
v 0.02109106 -0.02483549 0.04222433
v 0.02098190 -0.02458955 0.04421181
v 0.01498437 0.02682760 0.04639823
v 0.01451974 0.03107984 0.01754880
v 0.01847394 -0.00405858 0.06006855
v 0.02078118 -0.02437464 0.04619078
v 0.02031530 -0.02424961 0.04814512
v 0.01897910 -0.02442013 0.05001475
v 0.01444820 0.02750056 0.04626268
v 0.01424071 0.02849242 0.04487778
v 0.01521900 0.02865301 -0.06113311
v 0.01462676 0.02678790 0.04694052
v 0.01308958 0.03240485 0.01520838
v 0.01908969 0.00433750 0.05799021
v 0.01890327 -0.00182031 0.05989859
v 0.01889877 -0.00187813 0.05990382
v 0.01685121 0.02490693 -0.06136561
v 0.01690472 0.02266326 -0.06234445
v 0.01501105 0.02620684 -0.06294019
v 0.01665177 -0.00219553 0.06242833
v 0.01373162 0.02668591 0.04827941
v 0.01704993 -0.00320562 0.06182826
v 0.01250575 -0.03101239 -0.06157209
v 0.01064914 -0.03174478 -0.06173432
v 0.01568400 -0.02961937 -0.05523034
v 0.02340208 -0.02401023 -0.04468311
v 0.02142714 -0.02509794 -0.06508475
v 0.01700446 -0.03074779 0.00988247
v 0.02133719 -0.02539310 -0.06304056
v 0.00609272 -0.03484157 0.02106390
v 0.01021490 -0.03396889 0.01947364
v 0.00833105 -0.03444923 0.01868527
v 0.00481043 -0.03481258 0.03508022
v 0.00643474 -0.03450968 0.03930804
v -0.00739838 -0.03421151 0.02739217
v -0.01190426 -0.03381455 0.02880641
v -0.02145551 -0.03022226 0.02723374
v -0.02170411 -0.03003045 0.02920895
v -0.01957524 -0.03138077 0.02961460
v -0.01932123 -0.03148463 0.03168325
v -0.01987664 -0.03120000 0.03158420
v -0.02005311 -0.03097687 0.03356543
v -0.02172974 -0.02999630 0.02936017
v -0.01311627 -0.03365982 0.02863704
v -0.01452740 -0.03333668 0.03247750
v -0.01437855 -0.03323886 0.03451259
v -0.01027586 -0.03409545 0.03511928
v -0.01049722 -0.03381724 0.03648621
v -0.00656163 -0.03377629 0.03961075
v -0.00722963 -0.03286845 0.04348692
v -0.00545171 -0.03383255 0.03975728
v -0.00597527 -0.03443354 0.03569909
v -0.00623376 -0.03421140 0.03767000
v -0.01015026 -0.03147746 0.04702869
v -0.01230109 -0.03130677 0.04673855
v -0.01320008 -0.03114174 0.04660788
v -0.01408386 -0.03169455 0.04452514
v -0.01728447 -0.03071641 0.04402077
v -0.01757497 -0.03109783 0.04199613
v -0.01882901 -0.02999194 0.04375206
v -0.01767152 -0.03141350 0.03998953
v -0.02087276 -0.02957868 0.04142517
v -0.01515898 -0.02953711 0.04822430
v -0.02205676 -0.02871448 0.03916221
v -0.01600727 -0.03165065 0.04225057
v -0.02193329 -0.02782380 0.04516657
v -0.02226859 -0.02700811 0.04706820
v -0.02026621 -0.02991733 0.04153613
v -0.00841293 -0.03395373 0.03736754
v -0.01477314 -0.03315364 0.03445395
v -0.01405607 -0.03173637 0.04437863
v 0.00956059 -0.03424559 0.02752234
v 0.01313073 -0.03291290 0.02986788
v 0.01180567 -0.03356305 0.02368687
v 0.00972573 -0.03418120 0.02551084
v 0.00612285 -0.03484213 0.02106777
v -0.02205590 -0.02952193 0.03113929
v -0.00884457 -0.03207541 -0.05607166
v -0.01820758 -0.03020336 -0.05339591
v -0.01791291 -0.03014452 -0.05539041
v -0.01808337 -0.03013972 -0.05496445
v -0.02039948 -0.02933537 -0.05578719
v -0.01796428 -0.02980764 -0.05745672
v -0.02067495 -0.02742347 -0.05979591
v -0.02221394 -0.02769989 -0.05820754
v -0.02095936 -0.02908442 -0.05588343
v -0.02138825 -0.02894686 -0.05392567
v -0.02313402 -0.02794432 -0.05424781
v -0.02361275 -0.02760815 -0.05434229
v -0.00643679 -0.03246352 -0.05775310
v -0.00413798 -0.03251716 -0.05948192
v -0.00418003 -0.03254090 -0.05894285
v -0.01056431 -0.02878538 -0.06269790
v -0.01143801 -0.02899901 -0.06219651
v -0.01335697 -0.02763926 -0.06316733
v -0.01185948 -0.02726652 -0.06398026
v -0.01392170 -0.02776754 -0.06277401
v -0.01401325 -0.02735906 -0.06327874
v -0.01123467 -0.03002780 -0.06063240
v -0.00717828 -0.03154015 -0.05996583
v 0.01093270 -0.03373984 0.03372381
v 0.02028115 -0.02691982 0.04435655
v 0.02032627 -0.02684240 0.04435451
v -0.01533544 -0.03257023 0.03837607
v 0.00204131 -0.03106523 -0.06283469
v -0.00114704 -0.03187146 -0.06119301
v 0.00007636 -0.03201928 -0.06102288
v -0.00578633 -0.03444221 0.03369794
v 0.01883966 -0.02871046 0.04435314
v 0.01566246 -0.03124921 0.04217842
v 0.01387749 -0.03220150 0.04204734
v 0.01529094 -0.03095558 0.04421479
v 0.01684485 -0.03017734 0.04424702
v 0.01552983 -0.03034014 0.04612242
v 0.01175079 -0.03267611 0.04385097
v 0.01699547 -0.02718472 0.05004404
v 0.01602683 -0.02822160 0.05002506
v 0.01566150 -0.02745913 0.05117503
v 0.01439876 -0.02778197 0.05180031
v 0.01378461 -0.02834165 0.05177848
v 0.01435692 -0.02952704 0.04994400
v 0.01251812 -0.03031406 0.04978951
v 0.01296959 -0.03112855 0.04790250
v 0.00924537 -0.03255954 0.04757326
v 0.00725965 -0.03289564 0.04735490
v 0.00723336 -0.03285137 0.04747629
v 0.01538834 -0.02683308 0.05183077
v 0.00713393 -0.03290311 0.04733969
v -0.01562418 -0.03225523 0.04033383
v -0.02172250 -0.03001590 0.02920515
v 0.00553598 -0.03346482 0.04516717
v 0.00201192 -0.03267170 -0.05665976
v 0.00641192 -0.03217244 -0.06020330
v 0.00849643 -0.03213956 -0.05994199
v 0.01037119 -0.03052464 -0.06319359
v 0.00519503 -0.03298958 0.04710224
v -0.02001119 -0.02542640 -0.06220792
v 0.01959407 -0.02573753 0.04820278
v 0.00990365 -0.03202819 -0.05774853
v -0.01432201 -0.03208792 0.04250835
v -0.02331843 -0.02874707 0.02684933
v -0.01629878 -0.03318815 0.02818576
v -0.01457556 -0.03273975 0.03848953
v 0.00678970 -0.03202444 0.04923387
v 0.00874304 -0.03158896 0.04943816
v 0.00726601 -0.03477618 0.03133629
v -0.00744726 -0.02801175 -0.06440581
v 0.00700549 -0.03480155 0.03423179
v -0.01871015 -0.02854105 0.04767363
v 0.00796874 -0.03464811 0.02330863
v -0.02189667 -0.02773421 0.04571485
v -0.01450509 -0.03243292 0.04049370
v -0.01706762 -0.03254205 0.03410136
v 0.02014207 -0.02673843 0.04595709
v -0.00991299 -0.03406673 0.03111047
v 0.00640270 -0.03484863 0.03528596
v 0.00747872 -0.03465471 0.01919509
v 0.00584210 -0.03383316 0.04321697
v 0.00605598 -0.03383438 0.04324424
v 0.00823578 -0.03417798 0.04152940
v -0.01059377 -0.03404868 0.03507423
v -0.00579165 -0.03423072 0.03772806
v -0.01373804 -0.03218476 0.04259219
v 0.00306921 -0.03289563 0.04682297
v 0.01254969 -0.03299049 0.01359390
v -0.01771311 -0.03170814 0.03800500
v -0.01691017 -0.03285308 0.02807455
v -0.01765444 -0.03225654 0.03399824
v 0.01854182 -0.02836752 0.04630694
v 0.01225474 -0.03308041 0.03990349
v 0.01651761 -0.02915675 0.04815515
v 0.01494679 -0.03042425 0.04686969
v -0.01683799 -0.03083237 -0.04302898
v -0.01859741 -0.03009360 -0.05345640
v -0.02028248 -0.02912322 -0.05781963
v 0.00219580 -0.03102130 -0.06287993
v -0.02146922 -0.03021299 0.02723107
v -0.01837902 -0.02696588 -0.06184635
v 0.01133210 -0.02002568 -0.06620406
v 0.00475874 -0.01309373 -0.06637843
v -0.00212929 -0.00531602 -0.06625166
v 0.01576758 -0.02699770 -0.06569049
v -0.02022739 -0.00879061 -0.06413848
v -0.02015077 -0.02150877 -0.06419763
v -0.01908738 -0.02121073 -0.06453942
v -0.01817603 -0.02093863 -0.06471462
v -0.01954862 -0.02338401 -0.06383723
v -0.02220133 -0.02201901 -0.06308328
v -0.02283641 -0.02011775 -0.06318413
v -0.02293392 -0.02013890 -0.06310918
v -0.02170439 -0.02361638 -0.06260437
v -0.01856693 -0.02312705 -0.06428118
v -0.01746143 -0.02484506 -0.06396856
v -0.02246429 -0.02207244 -0.06285566
v -0.01857494 -0.02679082 -0.06188878
v -0.01641158 -0.02653118 -0.06330282
v -0.02156909 -0.02386173 -0.06256259
v -0.01660503 -0.02583495 -0.06376058
v -0.02519898 -0.01643826 -0.06174181
v -0.02528660 -0.01437523 -0.06195982
v 0.00988243 0.01556272 -0.06635296
v 0.00856592 0.01940185 -0.06618966
v 0.00788441 0.02133978 -0.06592481
v 0.01044284 0.02004926 -0.06593608
v 0.00976699 0.02198273 -0.06571581
v 0.01229052 0.02071978 -0.06545217
v 0.01413628 0.02139181 -0.06495313
v -0.00011827 -0.02376098 -0.06623772
v 0.00046086 -0.02561804 -0.06569607
v 0.00179595 -0.02314303 -0.06627800
v 0.00370961 -0.02252464 -0.06631384
v -0.00074830 -0.02186371 -0.06637843
v 0.00991079 -0.02876138 -0.06467057
v -0.00733488 -0.02798013 -0.06444105
v -0.00164170 0.01821450 -0.06607785
v 0.00155636 0.02131706 -0.06618375
v 0.00154194 0.02135933 -0.06618272
v -0.01932666 0.01694324 -0.06434399
v -0.01891456 0.01869735 -0.06446758
v -0.01839557 0.01720768 -0.06461870
v -0.01447020 0.01836701 -0.06546281
v -0.00632187 0.02537982 -0.06466372
v -0.00706978 0.02737021 -0.06387580
v -0.00709655 0.02744054 -0.06384422
v -0.00897744 0.02678267 -0.06401700
v -0.01576186 0.01585769 -0.06522300
v -0.01586908 0.02227120 -0.06465058
v -0.02178504 0.02055427 -0.06316450
v -0.02187845 0.02079238 -0.06302791
v -0.02213754 0.02045885 -0.06302735
v -0.02314187 0.01809645 -0.06241131
v -0.02333114 0.02242994 -0.06135052
v -0.02260483 0.02260145 -0.06181030
v -0.01907363 0.01914290 -0.06438096
v 0.00597669 -0.02991381 -0.06375767
v -0.01236502 -0.02546760 -0.06510167
v -0.01434861 -0.02603074 -0.06451485
v 0.00008169 0.02531202 -0.06488705
v 0.00645430 0.02526866 -0.06486659
v 0.00832308 0.02592250 -0.06454889
v 0.00906676 0.02393546 -0.06530345
v 0.01092748 0.02459567 -0.06492229
v 0.01017894 0.02658656 -0.06412941
v 0.01276153 0.02527696 -0.06433098
v 0.01201522 0.02726608 -0.06355567
v 0.01453637 0.02600501 -0.06327329
v 0.01522132 0.02406436 -0.06356519
v 0.01623480 0.02452891 -0.06261659
v 0.01351771 0.02332497 -0.06486676
v 0.00986178 0.02740843 -0.06371433
v 0.01427779 0.02671605 -0.06308434
v 0.01242882 0.02742429 -0.06339007
v -0.00066218 0.02729922 -0.06413090
v -0.00136074 0.02912822 -0.06328537
v 0.01346360 0.02335537 -0.06487667
v 0.01620886 0.02681393 -0.06140925
v 0.01481761 0.02167286 -0.06453607
v -0.01942196 0.02574688 -0.06190917
v -0.01808217 0.02786195 -0.06122897
v -0.01549888 0.02690802 -0.06273527
v -0.01449182 0.02964217 -0.06073307
v -0.01355989 0.02750640 -0.06297063
v -0.01976564 0.02659814 -0.06131592
v -0.02201106 0.02648790 -0.05956390
v -0.01086621 0.02610903 -0.06404743
v 0.01192656 0.02750186 -0.06346160
v -0.02105975 0.02766828 -0.05956151
v -0.02071010 -0.00892144 -0.06395181
v 0.01118608 0.02932065 -0.06212782
v -0.02282952 0.02314031 -0.06135809
v -0.02107414 0.01859312 -0.06366093
v 0.01186508 0.02960888 -0.06165471
v 0.01173042 0.01623299 -0.06587152
v 0.01163601 0.02263638 -0.06540005
v -0.01596348 -0.02643004 -0.06361947
v -0.01602894 0.02270232 -0.06450292
v -0.02162614 -0.02387295 -0.06251058
v -0.00253197 0.02664616 -0.06444069
v 0.00944513 -0.02066515 -0.06637843
v -0.01077288 0.02586254 -0.06415264
v 0.00924581 0.02343932 -0.06542049
v 0.01125403 0.02370636 -0.06519235
v 0.01347972 0.02331004 -0.06488482
v -0.01490024 -0.02419541 -0.06527322
v -0.01693350 -0.02471931 -0.06429512
v -0.00329727 0.02865030 -0.06351571
v -0.00331314 0.02868987 -0.06348925
v -0.02252728 0.01823402 -0.06285371
v -0.01164675 0.02812520 -0.06300238
v -0.00978118 0.02878159 -0.06265938
v -0.02490406 -0.01428568 -0.06220748
v -0.01649966 0.02995249 0.05097063
v -0.01785666 0.02749479 0.05172512
v 0.00557559 0.02681715 0.05298161
v 0.00807307 0.02557478 0.05345049
v 0.00719279 0.02906928 0.05017727
v 0.00972541 0.02779915 0.05036927
v 0.01158756 0.02443230 0.05228525
v 0.01066251 0.02425977 0.05319494
v 0.01235043 0.01326626 0.06160586
v 0.01285628 0.02465686 0.05095236
v 0.01445755 0.01550735 0.05759659
v 0.00142670 0.02602609 0.05488762
v 0.01149191 0.01307711 0.06224519
v 0.00986228 0.01270581 0.06337222
v 0.01124492 0.01108174 0.06371060
v 0.01188748 0.00920681 0.06398019
v 0.01323842 0.00749873 0.06379832
v 0.01119734 0.00698101 0.06483804
v 0.01386511 0.00560411 0.06396538
v 0.01591983 0.00611106 0.06281825
v 0.01528119 0.00801513 0.06274538
v 0.01451447 0.00369157 0.06395375
v 0.01058401 0.00886508 0.06456577
v 0.01359048 0.01159386 0.06193098
v 0.00997811 0.01074329 0.06423499
v 0.00635197 0.01562588 0.06263379
v 0.00837941 0.01429590 0.06302453
v 0.00685056 0.01388295 0.06362572
v 0.00919158 0.00643538 0.06559939
v 0.00981268 0.00454517 0.06581048
v 0.00850076 0.00415631 0.06608277
v 0.00785191 0.00396399 0.06621743
v 0.00592237 0.00335815 0.06637843
v -0.00105518 0.00527895 0.06601954
v -0.00166888 0.00716332 0.06575020
v 0.00022090 0.00780058 0.06590250
v -0.00225172 0.00902330 0.06523774
v -0.00411632 0.00836615 0.06488713
v -0.00280167 0.01085730 0.06446619
v -0.00895910 0.00440185 0.06302281
v -0.00839119 0.00255366 0.06365287
v -0.01014792 0.00181129 0.06245246
v -0.00779633 0.00068418 0.06407061
v -0.00954020 -0.00006835 0.06276889
v -0.00959506 -0.00226048 0.06240320
v -0.00668397 -0.00545919 0.06309351
v -0.00647689 -0.00315727 0.06388419
v -0.00756795 -0.00582506 0.06254371
v -0.00579625 -0.00509452 0.06362619
v -0.00399088 -0.00439057 0.06444342
v -0.00330429 -0.00633252 0.06413856
v -0.00258921 -0.00829698 0.06360922
v -0.00097157 -0.00111592 0.06563314
v -0.00348307 0.00013753 0.06527470
v -0.00412152 0.00204145 0.06520038
v -0.00597383 0.00137459 0.06475294
v -0.00659984 0.00326868 0.06458055
v -0.00475914 0.00394471 0.06511946
v -0.00537200 0.00582842 0.06484353
v -0.00890847 -0.00196696 0.06289620
v -0.00693173 0.00101798 0.06443852
v -0.00757277 0.00498615 0.06395920
v -0.01761765 0.01324881 0.05549073
v -0.01862543 0.02317286 0.05294972
v -0.01768409 0.00697248 0.05628637
v -0.01475892 -0.00233611 0.05876219
v -0.01413172 -0.00423114 0.05892520
v -0.00696213 0.00728587 0.06380609
v 0.00273275 0.00654685 0.06625810
v -0.00038320 0.00967735 0.06555748
v 0.00790384 -0.00240584 0.06608061
v 0.00861838 -0.00436988 0.06555554
v 0.00983312 -0.00179980 0.06592167
v 0.00481899 -0.00562873 0.06540722
v 0.00182984 -0.00892721 0.06397998
v 0.00257176 -0.01091287 0.06323919
v 0.00071257 -0.01157429 0.06284598
v 0.00282585 -0.01156592 0.06288707
v 0.00084668 -0.01192213 0.06267156
v 0.00151107 -0.01360466 0.06165947
v 0.00336262 -0.01293720 0.06211291
v -0.00112269 -0.01225462 0.06226421
v 0.00522364 -0.01227722 0.06249175
v 0.00708513 -0.01161762 0.06286689
v 0.00900110 -0.01100106 0.06281278
v -0.00619456 -0.00970912 0.06193232
v -0.00688951 -0.00776057 0.06230304
v -0.02075221 -0.02017932 0.05146634
v -0.02007407 -0.02211461 0.05122799
v -0.02063985 -0.02235107 0.05085993
v -0.02177457 -0.02064296 0.05054460
v -0.02137904 -0.01828459 0.05130045
v -0.01971732 -0.02311937 0.05105409
v -0.02182342 -0.02286281 0.04996946
v -0.01938212 -0.02406080 0.05088088
v -0.02113284 -0.02480791 0.04963317
v -0.01866849 -0.02602411 0.05036301
v -0.01688986 -0.02529904 0.05139088
v -0.01610636 -0.02731754 0.05032253
v -0.01673393 -0.02758824 0.04985494
v -0.01821827 -0.02714927 0.04962250
v -0.01707043 -0.02481268 0.05155989
v -0.02184615 -0.02513564 0.04896005
v -0.01981127 -0.02653862 0.04935905
v -0.01591299 -0.02779402 0.04997979
v -0.01079069 -0.03008301 0.04883355
v -0.01253726 -0.03080604 0.04745334
v -0.01292000 -0.02997836 0.04855277
v -0.01348307 -0.02865931 0.04980029
v 0.00721519 -0.02804192 0.05294051
v -0.02199347 -0.01639965 0.05103678
v 0.00795066 -0.02988830 0.05176117
v 0.00610514 -0.03056053 0.05126023
v 0.00619747 -0.03077793 0.05105969
v 0.00815640 -0.03035961 0.05126641
v -0.01453875 -0.03086957 0.04641066
v -0.00038697 -0.01197860 0.06252063
v 0.00630505 -0.00960180 0.06390825
v 0.00659456 0.00775638 0.06591469
v 0.00463131 0.00717717 0.06634120
v 0.00401134 0.00906649 0.06612128
v 0.01598102 0.00612597 0.06278277
v 0.01047189 0.00262485 0.06572126
v 0.01113477 0.00070163 0.06560320
v 0.00435822 0.01512126 0.06311636
v 0.00487264 0.01331533 0.06416782
v 0.00540025 0.01149898 0.06511537
v 0.00291178 0.01273423 0.06457553
v 0.01516466 0.00177837 0.06393560
v 0.01316089 0.00115777 0.06494902
v 0.01455429 -0.00266870 0.06391231
v 0.01519135 -0.00251263 0.06354884
v 0.01482574 -0.00338099 0.06358951
v 0.01661125 -0.00440702 0.06189305
v 0.01533948 -0.00468855 0.06283075
v 0.01255241 -0.00321740 0.06464315
v 0.01209666 -0.00778663 0.06340175
v 0.01193973 -0.00738477 0.06362467
v 0.01014483 -0.00837487 0.06373831
v -0.00737427 -0.02827851 0.05111227
v 0.00211256 0.00843635 0.06603993
v 0.00908578 -0.02735244 0.05310881
v 0.01679825 -0.02472962 0.05179880
v 0.01686013 -0.02487632 0.05166803
v 0.01668523 -0.02491419 0.05180296
v 0.00345373 0.01090655 0.06541008
v 0.00915738 0.00013358 0.06614108
v -0.01686441 0.02391183 0.05411630
v 0.01407954 -0.00722292 0.06282063
v 0.01538798 -0.00691439 0.06198922
v -0.01238225 -0.02820590 0.05046928
v -0.00186146 -0.01027146 0.06298013
v -0.01879893 0.01065229 0.05486098
v -0.01781978 -0.02809412 0.04878098
v -0.01743127 -0.02899363 0.04788136
v -0.02068782 -0.02600032 0.04919380
v 0.01364645 -0.02799743 0.05200959
v 0.00901811 -0.03213113 0.04845599
v 0.01113917 -0.03194133 0.04775166
v 0.01616460 -0.00673993 0.06143454
v -0.02008570 0.00845256 0.05391920
v -0.01169979 -0.02793791 0.05079155
v -0.01371835 -0.02809920 0.05028898
v -0.00747832 0.00292543 0.06417785
v -0.02160981 -0.02743121 0.04719426
v -0.02278572 -0.02563232 0.04761462
v -0.00537233 -0.00040720 0.06477939
v 0.00796773 0.01020131 0.06503278
v 0.00278454 0.00017712 0.06612239
v 0.00152801 0.01029768 0.06554098
v -0.00093608 0.01151367 0.06480902
v 0.00097960 0.01213047 0.06475726
v -0.00353122 0.00650439 0.06538182
v -0.00594592 0.00768136 0.06426081
v -0.00719544 0.00513875 0.06416863
v -0.00741979 0.00587722 0.06388926
v -0.01738835 0.02572529 0.05313987
v -0.01177006 -0.00537340 0.06041328
v -0.01175826 -0.00538790 0.06041623
v -0.01706153 -0.00124769 0.05675818
v 0.00625783 0.01566949 0.06261747
v 0.00739792 0.01205100 0.06441768
v 0.01312373 0.00126053 0.06497415
v 0.01319115 0.00127778 0.06494082
v 0.01247265 0.00317443 0.06499924
v -0.00002818 -0.00958956 0.06357751
v -0.00441016 -0.00898861 0.06291479
v -0.00511232 -0.00703436 0.06334233
v -0.00483221 -0.00692424 0.06347549
v 0.00038761 -0.00498876 0.06513364
v -0.00147062 -0.00565094 0.06473284
v 0.00110047 -0.00695146 0.06462182
v -0.00368130 -0.01096397 0.06227689
v -0.00125122 -0.01191388 0.06240443
v -0.00348941 -0.01147506 0.06207631
v -0.00029614 -0.00304905 0.06541620
v -0.00215840 -0.00370805 0.06504710
v 0.00344796 -0.00174652 0.06600005
v 0.00212850 0.00209494 0.06618663
v -0.00041152 0.00337092 0.06605289
v -0.00532928 -0.00053415 0.06477919
v -0.00713755 -0.00123580 0.06398484
v 0.00821856 -0.00898329 0.06387354
v 0.01132553 -0.00577790 0.06437267
v -0.01000200 -0.00463280 0.06157516
v -0.01176417 -0.00537087 0.06041763
v -0.01884016 -0.02383377 0.05123707
v -0.01431168 -0.02660516 0.05122398
v 0.01751155 -0.00647752 0.06018897
v -0.02429537 0.02341093 0.03770276
v -0.02417885 0.02192358 0.04191869
v -0.02402594 0.02378520 0.03972541
v -0.02478711 0.01515626 0.04049413
v -0.02359077 0.01222514 0.04701794
v -0.02279918 0.00859094 0.04950887
v -0.02287948 0.00647099 0.04971127
v -0.02208045 0.00898433 0.05063304
v -0.02157006 0.00718157 0.05171621
v -0.02282097 0.00512861 0.04985332
v -0.02263558 0.00449360 0.05017449
v -0.02148207 0.00687878 0.05187376
v -0.02429581 0.01379595 0.04474491
v -0.02144385 0.00514783 0.05205220
v -0.02104054 0.00536371 0.05264868
v -0.01939965 0.00619760 0.05476170
v -0.01996251 0.00804179 0.05409179
v -0.01643392 0.03367438 -0.00892661
v -0.02048253 0.00985215 0.05308450
v -0.02000873 0.01010269 0.05376348
v -0.02733432 -0.00177624 -0.04322321
v -0.02320754 -0.01485049 0.04978181
v -0.02149419 -0.01186480 0.05193527
v -0.02126561 -0.01390930 0.05195993
v -0.02441466 -0.01456128 0.04757358
v -0.02594637 -0.01091537 0.03890952
v -0.02570605 -0.01473643 0.04134922
v -0.02578790 -0.01486334 0.04064148
v -0.02363804 -0.01723062 0.04895286
v -0.02351334 -0.02151529 0.04838536
v -0.02305313 -0.01909225 0.04944899
v -0.02407397 -0.02181551 0.04755531
v -0.02291657 -0.02340575 0.04865069
v -0.02347041 -0.02369187 0.04790454
v -0.02423437 -0.02413538 0.04653058
v -0.02326344 -0.02589900 0.04683069
v -0.02364760 -0.02631216 0.04479736
v -0.02457682 -0.02453440 0.04450113
v -0.02369487 -0.02689407 0.04079771
v -0.02497159 -0.02257547 0.04425457
v -0.02505567 -0.02288691 0.04224914
v -0.02211545 -0.02845143 0.04115438
v -0.02520032 -0.02056028 0.04402344
v -0.02566931 -0.01919239 0.03977473
v -0.02582456 -0.01715228 0.03955044
v -0.02643083 -0.01639683 0.03129371
v -0.02475110 -0.02221778 0.04627269
v -0.02635056 -0.01608668 0.03329880
v -0.02399538 -0.02642518 0.04071255
v -0.02595202 -0.01985411 0.03575320
v -0.02592552 -0.01509377 0.03933119
v -0.02524316 -0.02379929 0.03623882
v -0.02530765 -0.02495292 0.02824233
v -0.02459919 -0.02680553 0.02851805
v -0.02453861 -0.02706793 0.02652605
v -0.02631961 -0.01845186 0.03151392
v -0.02451317 -0.02712849 0.02604002
v -0.02440893 -0.02730692 0.02454047
v -0.02423186 -0.02752985 0.02255930
v -0.02516648 -0.02575391 0.02226256
v -0.02368366 0.00382272 0.04784877
v -0.02714863 0.01683836 -0.04709237
v -0.02655254 0.02626016 -0.04188355
v -0.02597144 0.02707152 -0.04189115
v -0.02477544 0.02868907 -0.03784953
v -0.02607330 0.02698850 -0.03784374
v -0.02702215 0.02400825 -0.04171733
v -0.02443003 0.02737471 -0.05388189
v -0.02261695 0.02777637 -0.05774402
v -0.02295503 0.02730879 -0.05774005
v -0.02404221 0.02572001 -0.05771872
v -0.02454410 0.02467741 -0.05767788
v -0.02050008 0.02828114 -0.05955193
v -0.02449897 0.02655072 -0.05583401
v -0.02661388 -0.01425924 -0.05808792
v -0.02620716 -0.01440433 -0.06004776
v -0.02630066 -0.01652875 -0.05984658
v -0.02712234 -0.01833412 -0.05571782
v -0.02691424 -0.02035631 -0.05548862
v -0.02664189 -0.02235673 -0.05525344
v -0.02508911 -0.02601586 -0.05468938
v -0.02622987 -0.02250001 -0.05721277
v -0.02613290 -0.02427693 -0.05499626
v -0.02513595 -0.02043129 -0.06010843
v -0.02387204 -0.02422887 -0.05985739
v -0.02395449 -0.02229462 -0.06099654
v -0.02673773 -0.01848146 0.01728180
v -0.02670592 -0.01818773 0.01928239
v -0.02682418 -0.01404235 0.01885166
v -0.02674553 -0.01135707 0.02264436
v -0.02676932 -0.00927240 0.02243228
v -0.02691012 -0.01463737 0.01484842
v -0.02665012 -0.00141607 0.02368557
v -0.02665697 -0.00448297 0.02601826
v -0.02661883 -0.00056751 0.02360444
v -0.02655643 -0.00026342 0.02560787
v -0.02623852 -0.00349230 0.03205002
v -0.02527543 0.02307423 -0.05760994
v -0.02453323 0.02230542 -0.05946463
v -0.02488333 0.02227128 -0.05890034
v -0.02410472 0.02062337 -0.06126755
v -0.02518921 0.01999033 -0.05931573
v -0.02430305 0.02000776 -0.06123099
v -0.02387499 0.02007515 -0.06173987
v -0.02556633 0.02223818 -0.05756302
v -0.02729274 0.02182379 -0.04153262
v -0.02466783 0.02793479 -0.01344823
v -0.02187761 0.02148170 0.04849055
v -0.02067041 0.02215186 0.05044516
v -0.02028529 0.02235395 0.05098613
v -0.01892182 0.02302751 0.05260531
v -0.01910912 0.02495451 0.05165619
v -0.02197780 0.02142576 0.04832602
v -0.02294517 0.02081491 0.04623848
v -0.02262846 0.02301500 0.04605805
v -0.02184337 0.02537385 0.04592116
v -0.02124112 0.02657471 0.04587718
v -0.01997357 0.02968640 0.04370003
v -0.01836859 0.03004863 0.04791944
v -0.01935159 0.02859415 0.04794052
v -0.01821911 0.02918067 0.04947651
v -0.01658608 0.03043719 0.05013274
v -0.01951989 0.02667856 0.04978818
v -0.02144936 0.02835637 0.04162007
v -0.02125989 0.02891733 0.03753588
v -0.01968060 0.03097043 0.03550445
v -0.02361017 0.02239929 0.04396918
v -0.02280478 0.02476502 0.04383417
v -0.02210195 0.00267250 0.05107465
v -0.02399392 0.02382247 0.03991491
v -0.02303864 0.02621260 0.03960731
v -0.02392558 0.02309481 0.04183339
v -0.02581906 -0.01849209 -0.05983092
v -0.02447658 -0.02037886 -0.06125493
v -0.02477988 0.02684168 -0.05387284
v -0.02558543 0.02460738 -0.05577704
v -0.02419461 -0.01539139 0.04823342
v -0.02471421 -0.02617172 -0.05665216
v -0.02629671 0.02255649 -0.05363566
v -0.02246234 -0.02095851 0.04989877
v -0.02402150 0.02453172 0.03762512
v -0.02308326 -0.02771162 -0.05629070
v -0.02020188 0.02440341 0.05027884
v -0.01935592 0.01249186 0.05414489
v -0.02488076 -0.01842313 -0.06150237
v -0.02360802 0.02420980 0.04176188
v -0.01994043 0.03015591 0.04163115
v -0.02703507 0.02390521 -0.04170864
v -0.02577629 -0.02443900 -0.05696074
v -0.02073671 0.02411012 0.04943840
v -0.02600979 0.02237080 -0.05560661
v -0.02732092 0.02153130 -0.04353286
v -0.02291392 -0.01684369 0.05001897
v -0.02259786 -0.01452263 0.05069412
v -0.02063777 0.02606544 0.04803084
v -0.02574270 -0.02335808 0.02551811
v -0.01489482 0.03167709 0.05022309
v -0.02465469 -0.02434176 -0.05885413
v -0.02483845 -0.02015467 0.04605471
v -0.02561678 -0.01679891 0.04156739
v -0.02332376 -0.02621941 -0.05849689
v -0.02476612 0.01335359 0.04270357
v -0.02437206 0.01167737 0.04494769
v -0.02282816 0.02615744 0.04166556
v -0.02282775 0.02643093 0.04066373
v -0.02259006 0.02664759 0.04164663
v -0.02280259 0.02665020 0.03959339
v -0.02254419 0.02757083 0.03345587
v -0.02364211 0.02544215 0.03555597
v -0.02682717 -0.00538949 0.02000955
v -0.02668576 -0.00268293 0.02380809
v -0.02573791 -0.02328899 0.02599485
v -0.02574162 -0.02357319 0.02399687
v -0.02638691 -0.00382554 0.03003860
v -0.02483487 0.00914481 0.04311691
v -0.02257423 0.01285266 0.04911005
v -0.01975302 0.02786693 0.04796249
v -0.02532175 -0.01223049 0.04317269
v -0.02441179 -0.01554163 0.04767226
v -0.02601332 -0.02015783 0.03374988
v -0.02472508 -0.02515054 0.04049209
v -0.02426174 0.02897334 -0.02160483
v -0.02733432 0.01705836 -0.04511200
v -0.02577660 0.02404125 -0.05574453
v -0.02599417 0.02413779 -0.05375583
v -0.02561901 0.01565919 -0.05893595
v -0.02475482 0.01566917 -0.06085325
v -0.02697737 0.02430637 -0.03971553
f 251 244 202
f 202 260 259
f 8 251 202
f 7 251 8
f 287 284 286
f 141 179 180
f 836 833 835
f 202 258 216
f 202 244 243
f 244 251 246
f 759 946 864
f 286 284 252
f 252 201 286
f 203 8 202
f 284 287 203
f 203 252 284
f 201 252 203
f 367 368 286
f 286 201 367
f 201 203 367
f 265 274 263
f 743 744 631
f 64 66 65
f 65 69 64
f 64 69 51
f 160 122 116
f 172 116 180
f 51 69 72
f 50 49 72
f 72 49 51
f 180 116 153
f 179 141 139
f 143 156 125
f 24 30 18
f 18 30 23
f 834 835 833
f 836 835 840
f 840 837 836
f 838 837 840
f 223 213 227
f 226 224 223
f 227 213 214
f 225 224 260
f 241 224 225
f 225 260 202
f 202 241 225
f 202 243 205
f 205 258 202
f 253 251 7
f 7 276 253
f 253 246 251
f 275 246 253
f 253 276 275
f 7 515 254
f 254 276 7
f 275 276 506
f 276 254 506
f 506 254 515
f 631 744 647
f 757 631 647
f 346 345 297
f 941 820 836
f 941 836 779
f 885 890 760
f 885 760 771
f 771 760 920
f 283 287 286
f 285 203 287
f 7 8 285
f 8 203 285
f 2 367 360
f 360 367 203
f 378 664 380
f 698 378 377
f 377 385 698
f 396 374 2
f 266 265 263
f 266 396 265
f 4 374 266
f 374 396 266
f 1 396 2
f 265 396 1
f 274 265 240
f 240 224 226
f 708 380 707
f 661 664 378
f 226 227 234
f 582 669 618
f 662 631 689
f 711 631 757
f 757 712 711
f 711 712 700
f 711 689 631
f 711 700 662
f 662 689 711
f 657 312 655
f 655 700 657
f 313 312 656
f 656 312 657
f 402 312 394
f 308 312 313
f 686 378 698
f 686 634 378
f 378 634 706
f 706 634 633
f 706 661 378
f 666 631 662
f 666 743 631
f 749 603 602
f 40 49 50
f 62 64 51
f 92 96 85
f 116 172 183
f 116 122 108
f 71 72 69
f 69 105 71
f 91 96 50
f 131 161 143
f 113 153 116
f 510 524 199
f 179 524 508
f 508 524 501
f 206 243 244
f 244 245 206
f 206 205 243
f 140 125 156
f 140 156 905
f 176 156 143
f 176 940 156
f 143 161 176
f 156 940 884
f 28 24 45
f 204 721 677
f 86 84 85
f 85 140 86
f 86 140 138
f 48 101 81
f 236 238 222
f 904 890 885
f 138 140 877
f 156 884 883
f 883 940 926
f 883 884 940
f 835 834 458
f 838 840 907
f 907 892 916
f 840 892 907
f 344 345 346
f 346 900 344
f 916 892 844
f 891 840 835
f 944 834 833
f 229 228 227
f 230 228 229
f 272 227 226
f 226 223 272
f 272 223 227
f 217 216 258
f 217 224 241
f 217 223 224
f 217 241 202
f 202 216 217
f 581 669 582
f 582 696 581
f 437 14 7
f 437 537 14
f 438 537 470
f 269 277 199
f 199 169 269
f 247 246 275
f 244 246 247
f 247 245 244
f 248 245 247
f 247 250 248
f 514 506 277
f 277 269 514
f 514 269 250
f 250 247 514
f 275 506 514
f 514 247 275
f 505 506 515
f 277 506 505
f 910 941 779
f 759 864 854
f 779 836 850
f 850 910 779
f 346 297 295
f 347 900 346
f 829 828 490
f 921 771 920
f 921 763 771
f 765 763 921
f 805 895 937
f 281 282 7
f 7 285 281
f 287 283 281
f 281 285 287
f 281 283 286
f 361 203 202
f 361 360 203
f 202 259 361
f 361 259 260
f 260 1 361
f 368 367 371
f 371 369 368
f 372 371 429
f 2 374 429
f 429 374 375
f 375 374 376
f 385 377 376
f 4 385 376
f 376 374 4
f 378 375 376
f 376 377 378
f 255 266 263
f 266 255 758
f 273 240 226
f 274 240 273
f 226 234 273
f 273 234 274
f 264 240 265
f 264 1 260
f 265 1 264
f 260 224 264
f 224 240 264
f 4 709 692
f 709 694 692
f 708 707 382
f 418 373 382
f 382 373 708
f 707 402 382
f 403 380 664
f 403 707 380
f 664 402 403
f 403 402 707
f 659 661 633
f 662 661 659
f 428 373 418
f 428 369 373
f 263 274 242
f 274 234 242
f 582 618 748
f 748 618 749
f 657 700 658
f 700 712 658
f 757 647 648
f 648 712 757
f 663 402 664
f 663 661 662
f 664 661 663
f 662 700 663
f 312 402 663
f 700 655 663
f 663 655 312
f 394 312 422
f 312 308 422
f 422 389 394
f 422 308 389
f 389 308 309
f 633 661 691
f 691 706 633
f 661 706 691
f 633 634 752
f 146 269 169
f 50 96 46
f 96 92 46
f 39 40 45
f 179 139 177
f 177 168 179
f 177 139 135
f 135 129 177
f 177 129 168
f 199 524 527
f 527 169 199
f 527 524 179
f 179 168 527
f 104 108 122
f 72 108 104
f 122 131 104
f 82 108 72
f 72 71 82
f 116 108 82
f 82 113 116
f 96 91 136
f 121 136 91
f 121 104 131
f 186 161 158
f 161 131 158
f 65 66 74
f 74 69 65
f 137 139 141
f 137 76 139
f 461 475 463
f 511 498 497
f 497 498 499
f 499 475 496
f 496 497 499
f 470 479 439
f 460 475 461
f 461 463 460
f 460 463 462
f 440 437 7
f 537 437 440
f 7 282 440
f 282 363 393
f 393 440 282
f 471 440 393
f 542 479 470
f 472 440 471
f 467 440 472
f 207 245 218
f 207 206 245
f 218 205 207
f 205 206 207
f 271 149 101
f 248 249 210
f 210 245 248
f 125 140 124
f 143 125 124
f 85 96 124
f 124 140 85
f 30 24 27
f 24 28 27
f 27 28 45
f 45 46 27
f 27 46 30
f 726 697 204
f 204 551 726
f 613 697 726
f 730 204 674
f 204 677 674
f 204 587 588
f 915 138 204
f 204 86 915
f 915 86 138
f 84 86 22
f 22 37 84
f 204 23 22
f 43 31 23
f 42 31 43
f 554 553 173
f 189 164 165
f 19 24 18
f 18 23 19
f 23 31 19
f 130 238 237
f 237 236 130
f 238 236 237
f 890 904 888
f 876 140 905
f 876 877 140
f 550 551 204
f 769 772 765
f 934 866 871
f 871 763 934
f 926 940 865
f 865 925 926
f 823 161 186
f 186 822 823
f 940 176 823
f 823 176 161
f 490 828 522
f 827 188 182
f 827 828 188
f 827 522 828
f 457 458 448
f 835 458 457
f 839 907 896
f 896 347 839
f 900 347 896
f 896 343 900
f 896 907 916
f 841 907 839
f 838 907 841
f 900 343 433
f 919 896 916
f 343 896 919
f 916 844 843
f 843 919 916
f 343 919 843
f 842 892 840
f 840 891 842
f 488 862 490
f 490 491 488
f 488 486 529
f 529 549 488
f 484 478 479
f 860 944 863
f 219 217 258
f 213 223 219
f 258 235 219
f 219 214 213
f 221 236 222
f 221 235 236
f 214 219 221
f 221 219 235
f 696 579 580
f 580 581 696
f 580 579 669
f 669 581 580
f 7 14 531
f 248 250 166
f 250 269 166
f 912 775 773
f 773 772 912
f 646 648 647
f 387 317 319
f 652 715 325
f 839 347 399
f 407 316 665
f 920 854 855
f 759 854 762
f 762 854 920
f 762 760 759
f 920 760 762
f 186 188 826
f 826 822 186
f 821 822 826
f 826 893 821
f 188 828 832
f 828 829 832
f 832 826 188
f 893 826 832
f 872 871 885
f 872 763 871
f 885 771 872
f 771 763 872
f 783 921 933
f 933 921 920
f 765 921 819
f 819 921 783
f 783 937 819
f 895 765 819
f 819 937 895
f 936 937 783
f 783 933 936
f 936 933 785
f 365 363 282
f 412 1 2
f 412 361 1
f 2 360 412
f 360 361 412
f 370 371 372
f 369 371 370
f 427 367 2
f 2 429 427
f 427 371 367
f 427 429 371
f 379 375 378
f 379 429 375
f 378 380 379
f 379 380 708
f 381 379 708
f 429 379 381
f 708 373 381
f 373 369 381
f 381 370 372
f 369 370 381
f 282 281 332
f 4 266 3
f 266 758 3
f 3 709 4
f 3 758 709
f 4 692 693
f 693 692 694
f 693 385 4
f 693 694 385
f 384 402 394
f 384 382 402
f 662 659 629
f 629 666 662
f 628 666 629
f 629 630 628
f 659 630 629
f 709 758 683
f 672 579 696
f 749 602 718
f 718 748 749
f 582 748 718
f 648 646 649
f 418 389 417
f 389 416 417
f 420 416 389
f 420 309 311
f 389 309 420
f 311 310 420
f 401 419 387
f 387 362 401
f 311 309 307
f 307 309 308
f 315 308 313
f 315 329 308
f 665 316 315
f 387 329 315
f 398 329 387
f 633 752 667
f 667 625 633
f 623 625 667
f 582 718 620
f 620 696 582
f 687 686 698
f 621 667 752
f 623 667 621
f 621 620 623
f 604 605 603
f 750 596 599
f 169 527 530
f 530 527 168
f 76 74 77
f 77 129 135
f 135 139 77
f 139 76 77
f 145 146 169
f 169 530 145
f 168 129 145
f 145 530 168
f 66 67 68
f 68 78 66
f 81 101 63
f 41 40 50
f 50 46 41
f 45 40 41
f 41 46 45
f 30 46 29
f 29 46 92
f 15 39 45
f 66 64 60
f 64 62 60
f 51 49 60
f 60 62 51
f 36 37 30
f 30 29 36
f 36 29 92
f 84 37 83
f 85 84 83
f 83 92 85
f 83 36 92
f 37 36 83
f 89 91 50
f 50 72 89
f 72 104 89
f 89 121 91
f 104 121 89
f 142 131 143
f 143 124 142
f 159 188 186
f 186 158 159
f 182 188 159
f 159 160 182
f 122 160 159
f 159 131 122
f 159 158 131
f 69 74 73
f 73 74 76
f 105 137 112
f 112 71 105
f 112 137 141
f 112 82 71
f 113 82 112
f 112 148 113
f 153 113 152
f 113 148 152
f 180 153 152
f 147 112 141
f 148 112 147
f 539 475 499
f 539 463 475
f 470 439 474
f 479 475 473
f 473 439 479
f 475 474 473
f 473 474 439
f 524 510 503
f 510 502 503
f 501 524 503
f 465 515 7
f 7 531 465
f 434 393 363
f 363 472 434
f 445 542 543
f 543 542 495
f 467 472 494
f 494 495 542
f 472 495 494
f 405 472 363
f 354 495 405
f 405 495 472
f 101 149 126
f 236 235 209
f 218 245 209
f 245 210 209
f 130 236 209
f 209 235 258
f 258 205 209
f 209 205 218
f 249 271 262
f 262 271 130
f 730 674 675
f 675 674 677
f 677 676 675
f 717 572 574
f 578 572 717
f 690 618 669
f 695 676 677
f 695 677 721
f 721 719 695
f 204 697 723
f 723 587 204
f 720 719 721
f 720 721 204
f 204 588 720
f 52 23 204
f 204 88 52
f 204 554 174
f 174 554 173
f 204 114 90
f 90 88 204
f 87 22 86
f 87 86 204
f 204 22 87
f 34 23 30
f 34 22 23
f 30 37 34
f 37 22 34
f 58 55 25
f 25 43 58
f 55 43 25
f 101 48 32
f 32 107 101
f 32 33 42
f 552 554 204
f 553 554 552
f 204 561 552
f 552 561 553
f 220 221 222
f 214 221 220
f 212 229 227
f 227 214 212
f 214 220 212
f 193 189 165
f 170 120 164
f 170 192 222
f 759 760 761
f 761 760 890
f 890 888 761
f 925 865 889
f 882 876 905
f 924 876 882
f 882 925 924
f 905 156 882
f 156 883 882
f 882 883 926
f 926 925 882
f 880 550 204
f 204 138 880
f 138 877 880
f 885 871 873
f 924 922 874
f 885 873 874
f 768 765 895
f 895 769 768
f 768 769 765
f 895 772 887
f 887 769 895
f 772 769 887
f 765 772 767
f 773 775 710
f 710 772 773
f 591 614 615
f 778 710 902
f 902 710 775
f 940 823 824
f 821 865 824
f 824 865 940
f 824 822 821
f 824 823 822
f 448 892 903
f 903 457 448
f 892 842 903
f 903 842 891
f 903 891 835
f 835 457 903
f 11 344 900
f 900 433 11
f 11 433 10
f 10 433 436
f 452 843 844
f 448 446 452
f 452 892 448
f 452 844 892
f 446 445 455
f 172 163 548
f 548 163 180
f 175 548 547
f 485 475 479
f 525 827 182
f 522 827 525
f 491 521 516
f 116 183 184
f 184 160 116
f 521 197 517
f 486 488 487
f 487 488 491
f 487 516 486
f 491 516 487
f 489 458 862
f 862 488 489
f 529 476 441
f 944 860 945
f 945 458 834
f 834 944 945
f 223 217 215
f 215 219 223
f 217 219 215
f 567 578 579
f 567 572 578
f 567 568 566
f 269 146 155
f 155 166 269
f 146 123 155
f 248 166 155
f 615 614 729
f 911 789 898
f 898 912 911
f 641 637 615
f 640 641 898
f 637 641 640
f 597 596 637
f 592 591 593
f 593 591 615
f 615 637 616
f 637 727 616
f 616 593 615
f 727 593 616
f 637 596 754
f 596 609 754
f 701 736 742
f 742 743 701
f 744 743 742
f 742 647 744
f 601 736 701
f 424 6 387
f 387 319 424
f 5 6 424
f 323 317 387
f 323 316 317
f 387 315 323
f 323 315 316
f 317 316 326
f 326 319 317
f 326 424 319
f 5 424 326
f 326 426 5
f 326 300 426
f 326 320 300
f 715 652 792
f 792 652 791
f 792 791 898
f 705 652 325
f 645 652 705
f 705 646 645
f 653 646 705
f 898 791 643
f 791 652 643
f 643 640 898
f 645 639 643
f 643 652 645
f 643 639 637
f 637 640 643
f 807 795 939
f 807 939 812
f 812 939 811
f 811 818 812
f 435 399 347
f 346 295 435
f 435 347 346
f 388 399 435
f 435 296 388
f 295 296 435
f 839 399 817
f 714 705 325
f 653 705 714
f 316 407 714
f 821 943 825
f 825 946 821
f 821 893 894
f 894 943 821
f 893 832 894
f 894 832 829
f 920 855 784
f 784 933 920
f 785 933 784
f 806 784 852
f 847 849 850
f 300 296 299
f 299 295 297
f 299 296 295
f 426 300 299
f 299 298 426
f 937 936 917
f 805 937 917
f 917 936 785
f 415 408 334
f 413 293 366
f 282 397 392
f 334 390 392
f 392 415 334
f 392 397 415
f 349 365 282
f 336 339 338
f 338 11 10
f 372 429 430
f 430 381 372
f 429 381 430
f 330 408 333
f 333 332 330
f 423 281 286
f 286 332 423
f 423 332 281
f 330 332 359
f 359 428 418
f 394 389 386
f 386 384 394
f 632 659 633
f 632 630 659
f 263 242 280
f 709 683 256
f 227 228 671
f 671 232 227
f 231 234 227
f 227 232 231
f 231 242 234
f 9 232 233
f 566 568 570
f 570 568 228
f 747 718 602
f 747 739 623
f 623 620 747
f 747 620 718
f 712 648 654
f 648 649 654
f 654 658 712
f 657 658 654
f 653 714 703
f 703 714 407
f 703 654 649
f 650 646 653
f 650 649 646
f 653 703 650
f 650 703 649
f 305 310 311
f 311 306 305
f 366 310 305
f 305 413 366
f 294 413 305
f 414 288 334
f 327 306 311
f 308 329 421
f 421 307 308
f 329 398 421
f 311 307 421
f 421 327 311
f 306 327 421
f 421 398 387
f 314 315 313
f 665 315 314
f 313 656 314
f 656 665 314
f 633 625 627
f 627 625 628
f 627 632 633
f 628 630 627
f 630 632 627
f 735 601 701
f 740 601 735
f 701 743 735
f 743 666 735
f 740 739 746
f 746 750 599
f 746 602 603
f 603 750 746
f 753 687 698
f 607 606 605
f 603 605 716
f 716 750 603
f 75 74 66
f 75 77 74
f 66 78 75
f 132 121 131
f 131 142 132
f 136 121 132
f 132 142 136
f 136 142 776
f 776 142 124
f 96 136 776
f 776 124 96
f 70 105 69
f 69 73 70
f 70 73 105
f 76 137 103
f 103 73 76
f 105 73 103
f 180 152 171
f 171 152 148
f 148 147 171
f 171 141 180
f 171 147 141
f 463 539 540
f 540 539 499
f 475 460 459
f 459 474 475
f 459 460 462
f 470 474 459
f 459 531 14
f 462 531 459
f 459 438 470
f 14 537 459
f 537 438 459
f 199 277 509
f 277 504 509
f 509 510 199
f 509 502 510
f 537 440 469
f 440 468 469
f 470 537 469
f 469 468 470
f 467 494 466
f 466 494 542
f 466 440 467
f 466 468 440
f 466 542 470
f 470 468 466
f 471 393 493
f 393 434 493
f 493 472 471
f 493 434 472
f 478 484 443
f 443 441 476
f 354 405 353
f 130 209 208
f 208 209 210
f 208 262 130
f 208 210 249
f 249 262 208
f 578 717 668
f 669 579 668
f 579 578 668
f 618 690 583
f 722 607 583
f 749 618 583
f 583 603 749
f 583 604 603
f 605 604 583
f 583 607 605
f 719 720 619
f 676 695 670
f 669 668 670
f 670 690 669
f 670 717 676
f 670 668 717
f 670 695 719
f 719 619 670
f 670 619 690
f 617 723 697
f 608 607 722
f 606 607 608
f 608 722 587
f 587 723 608
f 102 90 114
f 134 174 173
f 173 157 134
f 47 48 26
f 26 32 47
f 47 32 48
f 17 32 26
f 26 15 17
f 17 15 45
f 45 24 17
f 24 19 17
f 17 19 31
f 54 32 42
f 575 576 553
f 553 561 575
f 575 204 730
f 575 561 204
f 676 717 731
f 731 717 574
f 164 189 191
f 191 170 164
f 192 170 191
f 167 193 165
f 165 157 167
f 173 553 555
f 553 557 555
f 899 865 821
f 759 761 899
f 899 761 888
f 899 946 759
f 821 946 899
f 904 922 899
f 899 888 904
f 923 922 924
f 924 925 923
f 925 889 923
f 923 899 922
f 889 899 923
f 886 922 904
f 886 874 922
f 886 904 885
f 885 874 886
f 765 766 764
f 764 766 934
f 764 763 765
f 764 934 763
f 777 710 778
f 934 766 777
f 767 710 777
f 777 766 765
f 765 767 777
f 770 767 772
f 772 710 770
f 770 710 767
f 613 902 612
f 612 611 697
f 612 697 613
f 344 11 340
f 339 432 340
f 340 338 339
f 11 338 340
f 345 344 340
f 342 433 343
f 342 436 433
f 449 452 446
f 446 455 449
f 843 452 449
f 543 495 456
f 451 445 543
f 451 455 445
f 543 456 451
f 451 456 455
f 411 362 387
f 387 6 411
f 411 6 5
f 5 426 411
f 337 339 336
f 337 432 339
f 150 172 180
f 180 163 150
f 150 163 172
f 178 183 172
f 172 548 178
f 511 497 536
f 497 496 536
f 536 496 475
f 185 548 180
f 511 536 185
f 185 536 544
f 175 547 187
f 197 184 187
f 529 486 492
f 492 485 479
f 200 197 521
f 490 522 528
f 522 525 528
f 525 200 528
f 528 491 490
f 528 521 491
f 528 200 521
f 518 517 520
f 518 516 521
f 521 517 518
f 160 184 194
f 194 184 197
f 182 160 194
f 458 489 546
f 546 489 488
f 546 549 458
f 546 488 549
f 529 441 526
f 861 945 860
f 862 458 861
f 458 945 861
f 861 860 863
f 863 858 861
f 189 193 279
f 565 567 566
f 572 567 565
f 566 570 565
f 565 570 228
f 615 729 781
f 774 614 775
f 774 729 614
f 774 781 729
f 775 912 774
f 912 781 774
f 787 911 912
f 789 911 787
f 782 641 615
f 615 781 782
f 782 781 912
f 638 756 636
f 637 639 638
f 636 597 638
f 638 597 637
f 736 737 635
f 636 756 635
f 635 737 636
f 651 646 647
f 651 756 646
f 651 635 756
f 736 635 651
f 647 742 651
f 651 742 736
f 644 639 645
f 645 646 644
f 646 756 644
f 595 597 636
f 596 597 595
f 592 609 751
f 751 609 596
f 751 750 592
f 596 750 751
f 594 593 727
f 592 593 594
f 594 609 592
f 637 754 728
f 728 754 609
f 599 596 598
f 596 595 598
f 636 737 598
f 598 595 636
f 600 601 740
f 736 601 600
f 740 746 600
f 600 746 599
f 325 795 409
f 409 714 325
f 320 326 409
f 326 714 409
f 794 795 325
f 793 795 794
f 325 715 794
f 715 792 794
f 794 792 793
f 797 795 807
f 807 812 797
f 797 812 399
f 805 793 790
f 793 792 790
f 790 895 805
f 790 787 895
f 789 787 790
f 796 795 793
f 796 939 795
f 796 793 805
f 811 939 810
f 810 914 811
f 399 812 813
f 813 812 818
f 320 335 301
f 300 320 301
f 301 399 388
f 301 335 399
f 388 296 301
f 301 296 300
f 318 326 316
f 316 714 318
f 318 714 326
f 910 825 897
f 897 825 943
f 820 941 897
f 941 910 897
f 836 820 897
f 906 910 864
f 906 825 910
f 906 864 946
f 946 825 906
f 856 858 863
f 863 894 856
f 809 784 806
f 806 803 809
f 803 918 809
f 932 855 854
f 854 852 932
f 932 784 855
f 932 852 784
f 849 852 928
f 864 910 928
f 850 849 928
f 910 850 928
f 334 288 350
f 350 390 334
f 350 349 390
f 391 392 390
f 390 349 391
f 282 392 391
f 391 349 282
f 349 350 348
f 348 413 294
f 336 338 348
f 348 350 288
f 293 413 348
f 348 288 366
f 366 293 348
f 358 349 10
f 363 365 364
f 365 349 364
f 364 405 363
f 349 358 364
f 289 333 408
f 332 333 289
f 282 332 289
f 331 359 332
f 428 359 331
f 331 332 286
f 369 428 331
f 368 369 331
f 286 368 331
f 382 384 383
f 384 386 383
f 418 382 383
f 383 389 418
f 383 386 389
f 263 280 257
f 257 280 683
f 257 255 263
f 257 758 255
f 257 683 758
f 699 256 698
f 709 256 699
f 699 694 709
f 698 385 699
f 385 694 699
f 696 620 622
f 620 621 622
f 621 753 622
f 732 622 679
f 579 672 732
f 232 671 678
f 233 232 678
f 278 280 242
f 232 9 278
f 683 280 278
f 242 231 278
f 278 231 232
f 745 747 602
f 739 747 745
f 602 746 745
f 745 746 739
f 704 703 407
f 704 407 665
f 654 703 704
f 310 414 292
f 292 420 310
f 416 420 292
f 292 414 418
f 418 417 292
f 292 417 416
f 366 288 291
f 288 414 291
f 291 310 366
f 291 414 310
f 334 408 404
f 404 408 330
f 387 419 410
f 410 421 387
f 306 421 410
f 419 305 410
f 410 305 306
f 628 625 626
f 626 666 628
f 626 735 666
f 740 735 741
f 741 739 740
f 623 739 741
f 624 625 623
f 623 741 624
f 624 741 735
f 624 626 625
f 735 626 624
f 687 753 688
f 688 753 621
f 686 687 688
f 688 621 752
f 634 686 688
f 688 752 634
f 592 750 610
f 750 716 610
f 610 716 605
f 610 606 592
f 605 606 610
f 119 123 146
f 146 95 119
f 119 118 123
f 128 145 129
f 129 77 128
f 146 145 128
f 128 95 146
f 154 155 123
f 248 155 154
f 144 149 154
f 154 249 248
f 154 271 249
f 149 271 154
f 93 68 67
f 78 68 93
f 93 67 81
f 81 63 93
f 118 119 93
f 93 63 101
f 81 67 59
f 59 44 26
f 59 48 81
f 26 48 59
f 39 15 35
f 40 39 35
f 35 15 26
f 49 40 35
f 35 60 49
f 66 60 35
f 35 59 67
f 106 137 105
f 105 103 106
f 106 103 137
f 462 463 532
f 463 540 532
f 500 540 499
f 500 498 501
f 499 498 500
f 502 540 500
f 501 503 500
f 500 503 502
f 447 446 448
f 448 458 447
f 458 549 447
f 447 549 529
f 447 526 441
f 529 526 447
f 442 443 542
f 442 445 446
f 446 447 442
f 441 443 442
f 442 447 441
f 479 542 444
f 542 443 444
f 444 484 479
f 444 443 484
f 454 456 533
f 533 456 495
f 586 619 720
f 586 588 587
f 586 720 588
f 722 583 584
f 619 586 584
f 587 722 584
f 584 586 587
f 58 102 80
f 80 102 114
f 80 55 58
f 80 99 55
f 58 90 100
f 100 102 58
f 90 102 100
f 162 134 114
f 174 134 162
f 162 114 204
f 204 174 162
f 99 80 111
f 109 55 111
f 55 99 111
f 58 43 57
f 43 56 57
f 57 56 88
f 57 90 58
f 88 90 57
f 88 56 20
f 23 52 20
f 20 52 88
f 20 43 23
f 33 32 16
f 32 17 16
f 16 17 31
f 16 31 42
f 42 33 16
f 32 54 97
f 13 557 553
f 553 576 13
f 230 229 560
f 576 575 577
f 676 731 577
f 577 731 576
f 577 675 676
f 730 675 577
f 577 575 730
f 230 560 573
f 573 228 230
f 564 573 558
f 564 731 574
f 228 573 564
f 574 572 564
f 572 565 564
f 564 565 228
f 268 191 189
f 192 191 268
f 181 157 173
f 181 167 157
f 193 167 181
f 927 889 865
f 865 899 927
f 927 899 889
f 778 902 868
f 613 726 870
f 870 726 551
f 901 868 870
f 871 866 908
f 908 873 871
f 908 874 873
f 924 874 875
f 874 935 875
f 878 876 924
f 877 876 878
f 924 875 878
f 878 875 935
f 881 878 935
f 881 870 551
f 901 870 881
f 881 908 901
f 614 591 589
f 589 612 614
f 611 612 589
f 697 611 725
f 725 617 697
f 723 617 725
f 590 591 592
f 590 589 591
f 611 589 590
f 614 612 702
f 702 612 902
f 775 614 702
f 702 902 775
f 455 456 395
f 395 456 454
f 843 449 535
f 535 449 455
f 343 843 535
f 535 342 343
f 455 395 535
f 535 395 342
f 302 348 294
f 302 305 419
f 294 305 302
f 362 411 328
f 328 401 362
f 432 337 400
f 400 340 432
f 345 340 400
f 400 302 419
f 336 348 400
f 348 302 400
f 400 328 411
f 400 411 426
f 400 299 297
f 426 298 400
f 298 299 400
f 544 536 482
f 483 547 482
f 482 547 544
f 480 536 475
f 483 536 480
f 480 538 483
f 475 485 480
f 485 538 480
f 511 185 512
f 512 498 511
f 512 185 180
f 512 508 501
f 501 498 512
f 180 179 512
f 179 508 512
f 544 547 545
f 545 185 544
f 545 547 548
f 548 185 545
f 175 187 519
f 519 187 184
f 519 184 183
f 183 178 519
f 519 548 175
f 519 178 548
f 190 547 520
f 190 187 547
f 197 187 190
f 520 517 190
f 190 517 197
f 534 538 485
f 534 518 520
f 516 518 534
f 486 516 534
f 534 492 486
f 485 492 534
f 523 547 483
f 483 538 523
f 520 547 523
f 523 534 520
f 538 534 523
f 477 476 529
f 529 492 477
f 478 443 477
f 477 443 476
f 479 478 477
f 477 492 479
f 831 525 182
f 831 200 525
f 182 194 831
f 197 200 831
f 831 194 197
f 858 857 859
f 859 861 858
f 859 857 490
f 490 862 859
f 862 861 859
f 196 279 193
f 558 573 559
f 559 560 279
f 559 573 560
f 895 787 780
f 780 787 912
f 780 772 895
f 780 912 772
f 660 782 912
f 641 782 660
f 660 912 898
f 898 641 660
f 642 638 639
f 756 638 642
f 639 644 642
f 642 644 756
f 755 728 609
f 755 594 727
f 609 594 755
f 755 727 637
f 637 728 755
f 599 598 738
f 738 598 737
f 738 600 599
f 738 737 736
f 736 600 738
f 324 795 320
f 320 409 324
f 324 409 795
f 320 795 800
f 795 797 800
f 800 797 399
f 898 789 788
f 789 790 788
f 788 792 898
f 788 790 792
f 803 802 801
f 801 918 803
f 785 918 801
f 805 917 801
f 801 917 785
f 845 837 838
f 845 914 938
f 938 814 845
f 836 837 845
f 845 850 836
f 931 818 811
f 811 914 931
f 914 845 931
f 838 841 931
f 841 818 931
f 931 845 838
f 938 914 930
f 930 810 938
f 914 810 930
f 808 814 938
f 808 801 802
f 808 802 803
f 808 803 806
f 806 814 808
f 938 810 808
f 399 813 815
f 815 818 841
f 815 813 818
f 943 894 942
f 942 897 943
f 942 894 863
f 836 897 909
f 909 833 836
f 909 944 833
f 863 944 909
f 909 942 863
f 897 942 909
f 830 894 829
f 830 856 894
f 858 856 830
f 830 857 858
f 830 829 490
f 490 857 830
f 785 784 786
f 784 809 786
f 786 918 785
f 786 809 918
f 853 854 864
f 864 851 853
f 853 851 854
f 929 851 864
f 864 928 929
f 929 928 852
f 929 852 854
f 854 851 929
f 849 847 848
f 341 338 10
f 341 348 338
f 10 349 341
f 349 348 341
f 405 364 351
f 351 353 405
f 282 289 290
f 290 289 408
f 290 397 282
f 408 415 290
f 415 397 290
f 685 753 698
f 685 622 753
f 696 622 673
f 622 732 673
f 673 672 696
f 673 732 672
f 579 732 734
f 734 567 579
f 568 567 734
f 571 568 734
f 734 678 571
f 571 678 569
f 569 678 671
f 569 568 571
f 228 568 569
f 569 671 228
f 733 732 679
f 679 678 733
f 733 734 732
f 678 734 733
f 683 278 681
f 681 278 9
f 681 9 233
f 657 654 321
f 654 704 321
f 321 704 665
f 321 656 657
f 321 665 656
f 406 414 334
f 334 404 406
f 418 414 406
f 406 359 418
f 330 359 406
f 406 404 330
f 79 128 77
f 95 128 79
f 78 95 79
f 79 75 78
f 77 75 79
f 94 119 95
f 94 93 119
f 94 95 78
f 78 93 94
f 101 126 117
f 117 93 101
f 117 149 144
f 117 126 149
f 118 93 117
f 144 154 117
f 123 118 117
f 117 154 123
f 26 44 38
f 38 35 26
f 44 59 38
f 59 35 38
f 61 67 66
f 66 35 61
f 61 35 67
f 462 532 464
f 464 532 465
f 464 531 462
f 464 465 531
f 465 532 541
f 542 445 450
f 450 442 542
f 445 442 450
f 356 533 495
f 356 495 354
f 354 353 356
f 454 533 356
f 356 436 454
f 355 436 356
f 690 619 585
f 619 584 585
f 585 583 690
f 585 584 583
f 110 120 109
f 109 111 110
f 115 80 114
f 115 111 80
f 114 134 115
f 21 56 43
f 43 20 21
f 21 20 56
f 53 97 54
f 53 43 55
f 42 43 53
f 53 54 42
f 109 120 239
f 239 238 130
f 120 170 239
f 101 107 239
f 107 32 239
f 32 97 239
f 222 238 239
f 239 170 222
f 239 271 101
f 130 271 239
f 12 558 557
f 557 13 12
f 12 13 558
f 211 560 229
f 279 560 211
f 211 270 279
f 558 13 562
f 562 564 558
f 731 564 563
f 576 731 563
f 564 562 563
f 563 13 576
f 563 562 13
f 867 868 901
f 867 908 866
f 901 908 867
f 866 934 867
f 934 777 867
f 867 777 778
f 778 868 867
f 613 870 869
f 869 870 868
f 869 902 613
f 869 868 902
f 878 881 879
f 877 878 879
f 879 881 551
f 551 550 879
f 879 880 877
f 550 880 879
f 913 935 874
f 913 881 935
f 874 908 913
f 908 881 913
f 724 725 611
f 606 608 724
f 724 608 723
f 723 725 724
f 454 436 453
f 453 395 454
f 436 342 453
f 342 395 453
f 357 358 10
f 431 337 336
f 336 400 431
f 431 400 337
f 303 400 419
f 328 400 303
f 425 297 345
f 345 400 425
f 425 400 297
f 481 536 483
f 483 482 481
f 481 482 536
f 557 558 556
f 558 559 556
f 193 181 195
f 195 196 193
f 195 181 173
f 173 555 195
f 555 196 195
f 192 268 267
f 267 268 189
f 189 279 267
f 279 270 267
f 322 335 320
f 320 800 322
f 399 335 322
f 322 800 399
f 804 814 806
f 806 852 804
f 804 852 849
f 804 848 847
f 849 848 804
f 801 808 798
f 798 796 805
f 805 801 798
f 799 808 810
f 799 810 939
f 799 798 808
f 939 796 799
f 796 798 799
f 816 841 839
f 816 815 841
f 839 817 816
f 816 817 399
f 399 815 816
f 352 364 358
f 352 351 364
f 358 357 352
f 353 351 352
f 355 356 352
f 352 356 353
f 352 357 10
f 352 436 355
f 10 436 352
f 684 256 683
f 683 681 684
f 698 256 684
f 682 685 698
f 698 684 682
f 682 684 681
f 513 532 540
f 513 541 532
f 513 540 502
f 502 509 513
f 515 465 507
f 465 541 507
f 507 505 515
f 277 505 507
f 541 513 507
f 507 504 277
f 507 509 504
f 507 513 509
f 151 110 111
f 165 164 151
f 151 111 165
f 164 120 151
f 120 110 151
f 133 134 157
f 133 115 134
f 97 53 98
f 109 239 98
f 98 239 97
f 98 55 109
f 98 53 55
f 229 212 261
f 261 211 229
f 270 211 261
f 261 212 220
f 261 267 270
f 192 267 261
f 261 220 222
f 222 192 261
f 713 590 592
f 592 606 713
f 606 724 713
f 611 590 713
f 713 724 611
f 304 303 419
f 328 303 304
f 419 401 304
f 401 328 304
f 198 559 279
f 198 556 559
f 279 196 198
f 557 556 198
f 198 196 555
f 198 555 557
f 846 845 814
f 814 804 846
f 846 804 847
f 846 847 850
f 850 845 846
f 680 681 233
f 233 678 680
f 680 682 681
f 680 678 679
f 685 682 680
f 679 622 680
f 622 685 680
f 111 115 127
f 115 133 127
f 165 111 127
f 127 157 165
f 127 133 157

