# https://github.com/mikedh/trimesh
v 0.01934071 -0.08227221 0.12996054
v 0.01928299 -0.08232743 0.13000609
v 0.01611564 -0.08208691 0.13243733
v 0.02253984 -0.07693613 0.11733758
v 0.00679990 -0.08376085 -0.13290511
v 0.02352467 -0.07761245 -0.11810597
v 0.02350715 -0.07766603 -0.11812414
v 0.02741112 0.06825222 0.09790050
v 0.02715736 0.06061125 -0.11876976
v 0.02716853 0.06045392 -0.11874158
v -0.02719750 0.07436264 -0.11510129
v 0.02420283 0.08361526 0.12528316
v 0.02418111 0.08363005 0.12529956
v -0.01730601 0.08700810 0.12688004
v -0.01663757 0.08543906 -0.12850195
v 0.01719138 0.08856562 -0.12430512
v 0.01710725 0.08856706 -0.12424044
v 0.01717896 0.08856114 -0.12432092
v 0.01570328 -0.08712406 0.03696490
v 0.01799051 -0.08589640 0.09574507
v 0.01993612 -0.08373406 0.09809181
v 0.01870603 -0.08539882 0.12294332
v 0.01832861 -0.08565325 0.12576248
v 0.01707447 -0.08678696 0.12422724
v 0.01692299 -0.08632303 0.12727842
v 0.01798969 -0.08469493 0.12852672
v 0.01824780 -0.08429185 0.12882797
v 0.01914265 -0.08441590 0.12671554
v 0.01573293 -0.08620699 0.12900707
v 0.01638332 -0.08528974 0.12977471
v 0.01510995 -0.08702944 0.12826691
v 0.01700299 -0.08417729 0.13048544
v 0.01232591 -0.08600276 0.13112929
v 0.01480523 -0.08499334 0.13098236
v 0.02052197 -0.08289860 0.09878248
v 0.02125693 -0.08170300 0.09963616
v 0.02141747 -0.08132238 0.10815496
v 0.02181455 -0.08055362 0.10026287
v 0.02128299 -0.08062852 0.12338519
v 0.01934471 -0.08455874 0.12370239
v 0.01934396 -0.08450189 0.12495747
v 0.01998198 -0.08357796 0.12444744
v 0.02051009 -0.08253191 0.12504467
v 0.01961580 -0.08347811 0.12725056
v 0.02029128 -0.08244958 0.12670954
v 0.02014154 -0.08239358 0.12784137
v 0.02216797 -0.07968305 0.10064777
v 0.02272469 -0.07740699 0.10706779
v 0.02216819 -0.07937113 0.10753682
v 0.02234871 -0.07883048 0.10738669
v 0.02268555 -0.07767379 0.10114785
v 0.02260325 -0.07705645 0.11472452
v 0.02254128 -0.07693818 0.11729326
v 0.02199121 -0.07890275 0.11775735
v 0.02194198 -0.07879924 0.12000896
v 0.02251588 -0.07703340 0.11731479
v 0.02186934 -0.07866634 0.12289325
v 0.02170739 -0.07923261 0.12302963
v 0.02244521 -0.07681764 0.11988819
v 0.02241747 -0.07679112 0.12045431
v 0.02132060 -0.07978254 0.12586217
v 0.02116639 -0.08051888 0.12572510
v 0.02184701 -0.07865350 0.12316131
v 0.02333217 -0.07378751 0.09895438
v 0.02306690 -0.07566821 0.10147083
v 0.02302151 -0.07542556 0.10679814
v 0.02332178 -0.07367267 0.10148352
v 0.02355634 -0.07191541 0.09621936
v 0.02279134 -0.07483949 0.11958068
v 0.02274560 -0.07478699 0.12070809
v 0.02315578 -0.07309087 0.11421679
v 0.02323806 -0.07332465 0.10911129
v 0.02111301 -0.08050307 0.12603687
v 0.02070369 -0.08038310 0.12839940
v 0.02112511 -0.07837643 0.12877445
v 0.01332545 -0.08773606 -0.03185262
v 0.01027133 -0.08576457 -0.13048638
v 0.00767200 -0.08570586 -0.13101180
v 0.00790069 -0.08554104 -0.13119115
v 0.00531141 -0.08564245 -0.13126607
v 0.00347958 -0.08642226 -0.13029567
v 0.00478643 -0.08562811 -0.13131744
v 0.00509930 -0.08540721 -0.13156270
v 0.00467249 -0.08721755 -0.12867310
v -0.00533406 -0.08728459 -0.12854552
v -0.00413645 -0.08793182 -0.12692965
v -0.00813273 -0.08706477 -0.12892097
v -0.00652336 -0.08637558 -0.13017324
v -0.01533579 -0.08719927 -0.12842483
v -0.01584190 -0.08687657 -0.12911195
v -0.01485724 -0.08500295 -0.13128047
v -0.01652511 -0.08629076 -0.13005254
v -0.00986484 -0.08516418 -0.13134157
v 0.01233693 -0.08418328 -0.13210818
v 0.01203721 -0.08390975 -0.13252224
v 0.00995426 -0.08385647 -0.13280585
v 0.01352746 -0.08505376 -0.13048219
v 0.00231089 -0.08486372 -0.13195282
v 0.01262715 -0.08392008 -0.13233691
v 0.01481856 -0.08395166 -0.13149828
v -0.00768613 -0.08463042 -0.13183884
v -0.01730244 -0.08492096 -0.13118360
v 0.01398061 -0.08241307 -0.13340940
v -0.01325698 -0.08335640 -0.13262753
v -0.01928883 -0.08497002 -0.13047785
v -0.01899195 -0.08484583 -0.13070879
v -0.01580594 -0.08303346 -0.13268669
v -0.01336553 -0.08311558 -0.13278977
v 0.01516173 -0.08358000 -0.13176998
v 0.01117762 -0.08232924 -0.13377870
v -0.01936499 -0.08482858 -0.13058930
v -0.01767244 -0.08405952 -0.13174013
v 0.00833164 -0.08186155 -0.13412292
v -0.01658035 -0.08300505 -0.13260215
v -0.01811814 -0.08646560 -0.12882356
v -0.02088684 -0.08530150 -0.12924178
v -0.01804935 -0.08294599 -0.13232748
v -0.02020229 -0.08285607 -0.13185069
v -0.02203366 -0.08305413 -0.13093010
v 0.01627887 -0.08204761 -0.13266124
v -0.01621613 -0.08104935 -0.13339280
v -0.02155862 -0.08278813 -0.13130105
v -0.01943563 -0.08092815 -0.13297280
v 0.01620498 -0.08010287 -0.13400107
v 0.01750608 -0.08012805 -0.13364523
v 0.01090309 -0.08852412 -0.06782612
v -0.01497514 -0.08848840 -0.05549254
v -0.01618855 -0.08833914 -0.05708587
v -0.01655609 -0.08828247 -0.05428080
v -0.01907887 -0.08753701 -0.06749717
v -0.02064544 -0.08687775 -0.06630595
v 0.01326371 -0.08743906 -0.07471158
v -0.02184393 -0.08625844 -0.06792056
v 0.00930867 -0.08874246 -0.06659517
v 0.00771858 -0.08882424 -0.06537040
v 0.00842223 -0.08879128 -0.06591233
v -0.02270988 -0.08587629 -0.11183432
v -0.02260645 -0.08592171 -0.11276488
v -0.02119042 -0.08669937 -0.11636138
v -0.02317753 -0.08456748 -0.12749514
v -0.02246194 -0.08491109 -0.12803839
v -0.02278099 -0.08462460 -0.12847874
v -0.02392813 -0.08455898 -0.11682379
v -0.02127621 -0.08593264 -0.12640556
v -0.02138581 -0.08643366 -0.12321623
v -0.02292027 -0.08573367 -0.10883202
v -0.01525629 -0.08816440 -0.11837167
v -0.01684169 -0.08809834 -0.11715360
v -0.01926075 -0.08755552 -0.12035130
v -0.02129561 -0.08473263 -0.12982344
v -0.00572961 -0.08811013 -0.12570051
v 0.00755285 -0.08833336 -0.11824761
v 0.00792589 -0.08821699 -0.12106052
v 0.00952411 -0.08787859 -0.12229690
v -0.01292306 -0.08794216 -0.12521805
v -0.01730767 -0.08767333 -0.12437468
v -0.01850693 -0.08707830 -0.12598819
v -0.01888576 -0.08737717 -0.12316702
v -0.01692197 -0.08715803 -0.12720564
v -0.01610113 -0.08803957 -0.12277152
v 0.00990614 -0.08747925 -0.12512262
v 0.00914359 -0.08823103 -0.11947331
v 0.00187127 -0.08707840 -0.12904491
v 0.00747768 -0.08723195 -0.12830695
v 0.01029784 -0.08677486 -0.12796214
v 0.00909054 -0.08643273 -0.12956420
v 0.01191126 -0.08595801 -0.12922019
v 0.01311971 -0.08626344 -0.12761979
v 0.01473916 -0.08525667 -0.12888644
v 0.01627784 -0.08393456 -0.13009754
v 0.01595778 -0.08524213 -0.12730053
v 0.01070841 -0.08547561 -0.13082860
v 0.00627935 -0.08660742 -0.12992180
v 0.01637172 -0.08383688 -0.13017179
v 0.01759388 -0.08371053 -0.12859094
v 0.01141804 -0.08820941 0.12356063
v 0.01300821 -0.08812514 0.12233575
v 0.01460558 -0.08781385 0.12110060
v 0.00764930 -0.08834066 0.10879740
v 0.01674028 -0.08690698 0.09420426
v 0.01583514 -0.08745441 0.12267089
v 0.00824883 -0.08802753 0.12599452
v 0.00913955 -0.08670699 0.13032894
v 0.00499174 -0.08575673 0.13142171
v 0.00476913 -0.08599136 0.13115209
v 0.01228852 -0.08752671 0.12792392
v 0.00385991 -0.08789483 0.12684408
v 0.01070371 -0.08744226 0.12914116
v 0.01387340 -0.08760908 0.12670659
v 0.00758092 -0.08579776 0.13150883
v 0.00764334 -0.08583908 0.13146168
v -0.01538404 -0.08706810 0.12144047
v -0.01258764 -0.08735968 0.12181918
v -0.01417052 -0.08721424 0.12303366
v -0.01136937 -0.08735610 0.12340560
v -0.01696279 -0.08679248 0.12264906
v -0.01816857 -0.08640283 0.12104485
v -0.01973269 -0.08566666 0.12223258
v -0.01853092 -0.08618267 0.12384251
v -0.02009165 -0.08533947 0.12502540
v -0.02019823 -0.08535735 0.12258421
v -0.02018127 -0.08540130 0.12162535
v -0.02092553 -0.08486919 0.12060990
v -0.02014042 -0.08547535 0.12001866
v -0.01732397 -0.08653573 0.12544507
v -0.01889114 -0.08589544 0.12663714
v -0.02023006 -0.08524108 0.12512981
v -0.01996501 -0.08514456 0.12744747
v -0.02044149 -0.08472473 0.12780520
v -0.01923211 -0.08500144 0.12940431
v -0.01913727 -0.08508545 0.12933312
v -0.01715757 -0.08510296 0.13033427
v -0.01644689 -0.08564513 0.12979895
v -0.01566393 -0.08513045 0.13077413
v -0.01364709 -0.08582927 0.13017279
v -0.01469809 -0.08515237 0.13096707
v -0.01488311 -0.08639215 0.12861170
v -0.01520086 -0.08476681 0.13134575
v -0.02076019 -0.08312972 0.13054062
v -0.02163576 -0.08397238 0.12618457
v -0.02223628 -0.08310649 0.12662841
v -0.01768101 -0.08614818 0.12823516
v -0.02022940 -0.08525429 0.12483861
v -0.02227042 -0.08321837 0.12413346
v 0.01546509 -0.08747689 0.12547954
v 0.01670955 -0.08664813 0.12702858
v 0.01512596 -0.08775220 0.09546360
v 0.01229477 -0.08855717 0.09513453
v 0.01351772 -0.08840602 0.09671426
v -0.02128346 -0.08450947 0.12340125
v -0.01674075 -0.08326679 0.13249890
v -0.02428834 -0.08427142 -0.11402918
v -0.01574964 -0.08695025 0.12424278
v -0.02480372 -0.08377442 -0.11111959
v -0.02370113 -0.08120968 0.12325525
v -0.01133171 -0.08782090 -0.12644461
v -0.02311075 -0.08554912 -0.11238476
v -0.01562589 -0.08817267 -0.11556365
v 0.01423566 -0.08783209 0.12390905
v -0.02237979 -0.08588319 -0.06751622
v -0.01970518 -0.08645116 -0.12760315
v 0.01194956 -0.08656958 0.13068822
v -0.02188842 -0.08301547 0.12888249
v -0.01653705 -0.08301057 0.13274202
v -0.02370533 -0.08112179 0.12519341
v -0.02314952 -0.08164960 0.12730046
v -0.02353060 -0.08101925 0.12758043
v -0.01610986 -0.08666327 0.12703742
v -0.02148455 -0.08299645 0.12958564
v -0.02084217 -0.08297089 0.13060036
v 0.01070748 -0.08855086 0.09635531
v -0.01937165 -0.08592771 0.11943677
v -0.01776458 -0.08797781 -0.05588117
v -0.02346908 -0.08520249 -0.10959281
v -0.01871422 -0.08768481 -0.07029811
v -0.02197072 -0.08288944 0.12894316
v -0.01794296 -0.08788565 -0.10874032
v -0.02046165 -0.08701155 -0.12196251
v -0.01768341 -0.08787513 -0.12155790
v -0.01930763 -0.08667394 -0.12706608
v 0.01223360 -0.08578092 -0.12947182
v 0.00869026 -0.08740786 -0.12671241
v 0.01151072 -0.08694074 -0.12636806
v 0.01433575 -0.08633000 -0.12603021
v 0.00830604 -0.08787621 -0.12388357
v 0.00709014 -0.08780538 -0.12547334
v 0.00549550 -0.08803077 -0.12424208
v -0.00853175 -0.08799981 -0.12607101
v -0.00259532 -0.08774111 0.12171190
v -0.01453247 -0.08698128 0.12583076
v -0.01330786 -0.08677763 0.12740810
v -0.00973864 -0.08764518 -0.12767363
v 0.00228531 -0.08748857 0.12804675
v -0.02518634 0.07918403 0.12551147
v -0.02545165 0.07720052 0.12575693
v -0.02445053 0.07924925 0.12746769
v -0.02414808 0.08123030 0.12719372
v -0.02485525 0.08116318 0.12521551
v -0.02577673 0.07910914 0.12344360
v -0.02478099 0.08304525 0.12259558
v -0.02620644 0.07902357 0.12125237
v -0.02513051 0.08274368 0.12034717
v -0.02623108 0.07893341 0.11924378
v -0.02452818 0.08311838 0.12438786
v -0.02667543 0.07705360 0.12165420
v -0.02506297 0.07328649 0.12806317
v -0.02573460 0.07126260 0.12713216
v -0.02611339 0.06925709 0.12681253
v -0.02676650 0.07494433 0.11924472
v -0.02330009 0.08128806 0.12906381
v -0.02591259 0.07909037 0.12293365
v -0.02505711 0.08295571 0.12042439
v -0.02413893 0.08500372 0.12206086
v -0.02425542 0.08497269 0.12129385
v -0.02545575 0.06931028 0.12844825
v -0.02528459 0.07327003 0.12754440
v -0.02367701 0.08320014 0.12679028
v -0.02623662 0.06725852 0.12682514
v -0.02620354 0.06526418 0.12704097
v -0.02561021 0.06531822 0.12865035
v -0.02603907 0.07123608 0.12633320
v -0.02443451 0.08313636 0.12485072
v -0.02701187 0.06708917 0.12254141
v -0.02706505 0.06707368 0.12216212
v -0.02673655 0.06716599 0.12443106
v -0.02693125 0.07634609 -0.11534748
v -0.02664469 0.07821914 -0.11801789
v -0.02647996 0.02974480 -0.12675934
v -0.02547138 0.08282328 -0.10398777
v -0.02416695 0.08473768 -0.10503106
v -0.02560886 0.08235432 -0.10387224
v -0.02603650 0.08085968 -0.10351213
v -0.02720104 0.07493364 -0.10249275
v -0.02743409 0.06607804 -0.12128309
v -0.02680554 0.06787647 -0.12536163
v -0.02713497 0.07406706 -0.12158548
v -0.02740913 0.06807394 -0.12142345
v -0.02659794 0.07807209 -0.12123293
v -0.02596564 0.08005590 -0.12121469
v -0.02513613 0.08200191 -0.12189333
v -0.02601107 0.08008324 -0.12064277
v -0.02534698 0.08209649 -0.11995221
v -0.02744058 0.06614585 -0.11978998
v -0.02468183 0.08185755 -0.12476330
v -0.02501900 0.08195707 -0.12280164
v -0.02527730 0.07980650 -0.12624047
v -0.02619720 -0.07939191 -0.10378328
v -0.02612177 -0.07953818 -0.10696106
v -0.02627711 -0.07754715 -0.10733583
v -0.02625753 -0.07767423 -0.11012863
v -0.02608159 -0.07911733 -0.11023385
v -0.02587782 -0.07812961 -0.11992004
v -0.02584790 -0.07815808 -0.12052779
v -0.02657253 -0.06621706 -0.12274310
v -0.02648295 -0.06233251 -0.12536516
v -0.02641719 -0.06632119 -0.12493402
v -0.02652141 -0.06033112 -0.12542878
v -0.02650278 -0.06033782 -0.12556376
v -0.02655471 -0.06817183 -0.12166415
v -0.02567955 -0.07828343 -0.12317821
v -0.02565692 -0.06650626 -0.12848843
v -0.02514297 -0.06857850 -0.12965626
v -0.02597993 -0.06645766 -0.12764137
v -0.02362903 0.08384167 -0.12444321
v -0.02596845 -0.07237487 -0.12560282
v -0.02548636 -0.07841564 -0.12596276
v -0.02579706 -0.07243838 -0.12688516
v -0.02544425 -0.07884062 -0.12587112
v -0.02512277 -0.08043578 -0.12608511
v -0.02522218 -0.08040371 -0.12544648
v -0.02431956 -0.08252278 -0.12737601
v -0.02354824 -0.08449709 -0.12620041
v -0.02389137 0.08175317 -0.12789267
v -0.02228529 0.08233888 -0.12914026
v -0.02163147 0.08359921 -0.12839786
v -0.02099041 0.08475633 -0.12766314
v -0.02014063 0.08349133 -0.12973547
v -0.02050547 0.08562499 -0.12710678
v -0.02154876 0.08574502 -0.12518733
v -0.02249234 -0.08399501 0.06258599
v -0.02744058 -0.03802888 -0.12014000
v -0.02716741 -0.03816120 -0.12287090
v -0.02672162 -0.06586469 -0.11506514
v -0.02673905 -0.06574938 -0.11253060
v -0.02522185 -0.07257109 -0.12941317
v -0.02642163 0.06780408 -0.12669127
v -0.02394698 0.08169452 -0.12784868
v -0.02630190 0.07909542 -0.12093600
v -0.02562088 0.07991882 -0.12400056
v -0.02571606 0.05531944 0.12894038
v -0.02570806 0.05331774 0.12897599
v -0.02356964 0.07930482 0.12931253
v -0.02709496 0.04506286 0.12264436
v -0.02554361 0.01728584 0.12960127
v -0.02718380 0.04495461 0.12019141
v -0.02675288 0.01713796 0.12548741
v -0.02696957 -0.05511787 0.12211456
v -0.02679689 -0.06119302 0.12077810
v -0.02718872 0.07442826 -0.11510942
v -0.02621894 0.06924688 0.12651305
v -0.02657943 -0.05491551 0.12685734
v -0.02650622 -0.05490281 0.12718920
v -0.02667031 -0.04890597 0.12680186
v -0.02549628 -0.08172719 -0.11062960
v -0.02458879 -0.08393203 -0.11444989
v -0.02524846 -0.08195469 -0.11548035
v -0.02445370 -0.08402600 -0.11643065
v -0.02594136 -0.06845184 -0.12741841
v -0.02635148 -0.06901354 0.12532429
v -0.02611646 -0.06895445 0.12679414
v -0.02643017 -0.06904774 0.12451384
v -0.02645826 -0.06916002 0.12201425
v -0.02617230 -0.07106605 0.12435761
v -0.02659285 -0.06714990 0.12207583
v -0.02550118 -0.07512449 0.12367238
v -0.02660293 -0.06717345 0.12154873
v -0.02633988 -0.06634669 -0.12544290
v -0.02555301 0.06368886 -0.12849218
v -0.02584298 -0.07308912 0.12414651
v -0.02550093 -0.07511303 0.12392564
v -0.02541721 -0.07500445 0.12638252
v -0.02568906 -0.07326559 0.12655534
v -0.02530500 -0.07497085 0.12720326
v -0.02573009 -0.07298247 0.12658100
v -0.02476472 -0.07695141 0.12807849
v -0.02498644 -0.07491894 0.12857295
v -0.02574781 -0.07298763 0.12645474
v -0.02522904 -0.04277002 0.13061234
v -0.02554657 -0.06887820 0.12887775
v -0.02321569 -0.08275248 0.08952119
v -0.02555962 0.08238737 -0.11367700
v -0.02421473 0.08441907 -0.11210135
v -0.02350335 -0.08264896 -0.12959069
v -0.02298114 -0.08269353 -0.13020884
v -0.02521602 -0.07290251 0.12870746
v -0.02460506 -0.07082782 0.13071778
v -0.02420876 -0.07485651 0.13049702
v -0.02359344 -0.08218099 -0.12974857
v -0.02396554 -0.08061620 0.12285947
v -0.02417358 0.08471683 -0.10549619
v -0.02744058 0.01049528 0.11101370
v -0.02470302 -0.07693895 0.12839709
v -0.02650879 -0.06822247 -0.12275029
v -0.02430629 -0.07971571 0.12562633
v -0.02364339 -0.08105979 0.12660613
v -0.02694352 -0.05506299 0.12334484
v -0.02453460 -0.07906547 0.12578837
v -0.02608979 -0.07100167 0.12583732
v -0.02566869 -0.08121480 -0.10293704
v -0.02394404 -0.03662230 -0.13086267
v -0.02613854 -0.04882718 0.12891473
v -0.02432248 -0.07896543 0.12814667
v -0.02400681 -0.08356803 -0.12687813
v -0.02299740 0.08482755 0.12623358
v -0.02055591 0.08522204 0.12939451
v -0.02161660 0.08329142 0.13025064
v -0.02425253 0.08366229 0.12469977
v -0.02651223 0.07707888 0.12232689
v -0.02395056 -0.07687483 0.13034053
v -0.02360384 -0.07889907 0.13011607
v -0.02592822 0.07782394 -0.12624399
v -0.02627445 0.07584581 -0.12593641
v -0.02596374 0.07579742 -0.12678726
v -0.02577805 0.07779769 -0.12671867
v -0.02511932 0.07367677 -0.12879245
v -0.02607889 0.07379907 -0.12676414
v -0.02534182 0.06968028 -0.12873608
v -0.02557452 0.07873939 -0.12653515
v -0.02550109 -0.07840945 -0.12583640
v -0.02507292 0.07976823 -0.12694244
v -0.02657156 0.07386440 -0.12566654
v -0.02540120 -0.07088903 0.12880789
v -0.02224271 0.08186199 0.13076206
v -0.02223253 -0.07950178 0.13159742
v -0.02344932 -0.07945858 0.13000889
v -0.02109790 0.08136991 0.13241530
v -0.02103534 0.08152229 0.13236401
v -0.02698751 -0.05311551 0.12208658
v -0.02561115 -0.08137124 -0.10284855
v -0.02616436 0.08037573 -0.11429041
v -0.02734076 -0.03811638 -0.12200257
v -0.02700159 -0.05321766 0.11982068
v -0.02434980 0.00131128 0.13153988
v -0.02596096 -0.07096596 0.12671650
v -0.02624185 -0.06835437 -0.12547641
v -0.02649006 -0.06177407 -0.12542279
v -0.02421862 0.08427064 -0.11538223
v -0.02692895 0.07621620 -0.11821462
v -0.02282796 0.08514484 0.12609663
v -0.02368016 0.08508736 0.12422978
v -0.02469667 -0.06882057 0.13074637
v -0.02346646 -0.06878823 0.13232300
v -0.02460618 -0.07752743 0.12833488
v -0.02386025 -0.07892212 0.12942721
v -0.02453714 -0.07908880 0.12527135
v -0.02298598 -0.08094132 0.12968343
v -0.02736657 0.00662935 0.11416156
v -0.02738735 0.00660356 0.11357751
v -0.02689986 -0.05500835 0.12458220
v -0.02628891 0.01722125 0.12765235
v -0.02630778 0.06725162 0.12662302
v -0.02675884 0.06516630 0.12448993
v -0.02632617 0.06525168 0.12667889
v -0.02506224 0.08294980 0.12029035
v -0.02392287 0.08169016 -0.12792824
v -0.02568853 0.07994367 -0.12349928
v -0.02539007 0.08213295 -0.11917718
v -0.02609491 0.08022929 -0.11747595
v -0.02573512 0.08184625 -0.11385872
v -0.02689669 0.07606876 -0.12144852
v -0.02678884 0.07392813 -0.12441131
v -0.02547758 -0.07252167 -0.12850086
v -0.02574263 -0.08005210 -0.11804570
v -0.02505666 -0.08209781 -0.11850682
v -0.02737649 0.06802859 -0.12240210
v 0.01646625 0.08797730 -0.04298166
v -0.01763624 0.08837121 0.02109417
v 0.01768221 0.08790829 -0.04139196
v -0.01740150 0.08861539 -0.06741555
v -0.01532791 0.08882424 -0.06144423
v -0.01896126 0.08826195 -0.09901452
v -0.01773293 0.08858270 -0.09744248
v -0.02057149 0.08754568 -0.09776103
v -0.02155690 0.08671151 -0.11212693
v 0.01960901 0.08797722 -0.12110534
v 0.02117929 0.08743524 -0.12230186
v 0.01996920 0.08768902 -0.12389992
v 0.01875318 0.08775617 -0.12548953
v 0.02229669 0.08655641 -0.12077040
v 0.02151751 0.08645442 -0.12506509
v 0.01471526 0.08731102 -0.12742145
v -0.02094735 0.08734024 -0.09494409
v -0.02134254 0.08708551 -0.09543674
v 0.02272351 0.08607143 -0.12346118
v 0.02085522 0.08581539 0.10762379
v 0.01927613 0.08608038 0.10883286
v 0.02362405 0.08465542 0.10804182
v 0.02096108 0.08568094 0.11763935
v 0.01863230 0.08559886 0.12447940
v 0.02021769 0.08553259 0.12326133
v 0.02261830 0.08440772 0.12648541
v 0.02104244 0.08477439 0.12768987
v 0.02223589 0.08399638 0.12931166
v 0.01944459 0.08444821 0.12892571
v 0.01826427 0.08401019 0.12984272
v 0.02136381 0.08589924 0.08525820
v 0.02227942 0.08528773 0.11663351
v 0.02221682 0.08563788 0.08639182
v 0.02059176 0.08568172 0.12044695
v 0.01901261 0.08594458 0.12165611
v -0.01611055 0.08663597 0.12846928
v -0.01731680 0.08701107 0.12686573
v -0.01852767 0.08724036 0.12526878
v -0.01974297 0.08733039 0.12367813
v -0.01906968 0.08701022 0.12569049
v -0.02040235 0.08698469 0.12419253
v -0.02096805 0.08711205 0.12210145
v -0.02136261 0.08631791 0.12494504
v -0.02259048 0.08601160 0.12337234
v -0.02383108 0.08530438 0.12181779
v -0.02220500 0.08651992 0.12054169
v -0.02452336 0.08466877 0.11439382
v -0.02195052 0.08674519 0.11781770
v -0.02021606 0.08753128 0.11646720
v -0.01776859 0.08788303 0.11962441
v -0.01655412 0.08776722 0.12121622
v -0.01936330 0.08765583 0.12085576
v -0.01898944 0.08779800 0.11804169
v -0.01892347 0.08640711 0.12811414
v -0.01770855 0.08630523 0.12970532
v 0.02372932 0.08450263 0.11805821
v -0.01760040 0.08806110 -0.12024543
v -0.02393904 0.08494816 -0.10521075
v -0.02356038 0.08524214 -0.10803170
v -0.02420261 0.08451175 -0.11004601
v -0.02406482 0.08445535 -0.11519792
v -0.02167600 0.08642891 -0.12212360
v -0.02043338 0.08719986 -0.12057194
v -0.01882885 0.08773675 -0.12181732
v -0.02234779 0.08593296 -0.12159652
v -0.02006704 0.08710513 -0.12337528
v -0.01847004 0.08740474 -0.12460991
v -0.01827101 0.08777715 -0.12224723
v -0.01919372 0.08787749 -0.11901606
v -0.02132106 0.08597535 -0.12491070
v -0.01767582 0.08769697 -0.12360080
v -0.01880476 0.08792680 -0.11931627
v 0.02367471 0.08582769 -0.10904647
v 0.02248783 0.08681284 -0.11067764
v -0.02129921 0.08693018 0.12235996
v -0.01723803 0.08784131 -0.12304312
v 0.01889573 0.08776237 -0.03979879
v -0.02217565 0.08632130 -0.11289901
v 0.02030643 0.08667724 -0.12666175
v 0.01968087 0.08633713 -0.12744704
v 0.01906684 0.08600187 -0.12821774
v 0.02060185 0.08434823 -0.12936393
v 0.01626939 0.08626026 -0.12859493
v 0.02158711 0.08638212 -0.12511711
v 0.02069549 0.08421195 -0.12943311
v 0.01640883 0.08639670 -0.12842514
v -0.01972053 0.08638606 -0.12615036
v -0.02179946 0.08578234 -0.12453870
v -0.01814187 0.08610781 -0.12735883
v -0.01867488 0.08552633 -0.12800268
v -0.01657654 0.08540949 -0.12854828
v 0.02174109 0.08639301 -0.12476858
v -0.02229821 0.08587301 -0.12288584
v -0.02393942 0.08392348 -0.12285391
v 0.02212381 0.08699668 -0.11116767
v 0.01751988 0.08727917 -0.12705450
v -0.02294243 0.08490800 -0.12364131
v -0.01541011 0.08847677 -0.10427401
v 0.01385787 0.08647582 -0.12846580
v -0.01652131 0.08533120 0.13133600
v -0.01638298 0.08518623 0.13152872
v -0.01900633 0.08523314 0.13072591
v -0.01676200 0.08519804 0.13152392
v 0.02010139 0.08736864 -0.03819439
v -0.02269391 0.08622244 0.11335332
v -0.01814092 0.08778904 0.12243630
v -0.02059126 0.08734684 0.11928318
v -0.02153646 0.08689335 0.12138007
v -0.02174177 0.08684546 0.12017859
v -0.02182639 0.08681184 0.11772084
v -0.01732648 0.08700844 0.12687323
v -0.02014157 0.08640847 0.12652752
v -0.02144562 0.08701449 -0.09707758
v -0.02080734 0.08705430 -0.11775772
v -0.01933556 0.08810562 -0.09619981
v 0.01767178 0.08859486 -0.11710461
v -0.01851926 0.08782241 -0.12142152
v 0.01595593 0.08802056 -0.12586701
v 0.01500570 0.08482553 -0.13011654
v 0.02489269 -0.07239232 -0.11677636
v 0.02464010 -0.07374005 -0.12027728
v 0.02456654 -0.07379504 -0.12154331
v 0.02471582 -0.07180381 -0.12169968
v 0.02505509 -0.06582288 -0.12208543
v 0.02483256 -0.06590224 -0.12399418
v 0.02515586 -0.06382841 -0.12220455
v 0.02489999 -0.06390517 -0.12407934
v 0.02538353 -0.06174851 -0.12034768
v 0.02433192 -0.07389359 -0.12388433
v 0.02321692 -0.07791745 -0.12505773
v 0.02556714 -0.05730810 -0.11062711
v 0.02300547 -0.07836583 -0.12529430
v 0.02290539 -0.05613070 -0.13072832
v 0.02401300 -0.07006325 -0.12798987
v 0.02386580 -0.07008857 -0.12865228
v 0.02393699 -0.07398148 -0.12610228
v 0.02333527 -0.07605679 -0.12811969
v 0.02283417 -0.07807615 -0.12883118
v 0.02264363 -0.07812611 -0.13006807
v 0.02135322 -0.07815444 -0.13159847
v 0.02037740 -0.08009070 -0.13080749
v 0.01902353 -0.08011482 -0.13228916
v 0.02295102 -0.07803240 -0.12778292
v 0.01907232 -0.08200508 -0.12976371
v 0.02369928 -0.07596684 -0.12587801
v 0.02134811 -0.08004110 -0.12903163
v 0.02531510 -0.06961419 -0.11715923
v 0.01783457 -0.08203692 -0.13133454
v 0.01992313 -0.08194751 -0.12789579
v 0.01882696 -0.08324025 -0.12702567
v 0.02006768 -0.08252908 -0.12547130
v 0.01885893 -0.08376375 -0.12451579
v 0.01910220 -0.08371811 -0.12333712
v 0.01842920 -0.08413565 -0.12417749
v 0.02132542 -0.08169831 -0.12140896
v 0.02145460 -0.08165907 -0.12045160
v 0.02154196 -0.08159856 -0.11905406
v 0.02092492 -0.08226364 -0.12108911
v 0.02309163 -0.07912099 -0.11525063
v 0.01821909 -0.08383535 -0.12654569
v 0.02437901 0.08506263 -0.10806289
v 0.02438080 0.08499424 -0.10957219
v 0.02553129 0.08291655 -0.11041377
v 0.02542306 0.08279907 -0.11308438
v 0.02661741 0.07850919 -0.11115723
v 0.02659420 0.07884038 -0.11121615
v 0.02718296 0.06688497 -0.10941379
v 0.02476523 0.06215678 -0.12705621
v 0.02411882 0.06208562 -0.12908107
v 0.02472321 0.06416075 -0.12706570
v 0.02535029 0.06423320 -0.12502601
v 0.02278822 0.06205996 -0.13058061
v 0.02390061 0.06810363 -0.12903878
v 0.02378656 0.07011238 -0.12899297
v 0.02744058 0.06054846 -0.11646275
v 0.02706039 0.06246076 -0.11873376
v 0.02732463 0.06255734 -0.11641548
v 0.02473094 0.02002045 -0.12867424
v 0.02153852 -0.06215745 -0.13207476
v 0.02669705 0.07694968 -0.10866241
v 0.02361814 0.01998031 -0.13034100
v 0.02217953 0.01797379 -0.13142599
v 0.02361933 -0.07750608 -0.11569022
v 0.02615045 0.08082358 -0.11196589
v 0.01742026 -0.08389638 -0.12845352
v 0.02319844 -0.07793470 -0.12545172
v 0.02716276 0.06045279 -0.11877060
v 0.02428149 0.08231475 -0.12458116
v 0.02420851 0.08284219 -0.12453603
v 0.02315508 0.08427669 -0.12627923
v 0.02343427 0.08429540 -0.12567029
v 0.02304151 0.08445404 -0.12619558
v 0.02228549 0.08422037 -0.12813273
v 0.02274777 0.08218845 -0.12844591
v 0.02138531 0.08216490 -0.12992100
v 0.02179898 0.08013624 -0.13019685
v 0.02232417 0.07409781 -0.13047483
v 0.02104245 0.07610127 -0.13136443
v 0.02294033 0.08017449 -0.12855201
v 0.02183742 0.08489705 -0.12780221
v 0.02061546 0.08633258 -0.12689225
v 0.02399837 0.08433476 -0.12440553
v 0.02390009 0.08476182 -0.12181531
v 0.02411150 0.08446209 -0.12151401
v 0.02303276 -0.07014733 -0.13053385
v 0.01664376 -0.08548338 -0.11980883
v 0.01660425 -0.08550082 -0.12022176
v 0.01642561 -0.08560880 -0.12008209
v 0.01357908 -0.08689691 -0.12038928
v 0.01250023 -0.08734321 -0.11955014
v 0.01557177 -0.08576715 -0.12446913
v 0.01278131 -0.08728673 -0.11810585
v 0.01320231 -0.08713074 -0.11757105
v 0.01290742 -0.08725613 -0.11734161
v 0.01197076 -0.08755287 -0.11913851
v 0.01272895 -0.08693838 -0.12478160
v 0.01159522 -0.08774819 -0.11632203
v 0.01036705 -0.08806406 -0.11789430
v 0.01964485 -0.08347356 -0.11755572
v 0.02160152 -0.07416862 -0.13187261
v 0.02245383 0.07208802 -0.13053263
v 0.02624510 0.08086793 -0.11092008
v 0.02047887 -0.08121056 -0.12833863
v 0.02503720 -0.07159688 -0.11690411
v 0.02053835 -0.08280644 -0.11825690
v 0.02359044 0.08224656 -0.12657175
v 0.02409456 0.08444251 -0.12195823
v 0.01719142 -0.08475392 -0.12573607
v 0.02659839 0.07884326 -0.11114957
v 0.02471600 0.01601912 -0.12857926
v 0.02297760 -0.07414598 -0.13040799
v 0.02120137 -0.06215860 -0.13233652
v 0.02080266 -0.08182507 -0.12457502
v 0.02056644 -0.08187614 -0.12586855
v 0.02191061 -0.07996436 -0.12694235
v 0.02203563 -0.07994471 -0.12642070
v 0.02247687 -0.07977371 -0.12233479
v 0.02264438 -0.07967070 -0.11994223
v 0.02542220 -0.06173081 -0.11992963
v 0.02427512 -0.07000164 -0.12644539
v 0.02431797 -0.07389711 -0.12397191
v 0.02386145 -0.07590473 -0.12439260
v 0.01891197 -0.01798628 0.13381586
v 0.02015142 -0.02807713 0.13301553
v -0.02474166 0.04536297 0.13092218
v -0.02335437 0.04138253 0.13246169
v -0.02160281 0.03937903 0.13367978
v -0.01967368 0.03935499 0.13450121
v -0.02520539 -0.04677392 0.13067768
v -0.02481710 0.05537381 0.13077134
v -0.01710942 -0.07489686 0.13458242
v -0.01914221 -0.07485099 0.13417045
v -0.01892687 -0.07686647 0.13404687
v 0.01696760 0.06421038 0.13402987
v 0.01745545 -0.07402803 0.13376219
v 0.01520379 -0.07594854 0.13400670
v 0.01741114 -0.07603699 0.13360062
v 0.01268991 -0.07786363 0.13418708
v 0.01252273 -0.07986341 0.13414255
v 0.01412688 -0.07992431 0.13392192
v 0.01476758 -0.07995084 0.13378522
v 0.01605886 -0.08205396 0.13248031
v 0.01428156 -0.08195925 0.13332618
v 0.01506395 -0.07794756 0.13399771
v 0.01002963 -0.07978271 0.13417712
v 0.00943327 -0.08179412 0.13357462
v 0.00803453 -0.08174862 0.13359899
v 0.00887119 -0.08352552 0.13299252
v 0.00905679 -0.08381776 0.13285586
v 0.01039972 -0.08538314 0.13185556
v 0.00875456 -0.08380775 0.13286506
v 0.01108367 -0.08595373 0.13134139
v 0.01668773 -0.08004707 0.13300576
v 0.01763342 -0.07403573 0.13371678
v 0.00564060 -0.08370472 0.13295761
v 0.00604266 -0.08424655 0.13265966
v 0.01705640 0.03817789 0.13425157
v 0.01792002 0.03814990 0.13423893
v 0.01864162 0.05014086 0.13414015
v -0.02168376 0.06940189 0.13311564
v -0.02169348 0.06740137 0.13316486
v -0.02350766 0.06740786 0.13203660
v -0.02354797 0.06540938 0.13210931
v -0.02471694 0.06537297 0.13048568
v -0.02459804 0.06736623 0.13035263
v -0.02556955 0.06731668 0.12857737
v -0.01695262 0.07933341 0.13458242
v -0.01718579 0.08132231 0.13410645
v -0.01550706 0.08321476 0.13284032
v -0.01817561 0.08322617 0.13265237
v -0.01914501 0.08135419 0.13343708
v -0.01727470 0.07934280 0.13456397
v -0.01956219 0.07938077 0.13379913
v -0.01960210 0.07738227 0.13387153
v -0.02091468 0.08136949 0.13253440
v -0.02047231 0.07739104 0.13345516
v -0.02151863 0.07739557 0.13282184
v -0.01813747 0.08328835 0.13262174
v -0.02301071 -0.07482203 0.13209834
v -0.02332624 -0.07079872 0.13225710
v -0.02444869 -0.07283939 0.13063948
v -0.02119680 -0.07482851 0.13322679
v -0.02142062 -0.06881013 0.13327338
v -0.01543565 -0.08052749 0.13396145
v -0.01534186 -0.08099307 0.13389902
v -0.01551808 -0.08098771 0.13389395
v -0.01786824 -0.07890791 0.13394152
v -0.01799438 -0.08093082 0.13341442
v -0.01822927 -0.08014864 0.13357878
v -0.01857343 -0.08092226 0.13319754
v -0.01902400 -0.08297766 0.13172555
v -0.01951081 -0.08214575 0.13208263
v -0.01690561 -0.08300438 0.13262023
v -0.02055413 -0.08297121 0.13079527
v -0.01799527 -0.08441244 0.13096420
v 0.01972565 0.07810349 0.13313000
v 0.01935368 0.08008863 0.13247358
v 0.01945818 0.08204378 0.13148896
v 0.02061987 0.08309755 0.13057342
v 0.02231994 0.08386290 0.12943268
v -0.02101701 -0.07684162 0.13313050
v -0.02241475 -0.07886399 0.13172427
v -0.02094660 -0.07736625 0.13308729
v -0.02076576 -0.07684294 0.13327750
v -0.02069298 -0.07886434 0.13292347
v -0.02168820 -0.07886320 0.13225107
v -0.01393008 -0.08308811 0.13285682
v 0.01991805 0.07611348 0.13355296
v 0.01284199 -0.08395533 0.13247078
v 0.01323586 -0.08442237 0.13217757
v -0.02036705 0.07938911 0.13341918
v 0.01343559 -0.08397742 0.13239916
v -0.02146157 0.07939293 0.13273628
v -0.01858055 -0.07889068 0.13382272
v 0.01529923 -0.08407519 0.13154623
v -0.02266700 0.07935894 0.13114064
v -0.02241991 0.08134368 0.13090917
v 0.01898104 0.08148022 0.13186771
v -0.01940359 0.03934693 0.13451241
v 0.01378419 -0.07790035 0.13414328
v -0.01704764 0.08038511 0.13436757
v 0.01186545 -0.08187647 0.13346084
v -0.02474255 0.06337351 0.13054710
v -0.02027668 -0.07483445 0.13374053
v -0.02002831 -0.08090971 0.13245489
v -0.02175582 -0.08090898 0.13126011
v 0.02391024 0.07986069 0.13063362
v 0.02334292 0.08049524 0.13105675
v 0.02345656 0.07990327 0.13125604
v 0.02416036 0.08176927 0.12872240
v 0.02478894 0.08168927 0.12739605
v 0.02379240 0.08302017 0.12813480
v 0.02264330 0.08383313 0.12900170
v 0.02530242 0.08057931 0.12702425
v 0.02557837 0.07963560 0.12683168
v 0.02500305 0.08164381 0.12654213
v 0.02419447 0.08361711 0.12531808
v 0.02472593 0.08348320 0.12273319
v 0.02299215 0.08455011 0.12367132
v 0.02179562 0.08523122 0.12205391
v 0.02336280 0.08459148 0.12086181
v 0.02216494 0.08523059 0.11924631
v 0.02253357 0.08520866 0.11643967
v 0.02655039 0.07922850 0.11852189
v 0.02613339 0.08122950 0.11818418
v 0.02609270 0.08126011 0.11883154
v 0.02586121 0.08137044 0.12110617
v 0.02603889 0.08050966 0.12141214
v 0.02625520 0.07938590 0.12179121
v 0.02653209 0.07924509 0.11887535
v 0.02520006 0.08334774 0.12007380
v 0.02189312 0.08388302 0.12957768
v 0.02339035 0.08374362 0.12754849
v 0.02527458 0.08331568 0.11941794
v 0.02492070 0.08365938 0.11968296
v 0.02537435 0.08320415 0.11702455
v 0.02303581 -0.06251109 0.12660013
v 0.02225089 -0.06437929 0.12902833
v 0.02328028 -0.06878679 0.12088476
v 0.02413585 -0.06107931 0.11475414
v 0.02350475 -0.06065048 0.12378299
v 0.02498288 -0.04387982 0.09706069
v 0.02024876 -0.02607926 0.13296927
v 0.02155972 -0.02818725 0.13157062
v 0.02730296 0.06943817 0.12401750
v 0.02599474 -0.00524007 0.11061747
v 0.02593668 -0.00516402 0.11225640
v 0.02589107 -0.00511902 0.11321823
v 0.02696632 0.06953748 0.12597480
v 0.02566671 0.06973806 0.12949379
v 0.02605893 0.06970107 0.12895179
v 0.02290055 0.05794066 0.13243420
v 0.02115129 0.05804153 0.13343584
v 0.02105551 0.05604370 0.13348414
v 0.02063566 0.05606449 0.13364884
v 0.02362328 -0.07225595 0.08874521
v 0.02732559 0.07143401 0.12387409
v 0.02723608 0.07342682 0.12358490
v 0.02707108 0.07465057 0.12326400
v 0.02685374 0.07354729 0.12597773
v 0.02662819 0.07910918 0.11594099
v 0.02671272 0.07846643 0.11588938
v 0.02663425 0.07909954 0.11573234
v 0.02639341 0.08004252 0.11862565
v 0.02700524 0.07153605 0.12590316
v 0.02227687 -0.07250783 0.12647754
v 0.02210663 -0.07450768 0.12642904
v 0.02187528 -0.07650919 0.12630108
v 0.02157270 -0.07851261 0.12608051
v 0.02144363 -0.07637257 0.12901574
v 0.02160609 -0.07437294 0.12905413
v 0.02332077 -0.07366609 0.10162806
v 0.02322756 -0.07441445 0.10157147
v 0.02394087 -0.06513842 0.11344699
v 0.02375088 -0.06278833 0.12097812
v 0.02040189 -0.07625251 0.13093720
v 0.02012702 -0.07825519 0.13075266
v 0.01982686 -0.08025857 0.13053526
v 0.02097267 -0.07910750 0.12863924
v 0.02048164 -0.08034692 0.12904279
v 0.01909015 -0.07613977 0.13250765
v 0.01930973 -0.08226782 0.13003576
v 0.01842083 -0.08014838 0.13198311
v 0.02561118 0.07174292 0.12949467
v 0.02608195 0.07169692 0.12880890
v 0.02487892 0.07181261 0.13052068
v 0.02490048 0.07380843 0.13037590
v 0.02358805 0.07392115 0.13194544
v 0.02352877 0.07192431 0.13204120
v 0.02360444 0.07591684 0.13179394
v 0.02596011 0.07368885 0.12847767
v 0.02722154 0.06115840 0.11805125
v 0.02476705 0.07779527 0.12985679
v 0.02678220 0.07356283 0.12627064
v 0.02669299 0.07437484 0.12608411
v 0.02687872 0.07709135 0.11579039
v 0.02156775 -0.06229451 0.13035429
v 0.02126215 -0.06226255 0.13084587
v 0.02136196 -0.06428200 0.13055404
v 0.02346829 -0.06893001 0.11785336
v 0.02247533 -0.07464600 0.12363255
v 0.01911868 -0.07586791 0.13252126
v 0.01756701 -0.07473931 0.13369122
v 0.01927248 -0.07413959 0.13257187
v 0.02058959 -0.07425219 0.13100841
v 0.02362394 -0.07226236 0.08860396
v 0.02355557 0.07791073 0.13155758
v 0.02179329 0.07801125 0.13254229
v 0.02170553 0.07892308 0.13234900
v 0.02113674 0.07804398 0.13280484
v 0.02153674 0.07999952 0.13203593
v 0.02261966 0.07994652 0.13162452
v 0.02301777 0.08188660 0.13051276
v 0.02101625 0.08198063 0.13118642
v 0.02463060 0.07978680 0.12950656
v 0.02548914 0.07966176 0.12734691
v 0.01788124 -0.08215825 0.13145442
v 0.01612580 -0.08205755 0.13244802
v 0.01768457 -0.08267177 0.13124275
v 0.02350721 -0.06065140 0.12376434
v 0.02681925 0.06957337 0.12666444
v 0.02060721 0.05806754 0.13362893
v 0.02037087 0.07609375 0.13343462
v 0.02184676 0.07601748 0.13278462
v 0.02482194 0.06981584 0.13061942
v 0.02685731 0.07156963 0.12654110
v 0.02458215 0.07781484 0.13015949
v 0.01988384 -0.07418952 0.13189770
v 0.02039893 0.00998728 0.13332956
v 0.02730429 0.06500278 0.11453736
v 0.02386055 -0.06079014 0.12094789
v 0.02398512 -0.06091073 0.11837184
v 0.02405756 -0.06307666 0.11482517
v 0.02390621 -0.06293244 0.11790423
v 0.02260987 -0.07471327 0.12224117
v 0.02229348 -0.07669339 0.12252584
v 0.02320753 -0.07322420 0.11130833
v 0.02422516 -0.06126915 0.11062406
v -0.02070543 -0.07688402 -0.13302327
v -0.01910040 -0.07894927 -0.13327194
v -0.02075631 -0.07888062 -0.13291660
v -0.02062540 -0.08087231 -0.13257358
v -0.02239185 -0.08077191 -0.13159430
v -0.02211588 -0.08275965 -0.13106269
v -0.02377590 -0.08066113 -0.13011785
v -0.02041256 -0.08199515 -0.13219911
v -0.02392397 -0.07866990 -0.13048318
v -0.02253077 -0.07678521 -0.13212055
v -0.02425634 -0.08060756 -0.12927151
v -0.02497368 -0.07855005 -0.12857207
v 0.01338337 -0.08003108 -0.13439357
v 0.01142277 -0.08195297 -0.13397511
v 0.01372641 -0.08201702 -0.13377478
v 0.01506695 -0.08007999 -0.13429366
v 0.01538866 -0.07810023 -0.13458242
v 0.01594829 -0.07811461 -0.13450761
v 0.01425749 -0.08202734 -0.13363042
v 0.01783951 -0.07814907 -0.13394299
v 0.01784837 -0.07414732 -0.13403330
v 0.01979986 -0.07416295 -0.13301048
v 0.01966550 -0.06214704 -0.13315783
v 0.00102996 -0.07962456 -0.13407496
v -0.01556684 -0.08107129 -0.13342206
v -0.01615345 -0.07905241 -0.13348413
v -0.01602473 -0.08216249 -0.13304710
v 0.00841022 -0.07986934 -0.13430745
v 0.02198409 0.01797366 -0.13156580
v 0.01669039 0.03408338 -0.13339327
v 0.02112960 0.06005495 -0.13178654
v 0.01909391 0.06207734 -0.13278648
v -0.01625215 0.02913230 -0.13311726
v 0.01359001 0.06222915 -0.13329186
v 0.01618458 0.06215120 -0.13319452
v 0.01745552 0.07615229 -0.13275193
v 0.01866677 0.07211157 -0.13266729
v 0.01844362 0.07612874 -0.13257946
v 0.02058372 0.07610057 -0.13170145
v 0.02067817 0.07511606 -0.13175355
v 0.02039040 0.07811459 -0.13159477
v 0.01824210 0.07814330 -0.13246649
v 0.02014357 0.08013218 -0.13144701
v 0.01819354 0.08016278 -0.13213808
v 0.01801012 0.07945126 -0.13231534
v 0.01778906 0.08017461 -0.13216040
v 0.01352807 0.05421452 -0.13338839
v -0.02235634 0.06946461 -0.13140634
v -0.02402826 0.06956758 -0.13030417
v -0.02484326 0.06963298 -0.12943117
v 0.01781469 0.08493053 -0.12975580
v 0.01653810 0.08308937 -0.13125900
v -0.01789692 0.07726985 -0.13285164
v -0.02008747 0.07735876 -0.13242372
v -0.01981580 0.07936136 -0.13224335
v -0.02153040 0.07946317 -0.13119665
v -0.01763592 0.07877518 -0.13264209
v -0.01779358 0.07928413 -0.13253144
v -0.01932109 0.08137002 -0.13177300
v -0.01874379 0.08134849 -0.13184363
v -0.01912419 0.08190150 -0.13156258
v -0.01833861 0.08339189 -0.13066851
v -0.01783201 0.08423364 -0.13008161
v -0.01679800 0.08333440 -0.13085818
v -0.01940611 0.08465550 -0.12887964
v -0.02069699 0.08236415 -0.13036246
v -0.02442299 0.07968135 -0.12840562
v -0.02353577 0.07556663 -0.13018234
v -0.02493288 0.07567706 -0.12872288
v -0.02376428 0.07356521 -0.13030660
v -0.02182163 0.07746004 -0.13140246
v 0.01616929 0.08225141 -0.13166678
v 0.01103498 -0.08194170 -0.13399805
v 0.02012455 0.07208591 -0.13221214
v 0.02088053 0.07207850 -0.13184583
v 0.02254023 0.07008111 -0.13055721
v 0.01951502 0.08217513 -0.13100617
v 0.02047175 0.08421504 -0.12952185
v -0.01753881 0.07927480 -0.13255889
v -0.02486154 -0.07856613 -0.12884860
v -0.01858587 -0.08096531 -0.13319783
v -0.02475185 -0.08053928 -0.12811085
v 0.00852113 -0.07987298 -0.13431016
v -0.02600308 0.03368915 -0.12778912
v -0.02209827 0.07346207 -0.13141647
v -0.02304320 0.07957046 -0.12988760
v -0.02258090 0.08157824 -0.12945939
v -0.02105385 0.08147134 -0.13074991
v -0.02259659 -0.07878222 -0.13203329
v -0.01858549 -0.07897006 -0.13337015
v 0.01511134 0.07823226 -0.13269657
v 0.01545017 0.07621366 -0.13280228
v 0.01517430 0.07850070 -0.13263781
v 0.01525582 0.07822775 -0.13269481
v 0.01774240 0.07815530 -0.13255177
v 0.00841248 -0.08105315 -0.13420197
v -0.00531601 -0.08141055 -0.13372906
v 0.01899520 0.06207912 -0.13281629
v 0.01696226 0.08223075 -0.13156734
v 0.01726766 0.08427645 -0.13041161
v 0.01909739 0.08218252 -0.13113581
v 0.01831081 0.08425639 -0.13012334
v 0.01932769 0.08258373 -0.13087060
v -0.01629167 0.08274816 -0.13123541
f 361 421 323
f 662 892 670
f 672 724 670
f 671 672 670
f 892 662 893
f 746 753 772
f 772 753 773
f 873 906 872
f 1006 999 1063
f 999 121 1063
f 1063 975 974
f 990 999 1006
f 135 251 127
f 285 313 289
f 430 983 342
f 724 672 661
f 672 671 661
f 661 717 724
f 661 679 717
f 664 676 667
f 741 463 472
f 396 327 392
f 472 463 744
f 724 893 660
f 670 724 660
f 660 662 670
f 724 717 898
f 568 514 569
f 877 973 642
f 670 892 8
f 229 134 126
f 126 134 162
f 162 713 126
f 940 906 873
f 746 801 799
f 782 749 823
f 782 772 773
f 746 772 782
f 823 749 774
f 773 738 774
f 774 782 773
f 749 782 774
f 24 180 720
f 270 195 187
f 187 176 182
f 182 188 187
f 176 188 182
f 955 966 880
f 329 327 396
f 396 364 329
f 421 361 462
f 462 458 421
f 314 361 323
f 16 506 507
f 569 514 509
f 509 506 569
f 514 506 509
f 658 717 659
f 505 506 16
f 16 611 505
f 528 517 569
f 1020 1007 1008
f 1008 990 1020
f 697 661 684
f 679 661 697
f 717 679 697
f 514 698 697
f 697 698 722
f 697 659 717
f 697 722 658
f 658 659 697
f 788 789 787
f 518 516 530
f 671 666 683
f 684 661 683
f 683 661 671
f 683 666 669
f 669 666 668
f 668 716 669
f 472 797 839
f 458 462 377
f 361 364 377
f 377 462 361
f 394 377 396
f 479 394 391
f 396 392 391
f 391 394 396
f 383 479 381
f 778 777 779
f 323 421 304
f 304 289 313
f 285 289 304
f 304 303 285
f 675 893 662
f 662 660 675
f 675 660 893
f 931 893 724
f 860 898 717
f 860 717 658
f 870 568 569
f 569 517 870
f 870 856 13
f 13 12 870
f 23 24 22
f 654 35 652
f 652 35 21
f 652 22 720
f 654 47 38
f 38 47 37
f 674 727 676
f 676 727 677
f 727 1002 677
f 667 676 677
f 670 8 626
f 955 872 910
f 910 966 955
f 720 180 714
f 19 76 703
f 228 251 135
f 134 229 228
f 228 176 251
f 126 713 712
f 712 709 126
f 132 76 126
f 703 76 132
f 152 162 134
f 103 109 99
f 36 35 654
f 654 38 36
f 36 38 37
f 773 753 835
f 835 751 773
f 753 754 835
f 750 738 773
f 773 751 750
f 244 218 822
f 801 244 822
f 746 747 748
f 747 839 748
f 802 801 746
f 802 829 801
f 746 748 802
f 802 748 829
f 803 244 801
f 783 788 787
f 924 887 960
f 746 799 760
f 760 753 746
f 760 754 753
f 918 916 752
f 179 176 187
f 251 176 179
f 179 127 251
f 195 270 194
f 183 242 185
f 188 242 183
f 29 242 31
f 31 242 188
f 187 188 273
f 273 217 187
f 271 270 187
f 187 217 271
f 876 872 955
f 955 880 876
f 876 880 872
f 873 872 956
f 956 886 873
f 965 880 927
f 965 8 892
f 892 880 965
f 363 364 361
f 361 339 363
f 363 329 364
f 398 342 1057
f 562 511 584
f 657 698 514
f 657 568 656
f 514 568 657
f 657 656 658
f 499 500 502
f 502 501 499
f 572 528 599
f 506 505 599
f 599 611 572
f 599 505 611
f 518 528 526
f 526 528 572
f 1054 1063 121
f 975 1063 1054
f 990 989 986
f 987 986 989
f 999 990 997
f 990 1001 997
f 349 351 350
f 418 978 414
f 348 349 350
f 332 339 423
f 365 982 1053
f 350 351 433
f 493 348 350
f 511 1036 586
f 585 358 584
f 584 1036 585
f 585 1038 358
f 1036 1038 585
f 685 686 689
f 983 430 1022
f 1059 1029 1044
f 1059 1060 1029
f 398 1057 366
f 775 777 778
f 542 292 294
f 294 310 542
f 522 531 524
f 524 523 522
f 522 523 521
f 524 531 550
f 518 530 529
f 529 530 520
f 9 671 670
f 670 10 9
f 9 666 671
f 673 700 676
f 676 664 673
f 664 663 673
f 673 663 666
f 665 668 666
f 664 668 665
f 666 663 665
f 665 663 664
f 472 839 798
f 458 377 426
f 426 394 479
f 377 394 426
f 378 364 396
f 396 377 378
f 378 377 364
f 274 278 438
f 274 438 275
f 303 304 482
f 380 438 285
f 479 383 373
f 373 383 376
f 376 482 373
f 373 482 304
f 744 431 471
f 472 744 471
f 464 390 389
f 479 391 389
f 381 479 389
f 389 390 381
f 452 390 464
f 897 898 893
f 893 931 897
f 724 898 897
f 897 931 724
f 871 860 658
f 658 656 871
f 517 528 858
f 866 870 853
f 853 870 12
f 633 731 634
f 633 627 731
f 634 731 730
f 703 264 706
f 20 24 720
f 720 22 20
f 20 22 24
f 654 652 733
f 169 171 264
f 264 171 723
f 723 706 264
f 174 109 643
f 643 109 120
f 120 103 992
f 109 103 120
f 99 109 100
f 109 174 100
f 100 169 97
f 909 642 973
f 909 941 642
f 654 7 678
f 678 47 654
f 678 616 47
f 719 616 642
f 654 733 681
f 681 733 627
f 676 700 628
f 628 674 676
f 700 674 628
f 727 674 715
f 715 674 700
f 621 10 670
f 621 622 10
f 667 677 1004
f 1004 677 1002
f 1003 990 1008
f 991 989 990
f 990 1003 991
f 996 1002 727
f 996 1004 1002
f 1005 1004 996
f 901 910 872
f 901 872 906
f 702 723 649
f 703 706 702
f 706 723 702
f 720 714 648
f 648 653 720
f 648 702 649
f 76 19 227
f 126 76 227
f 227 229 126
f 227 19 180
f 136 228 135
f 134 228 136
f 135 152 136
f 136 152 134
f 710 712 713
f 704 264 703
f 126 709 708
f 708 132 126
f 703 132 708
f 708 704 703
f 168 169 264
f 97 169 168
f 96 83 5
f 96 5 113
f 113 110 96
f 92 88 90
f 90 115 92
f 90 89 115
f 88 81 90
f 155 89 236
f 86 267 151
f 963 933 939
f 940 933 963
f 960 887 879
f 879 933 960
f 939 933 879
f 960 933 885
f 885 933 886
f 885 921 960
f 886 921 885
f 934 940 873
f 934 933 940
f 937 963 939
f 219 810 806
f 231 218 244
f 231 810 218
f 231 806 810
f 801 829 804
f 804 803 801
f 829 748 819
f 819 748 839
f 819 839 797
f 789 788 826
f 890 774 738
f 738 889 890
f 823 774 890
f 964 889 738
f 887 889 964
f 888 889 887
f 887 924 888
f 924 959 888
f 888 890 889
f 738 750 769
f 769 937 939
f 827 830 758
f 800 799 801
f 800 760 799
f 801 822 800
f 178 229 181
f 229 227 181
f 180 24 181
f 181 227 180
f 177 229 178
f 178 239 177
f 177 239 176
f 176 228 177
f 177 228 229
f 42 36 37
f 35 36 42
f 940 963 911
f 911 937 916
f 963 937 911
f 917 918 952
f 768 918 752
f 752 756 768
f 768 756 758
f 952 918 768
f 187 195 193
f 127 179 193
f 195 194 193
f 193 194 127
f 242 34 33
f 190 822 218
f 188 183 215
f 215 273 188
f 217 273 215
f 215 183 185
f 270 271 248
f 248 271 217
f 872 880 884
f 884 956 872
f 308 366 1057
f 308 1057 342
f 612 559 567
f 584 358 582
f 582 562 584
f 559 612 563
f 566 571 16
f 566 563 571
f 566 562 559
f 559 563 566
f 598 783 784
f 783 811 812
f 815 523 867
f 867 525 814
f 867 523 524
f 524 525 867
f 836 811 783
f 787 782 836
f 836 783 787
f 836 782 823
f 823 811 836
f 587 506 514
f 514 579 587
f 722 698 699
f 698 657 699
f 658 722 699
f 699 657 658
f 590 528 569
f 590 599 528
f 569 506 590
f 506 599 590
f 518 526 515
f 515 526 572
f 515 516 518
f 572 516 515
f 93 83 92
f 1000 1054 121
f 1000 1070 113
f 118 1054 117
f 974 975 976
f 975 1054 976
f 982 365 1062
f 342 983 1062
f 1062 365 342
f 1062 983 974
f 974 976 1062
f 978 1062 977
f 977 1062 976
f 1069 986 113
f 113 1070 1069
f 1069 1070 1001
f 1056 1001 990
f 990 986 1056
f 1056 1069 1001
f 986 1069 1056
f 1046 110 113
f 1046 987 110
f 113 986 1046
f 986 987 1046
f 110 987 988
f 992 103 988
f 988 987 989
f 988 96 110
f 1021 1022 1058
f 974 983 1021
f 983 1022 1021
f 985 348 346
f 985 365 1053
f 492 365 985
f 346 347 985
f 985 347 492
f 1053 982 980
f 982 1062 980
f 978 418 980
f 980 1062 978
f 348 493 340
f 449 340 423
f 346 348 449
f 348 340 449
f 343 365 492
f 219 249 243
f 210 810 219
f 219 243 210
f 210 243 209
f 459 429 234
f 384 429 327
f 234 429 384
f 146 240 254
f 254 240 234
f 133 240 146
f 230 240 203
f 230 224 410
f 387 433 352
f 413 433 351
f 413 418 414
f 150 105 92
f 155 151 160
f 149 148 257
f 331 493 328
f 328 384 327
f 493 384 328
f 327 329 330
f 330 328 327
f 329 363 330
f 331 328 330
f 330 363 339
f 330 339 332
f 332 493 330
f 330 493 331
f 17 593 502
f 502 500 17
f 17 611 16
f 17 500 611
f 552 612 567
f 552 567 502
f 571 563 552
f 552 563 612
f 502 593 552
f 16 571 552
f 552 17 16
f 593 17 552
f 594 1036 511
f 594 614 1036
f 511 581 594
f 1036 614 1037
f 584 511 15
f 511 586 15
f 15 1036 584
f 15 586 1036
f 695 696 579
f 695 579 514
f 721 683 669
f 684 683 721
f 721 697 684
f 721 686 697
f 721 689 686
f 511 562 613
f 1026 1065 1007
f 1007 1020 1026
f 1026 990 1006
f 1026 1020 990
f 1006 1063 1026
f 1026 1063 974
f 398 366 447
f 1044 1058 1043
f 1058 1022 1043
f 285 438 291
f 828 777 792
f 777 775 792
f 792 826 828
f 285 291 281
f 281 291 284
f 610 501 503
f 547 548 544
f 544 602 547
f 544 499 501
f 501 610 544
f 284 294 280
f 280 294 292
f 280 281 284
f 292 281 280
f 434 469 470
f 470 469 539
f 543 512 513
f 503 512 543
f 434 470 297
f 277 278 274
f 547 602 537
f 537 534 547
f 539 469 538
f 538 469 435
f 531 522 519
f 520 530 519
f 519 522 520
f 547 534 601
f 530 546 601
f 601 519 530
f 601 548 547
f 545 530 516
f 545 546 530
f 545 601 546
f 611 500 545
f 548 601 545
f 855 529 520
f 855 522 521
f 520 522 855
f 666 9 682
f 682 9 10
f 682 673 666
f 10 622 682
f 700 673 630
f 370 300 299
f 383 431 480
f 376 383 480
f 480 431 370
f 382 383 381
f 382 431 383
f 381 390 382
f 303 482 305
f 305 482 481
f 285 303 305
f 305 380 285
f 481 380 305
f 781 779 295
f 781 300 779
f 375 304 421
f 375 373 304
f 464 389 428
f 428 389 391
f 416 452 796
f 472 471 416
f 415 406 796
f 796 452 415
f 464 406 415
f 415 452 464
f 860 871 869
f 866 862 869
f 869 870 866
f 568 870 869
f 656 568 869
f 869 871 656
f 898 860 899
f 865 899 864
f 946 812 811
f 848 523 815
f 948 848 815
f 847 848 948
f 815 867 948
f 950 951 846
f 527 528 518
f 527 858 528
f 551 870 517
f 517 858 551
f 856 870 551
f 551 858 856
f 729 730 731
f 651 733 652
f 651 652 720
f 720 653 651
f 655 723 171
f 97 168 261
f 261 168 167
f 166 261 167
f 173 77 166
f 166 77 97
f 97 261 166
f 641 636 634
f 634 730 641
f 730 729 641
f 641 729 718
f 718 729 644
f 639 174 643
f 643 636 639
f 636 641 639
f 639 644 645
f 639 641 718
f 718 644 639
f 125 991 993
f 125 120 992
f 643 120 125
f 169 100 170
f 170 100 174
f 171 169 170
f 973 875 968
f 968 909 973
f 616 678 6
f 6 678 7
f 640 633 634
f 727 715 995
f 995 715 993
f 995 996 727
f 726 715 700
f 700 630 726
f 726 630 634
f 993 715 635
f 635 125 993
f 635 726 634
f 715 726 635
f 634 636 635
f 642 621 734
f 670 626 734
f 734 626 642
f 1049 664 667
f 1049 668 664
f 716 668 1049
f 1016 1015 1017
f 1019 1045 1017
f 1005 996 994
f 993 991 994
f 994 995 993
f 996 995 994
f 883 880 966
f 883 882 880
f 875 882 967
f 966 968 967
f 967 968 875
f 967 883 966
f 882 883 967
f 881 875 973
f 881 882 875
f 881 973 877
f 877 642 881
f 642 626 881
f 881 626 8
f 927 880 881
f 880 882 881
f 881 965 927
f 8 965 881
f 701 714 180
f 703 702 701
f 701 648 714
f 702 648 701
f 701 19 703
f 180 19 701
f 709 712 707
f 712 710 707
f 707 708 709
f 704 708 707
f 264 710 711
f 713 162 711
f 711 710 713
f 263 161 262
f 263 711 161
f 263 168 264
f 264 711 263
f 94 100 97
f 99 100 94
f 83 96 79
f 82 81 88
f 92 83 82
f 82 88 92
f 173 81 82
f 163 81 173
f 173 84 163
f 84 86 163
f 262 161 266
f 267 86 266
f 152 151 153
f 151 267 153
f 162 152 153
f 267 266 153
f 85 90 87
f 87 90 81
f 87 163 85
f 81 163 87
f 272 90 85
f 89 90 272
f 85 163 272
f 272 163 86
f 272 236 89
f 887 964 739
f 939 879 739
f 739 964 738
f 739 769 939
f 738 769 739
f 932 934 873
f 933 934 932
f 873 886 932
f 886 933 932
f 829 819 820
f 820 819 818
f 219 806 809
f 806 807 809
f 806 231 808
f 808 807 806
f 808 231 244
f 244 803 808
f 816 794 818
f 818 819 816
f 797 794 816
f 816 819 797
f 791 775 789
f 789 826 791
f 791 792 775
f 826 792 791
f 436 469 434
f 435 469 436
f 456 832 828
f 930 951 929
f 929 895 930
f 930 850 951
f 919 921 886
f 886 920 919
f 926 951 950
f 929 951 926
f 926 920 929
f 958 888 959
f 844 944 943
f 943 958 959
f 960 921 923
f 923 924 960
f 923 959 924
f 923 925 959
f 928 926 950
f 920 926 928
f 938 769 750
f 752 916 938
f 916 937 938
f 937 769 938
f 837 758 754
f 759 835 754
f 759 938 750
f 759 756 752
f 752 938 759
f 751 835 759
f 759 750 751
f 830 34 32
f 27 32 30
f 30 32 34
f 30 242 29
f 30 34 242
f 226 24 23
f 29 31 226
f 23 28 226
f 226 28 25
f 226 30 29
f 25 30 226
f 225 239 178
f 178 181 225
f 225 226 31
f 225 181 24
f 24 226 225
f 37 47 49
f 35 42 40
f 21 35 40
f 40 652 21
f 22 652 40
f 918 917 913
f 916 918 913
f 952 768 953
f 269 179 187
f 187 193 269
f 269 193 179
f 127 194 129
f 194 192 129
f 129 257 148
f 129 253 149
f 149 257 129
f 825 33 34
f 825 830 827
f 825 34 830
f 242 33 767
f 767 190 242
f 765 190 767
f 767 825 765
f 33 825 767
f 822 190 771
f 771 190 765
f 185 190 184
f 184 190 218
f 185 242 191
f 191 190 185
f 242 190 191
f 214 810 212
f 218 810 214
f 217 215 213
f 213 214 212
f 216 215 185
f 185 184 216
f 216 184 218
f 218 214 216
f 216 213 215
f 214 213 216
f 233 192 194
f 233 194 270
f 270 248 233
f 900 880 892
f 900 884 880
f 892 893 900
f 893 895 900
f 956 884 900
f 366 308 315
f 315 308 461
f 344 583 359
f 589 324 325
f 344 324 589
f 542 310 309
f 310 294 553
f 503 558 609
f 609 558 557
f 557 573 609
f 598 784 596
f 814 525 596
f 783 812 833
f 833 784 783
f 510 587 579
f 510 507 506
f 506 587 510
f 16 507 508
f 91 93 92
f 5 83 98
f 83 93 98
f 998 1000 121
f 1070 1000 998
f 1001 1070 998
f 998 997 1001
f 998 121 999
f 999 997 998
f 114 117 1054
f 114 1000 107
f 1054 1000 114
f 102 91 92
f 123 976 1054
f 123 977 976
f 1055 413 351
f 418 413 1055
f 351 349 1055
f 1055 985 1053
f 349 348 1055
f 348 985 1055
f 333 493 332
f 333 340 493
f 332 423 333
f 423 340 333
f 345 449 423
f 345 347 346
f 346 449 345
f 461 336 334
f 334 336 423
f 361 461 334
f 334 339 361
f 334 423 339
f 492 347 388
f 388 343 492
f 397 343 388
f 342 365 341
f 365 343 341
f 341 308 342
f 341 343 308
f 308 343 338
f 343 466 338
f 212 810 211
f 810 210 211
f 211 213 212
f 211 210 209
f 234 384 386
f 386 384 493
f 234 240 360
f 240 230 360
f 360 410 234
f 360 230 410
f 224 230 220
f 209 243 220
f 137 133 146
f 111 119 118
f 105 150 111
f 111 150 119
f 977 123 981
f 981 1054 118
f 981 123 1054
f 259 148 149
f 259 160 148
f 147 151 152
f 147 160 151
f 148 160 147
f 147 152 135
f 567 559 564
f 564 558 503
f 502 567 564
f 564 501 502
f 503 501 564
f 614 594 578
f 578 594 581
f 578 1024 614
f 581 1024 578
f 1035 1037 1034
f 1036 1037 1035
f 1034 1037 1077
f 669 716 692
f 690 691 1016
f 689 691 690
f 514 697 687
f 687 695 514
f 697 686 687
f 687 686 685
f 577 695 580
f 696 695 577
f 576 1024 581
f 576 577 1024
f 614 1024 1073
f 1009 1068 1015
f 1008 1007 1009
f 1007 1065 1009
f 1044 1029 1028
f 1050 690 1016
f 580 690 1050
f 1016 1017 1050
f 1050 1017 1074
f 358 1038 357
f 357 1035 1034
f 357 1038 1036
f 1036 1035 357
f 1041 1059 1044
f 1044 1043 1041
f 1042 1059 1041
f 1041 1043 1042
f 1042 1043 445
f 445 444 1042
f 443 444 445
f 445 447 366
f 441 369 326
f 325 324 326
f 326 369 325
f 1060 1059 1040
f 1042 444 1040
f 1040 1059 1042
f 488 318 460
f 460 318 307
f 285 460 307
f 307 313 285
f 284 291 302
f 302 291 278
f 278 277 302
f 302 277 297
f 279 438 278
f 278 291 279
f 279 291 438
f 743 839 747
f 787 789 743
f 743 747 746
f 743 782 787
f 285 281 283
f 293 294 284
f 605 544 610
f 605 610 503
f 503 543 605
f 274 275 276
f 276 277 274
f 780 779 777
f 295 779 780
f 534 537 536
f 536 535 534
f 534 535 533
f 533 601 534
f 533 535 550
f 531 519 14
f 14 550 531
f 498 516 572
f 498 545 516
f 572 611 498
f 497 545 500
f 548 545 497
f 500 499 497
f 499 544 497
f 497 544 548
f 854 855 521
f 856 855 854
f 854 521 13
f 13 856 854
f 408 431 744
f 370 431 371
f 431 374 371
f 481 299 298
f 298 299 300
f 300 781 298
f 298 380 481
f 376 480 483
f 483 482 376
f 481 482 483
f 483 299 481
f 370 299 483
f 483 480 370
f 370 371 745
f 745 371 374
f 745 408 744
f 745 374 431
f 431 408 745
f 301 287 275
f 301 275 438
f 438 380 301
f 478 375 421
f 421 458 478
f 458 426 478
f 478 426 479
f 393 428 391
f 393 391 392
f 393 392 327
f 428 393 407
f 409 416 471
f 452 416 409
f 390 452 409
f 409 471 431
f 409 382 390
f 431 382 409
f 796 794 795
f 795 416 796
f 795 794 797
f 472 416 795
f 795 797 472
f 860 869 861
f 861 869 862
f 861 899 860
f 859 899 865
f 865 864 894
f 893 859 894
f 894 859 865
f 864 850 894
f 850 930 894
f 894 895 893
f 894 930 895
f 862 850 863
f 863 850 864
f 863 864 899
f 863 861 862
f 899 861 863
f 844 843 947
f 947 944 844
f 947 946 944
f 843 948 947
f 947 948 946
f 852 12 13
f 847 846 852
f 521 523 868
f 523 848 868
f 13 521 868
f 868 852 13
f 868 848 847
f 847 852 868
f 845 948 950
f 847 948 845
f 950 846 845
f 845 846 847
f 946 948 949
f 949 867 814
f 949 948 867
f 812 946 949
f 849 846 951
f 951 850 849
f 849 850 862
f 858 527 857
f 856 858 857
f 857 855 856
f 857 527 518
f 518 529 857
f 529 855 857
f 731 653 728
f 728 729 731
f 647 648 649
f 647 655 645
f 649 723 647
f 723 655 647
f 653 648 646
f 646 728 653
f 729 728 646
f 648 647 646
f 646 647 645
f 645 644 646
f 646 644 729
f 650 653 731
f 731 651 650
f 650 651 653
f 732 651 731
f 733 651 732
f 731 627 732
f 627 733 732
f 262 266 164
f 164 84 173
f 173 166 164
f 164 86 84
f 164 266 86
f 680 170 174
f 171 170 680
f 645 655 680
f 680 655 171
f 989 991 124
f 991 125 124
f 124 988 989
f 992 988 124
f 124 125 992
f 637 636 643
f 643 125 637
f 637 635 636
f 125 635 637
f 966 910 969
f 969 968 966
f 909 72 907
f 55 58 54
f 70 60 59
f 616 6 737
f 632 640 634
f 634 630 632
f 630 629 632
f 623 621 670
f 670 734 623
f 623 734 621
f 1048 1004 1005
f 716 1049 1048
f 667 1004 1048
f 1048 1049 667
f 1048 692 716
f 1072 1017 1045
f 1074 1017 1072
f 1065 1026 1064
f 1018 1017 1015
f 1015 1068 1018
f 1019 1017 1018
f 910 901 936
f 936 874 910
f 705 707 710
f 704 707 705
f 705 710 264
f 264 704 705
f 97 77 172
f 172 94 97
f 95 79 96
f 99 94 95
f 94 172 95
f 95 172 79
f 95 103 99
f 95 988 103
f 96 988 95
f 83 79 80
f 80 82 83
f 173 82 80
f 265 266 161
f 265 153 266
f 162 153 265
f 268 86 151
f 268 272 86
f 236 272 268
f 268 151 155
f 155 236 268
f 159 260 89
f 157 260 159
f 92 115 116
f 116 150 92
f 158 260 157
f 158 259 149
f 878 879 887
f 887 739 878
f 878 739 879
f 803 804 805
f 805 804 829
f 829 820 805
f 805 808 803
f 807 808 805
f 219 809 250
f 250 809 807
f 818 794 817
f 794 439 817
f 817 439 440
f 793 783 598
f 793 785 783
f 783 785 786
f 788 783 786
f 786 826 788
f 457 436 453
f 832 456 453
f 453 456 457
f 453 297 832
f 434 297 453
f 453 436 434
f 890 888 957
f 888 958 957
f 823 890 957
f 957 958 823
f 844 943 942
f 959 925 942
f 942 943 959
f 945 943 944
f 958 943 945
f 944 946 945
f 945 946 811
f 945 811 823
f 823 958 945
f 842 843 844
f 950 948 842
f 842 948 843
f 921 919 922
f 922 942 925
f 922 919 920
f 920 928 922
f 922 923 921
f 925 923 922
f 755 759 754
f 756 759 755
f 754 758 755
f 758 756 755
f 25 28 26
f 26 28 27
f 26 30 25
f 27 30 26
f 830 32 954
f 954 917 952
f 2 32 27
f 27 28 2
f 917 954 2
f 2 954 32
f 239 225 189
f 176 239 189
f 189 225 31
f 37 49 39
f 54 58 39
f 39 58 62
f 42 28 41
f 41 40 42
f 41 28 23
f 23 22 41
f 22 40 41
f 912 911 916
f 916 913 912
f 757 768 758
f 757 953 768
f 128 148 127
f 127 129 128
f 128 129 148
f 760 800 762
f 762 761 754
f 754 760 762
f 758 837 763
f 754 761 763
f 763 837 754
f 961 895 929
f 961 900 895
f 929 920 961
f 956 900 961
f 886 956 961
f 961 920 886
f 366 315 451
f 495 315 461
f 495 451 315
f 361 314 495
f 495 461 361
f 441 318 486
f 486 369 441
f 318 319 486
f 325 369 486
f 358 357 356
f 344 359 353
f 353 359 358
f 358 356 353
f 562 582 561
f 559 562 561
f 557 558 561
f 561 564 559
f 558 564 561
f 592 583 344
f 344 589 592
f 560 573 557
f 467 560 589
f 542 309 282
f 282 281 292
f 312 283 281
f 312 460 285
f 285 283 312
f 503 573 608
f 608 553 294
f 608 512 503
f 513 512 608
f 294 600 608
f 608 543 513
f 608 600 543
f 504 573 503
f 503 609 504
f 504 609 573
f 595 596 525
f 524 550 595
f 595 525 524
f 595 550 598
f 598 596 595
f 579 696 574
f 574 510 579
f 507 510 574
f 574 508 507
f 696 577 574
f 16 508 18
f 18 613 562
f 18 566 16
f 562 566 18
f 93 91 104
f 91 102 104
f 104 102 107
f 118 117 112
f 117 114 112
f 112 114 107
f 107 102 112
f 984 980 418
f 418 1055 984
f 1053 980 984
f 984 1055 1053
f 347 345 465
f 465 388 347
f 423 336 465
f 465 345 423
f 465 336 397
f 397 388 465
f 335 336 461
f 461 466 335
f 397 336 335
f 335 343 397
f 335 466 343
f 461 308 362
f 362 338 461
f 308 338 362
f 337 466 461
f 461 338 337
f 337 338 466
f 130 131 149
f 245 224 221
f 224 220 221
f 221 220 243
f 146 254 237
f 237 137 146
f 237 254 234
f 237 138 137
f 352 145 237
f 145 138 237
f 149 131 139
f 137 138 139
f 139 138 145
f 139 131 133
f 133 137 139
f 387 385 494
f 234 386 494
f 494 385 234
f 350 433 494
f 433 387 494
f 494 493 350
f 494 386 493
f 105 111 106
f 92 105 106
f 106 102 92
f 106 112 102
f 106 111 118
f 118 112 106
f 977 981 979
f 978 977 979
f 414 978 979
f 979 119 414
f 160 259 156
f 157 159 156
f 156 158 157
f 259 158 156
f 156 159 89
f 156 89 155
f 155 160 156
f 127 148 238
f 148 147 238
f 135 127 238
f 238 147 135
f 208 211 209
f 213 211 222
f 211 208 222
f 222 208 206
f 222 248 217
f 217 213 222
f 1025 1037 614
f 1025 1077 1037
f 1045 1077 1025
f 614 1073 1025
f 1025 1072 1045
f 1074 1072 1025
f 694 691 689
f 694 692 691
f 689 721 694
f 669 692 694
f 694 721 669
f 689 690 688
f 685 689 688
f 580 695 688
f 688 690 580
f 688 687 685
f 695 687 688
f 591 576 581
f 591 581 511
f 508 574 591
f 511 613 591
f 613 18 591
f 591 18 508
f 580 1050 1076
f 1076 1050 1074
f 1074 1025 1076
f 1076 1025 1073
f 1071 1003 1008
f 1071 991 1003
f 1005 994 1071
f 1071 994 991
f 1027 1028 1026
f 1027 1026 974
f 1044 1028 1027
f 974 1021 1027
f 1027 1058 1044
f 1027 1021 1058
f 1039 357 1034
f 354 357 1039
f 1023 1043 1022
f 1023 445 1043
f 447 445 1023
f 1023 430 342
f 1023 1022 430
f 1023 342 398
f 398 447 1023
f 446 445 366
f 443 445 446
f 366 451 446
f 446 451 443
f 448 444 441
f 441 326 448
f 489 488 460
f 489 309 411
f 313 307 306
f 490 318 441
f 490 307 318
f 778 741 742
f 742 741 472
f 472 798 742
f 742 798 839
f 839 743 742
f 746 782 834
f 834 743 746
f 782 743 834
f 470 293 437
f 437 297 470
f 437 302 297
f 284 302 437
f 437 293 284
f 540 470 539
f 540 293 470
f 539 541 540
f 294 293 540
f 540 541 543
f 540 600 294
f 543 600 540
f 604 605 543
f 543 541 604
f 604 537 602
f 602 544 604
f 544 605 604
f 275 287 296
f 296 276 275
f 296 287 295
f 290 276 832
f 277 276 290
f 832 297 290
f 297 277 290
f 295 780 831
f 828 832 831
f 831 780 777
f 831 777 828
f 570 536 537
f 539 538 570
f 538 536 570
f 550 535 549
f 535 536 549
f 435 550 549
f 519 601 532
f 532 14 519
f 601 533 532
f 550 14 532
f 611 545 496
f 496 498 611
f 545 498 496
f 725 630 673
f 725 629 630
f 622 629 725
f 725 682 622
f 673 682 725
f 735 629 622
f 380 298 288
f 288 298 781
f 288 781 295
f 295 287 288
f 288 301 380
f 287 301 288
f 370 745 838
f 838 300 370
f 779 300 838
f 778 779 838
f 838 745 778
f 740 744 463
f 740 745 744
f 463 741 740
f 740 741 778
f 778 745 740
f 479 373 477
f 477 478 479
f 373 375 477
f 375 478 477
f 399 393 327
f 404 406 464
f 464 428 404
f 428 407 404
f 400 427 401
f 401 399 400
f 401 407 393
f 393 399 401
f 475 427 400
f 327 429 475
f 429 459 475
f 432 401 427
f 898 899 896
f 899 859 896
f 893 898 896
f 896 859 893
f 813 833 812
f 812 949 813
f 813 949 814
f 814 596 813
f 813 596 784
f 784 833 813
f 846 849 851
f 851 849 862
f 866 853 851
f 851 853 12
f 851 862 866
f 12 852 851
f 851 852 846
f 165 263 262
f 262 164 165
f 168 263 165
f 167 168 165
f 165 166 167
f 165 164 166
f 174 639 175
f 175 680 174
f 175 639 645
f 645 680 175
f 972 72 909
f 909 71 972
f 935 71 909
f 909 968 935
f 968 969 935
f 935 874 70
f 935 969 910
f 910 874 935
f 909 907 68
f 616 719 615
f 615 48 616
f 719 48 615
f 47 616 51
f 51 48 47
f 616 48 51
f 65 48 719
f 642 941 65
f 65 719 642
f 50 49 47
f 47 48 50
f 54 39 50
f 50 39 49
f 681 737 625
f 625 737 6
f 625 6 7
f 625 7 654
f 654 681 625
f 616 737 617
f 642 616 617
f 633 640 638
f 640 737 638
f 638 737 681
f 627 633 638
f 638 681 627
f 1047 1048 1005
f 691 692 693
f 1032 1031 1028
f 1067 1009 1065
f 1065 1064 1067
f 1068 1009 1067
f 1067 1018 1068
f 1030 1064 1026
f 1052 1064 1030
f 1030 1031 1052
f 1026 1028 1030
f 1028 1031 1030
f 1066 1045 1019
f 1066 1067 1064
f 1066 1052 1045
f 1066 1064 1052
f 1019 1018 1066
f 1018 1067 1066
f 902 936 901
f 903 936 902
f 70 874 970
f 874 936 970
f 173 80 78
f 78 80 79
f 78 77 173
f 79 172 78
f 78 172 77
f 162 265 154
f 154 265 161
f 154 711 162
f 161 711 154
f 150 116 142
f 433 413 142
f 142 413 414
f 414 119 142
f 119 150 142
f 807 805 840
f 840 805 820
f 417 794 796
f 417 439 794
f 796 406 417
f 406 439 417
f 821 820 818
f 818 817 821
f 476 249 219
f 219 250 476
f 476 432 247
f 597 793 598
f 598 550 597
f 597 550 435
f 457 785 597
f 785 793 597
f 435 436 597
f 597 436 457
f 790 785 457
f 790 786 785
f 457 456 790
f 826 786 790
f 828 826 790
f 790 456 828
f 962 922 928
f 942 922 962
f 962 928 950
f 950 842 962
f 844 942 962
f 962 842 844
f 43 28 42
f 62 45 43
f 43 39 62
f 43 42 37
f 37 39 43
f 46 45 62
f 186 188 176
f 176 189 186
f 186 31 188
f 186 189 31
f 905 912 913
f 911 912 905
f 906 940 905
f 940 911 905
f 903 902 905
f 905 901 906
f 905 902 901
f 953 757 3
f 830 954 3
f 3 758 830
f 3 757 758
f 952 953 3
f 3 954 952
f 758 763 764
f 765 825 764
f 764 771 765
f 761 762 770
f 770 763 761
f 770 762 800
f 770 800 822
f 822 771 770
f 442 444 443
f 443 451 442
f 441 444 442
f 442 490 441
f 317 314 323
f 317 495 314
f 313 11 317
f 11 316 317
f 316 495 317
f 323 304 317
f 317 304 313
f 488 489 321
f 325 486 320
f 320 486 319
f 320 589 325
f 354 353 355
f 355 353 356
f 355 357 354
f 355 356 357
f 367 324 344
f 367 326 324
f 565 561 582
f 565 582 358
f 358 359 565
f 565 359 583
f 583 561 565
f 588 592 589
f 589 560 588
f 583 592 588
f 588 560 557
f 557 561 588
f 588 561 583
f 412 467 411
f 484 292 542
f 542 282 484
f 484 282 292
f 311 312 281
f 281 282 311
f 311 282 309
f 460 312 311
f 311 489 460
f 309 489 311
f 554 608 573
f 553 608 554
f 573 560 554
f 310 553 554
f 5 98 101
f 101 104 5
f 101 98 93
f 93 104 101
f 5 104 108
f 113 5 108
f 108 1000 113
f 108 104 107
f 107 1000 108
f 256 247 246
f 256 221 243
f 246 221 256
f 256 476 247
f 256 243 249
f 249 476 256
f 427 475 424
f 424 432 427
f 424 459 234
f 424 475 459
f 149 253 255
f 255 130 149
f 253 130 255
f 245 221 425
f 425 221 246
f 246 247 425
f 425 424 245
f 247 432 425
f 432 424 425
f 232 385 387
f 387 237 232
f 234 385 232
f 232 237 234
f 143 387 352
f 352 237 143
f 143 237 387
f 149 139 258
f 258 139 145
f 258 158 149
f 260 158 258
f 122 981 118
f 122 979 981
f 118 119 122
f 119 979 122
f 205 222 206
f 205 233 248
f 248 222 205
f 202 230 203
f 206 208 200
f 200 198 206
f 133 131 252
f 131 130 252
f 252 130 253
f 576 591 575
f 575 591 574
f 577 576 575
f 575 574 577
f 580 1076 1051
f 1051 577 580
f 1024 577 1051
f 1060 354 1061
f 354 1039 1061
f 1029 1060 1061
f 1061 1028 1029
f 1061 1032 1028
f 1061 1039 1034
f 1034 1032 1061
f 468 306 307
f 307 490 468
f 468 316 11
f 468 490 316
f 776 775 778
f 778 742 776
f 789 775 776
f 776 743 789
f 776 742 743
f 286 296 295
f 276 296 286
f 295 831 286
f 832 276 372
f 372 831 832
f 276 286 372
f 372 286 831
f 537 604 603
f 603 570 537
f 603 604 541
f 603 541 539
f 539 570 603
f 607 536 538
f 607 549 536
f 607 538 435
f 435 549 607
f 606 533 550
f 550 532 606
f 606 532 533
f 622 621 620
f 620 735 622
f 631 632 629
f 402 404 407
f 407 401 402
f 327 475 395
f 395 475 400
f 395 399 327
f 400 399 395
f 422 439 406
f 941 909 891
f 909 68 891
f 891 68 907
f 908 65 941
f 48 65 66
f 72 972 66
f 65 908 66
f 66 907 72
f 66 908 907
f 66 972 71
f 1005 1071 1010
f 1010 1047 1005
f 1008 1009 1010
f 1010 1071 1008
f 1048 1047 1013
f 692 1048 1013
f 1013 693 692
f 1052 1031 1033
f 1031 1032 1033
f 1045 1052 1033
f 1033 1032 1034
f 1033 1077 1045
f 1034 1077 1033
f 971 936 903
f 971 970 936
f 971 60 70
f 70 970 971
f 915 913 917
f 915 46 74
f 140 145 352
f 352 433 140
f 433 142 140
f 145 140 144
f 841 476 250
f 841 250 807
f 807 840 841
f 455 817 440
f 432 476 455
f 45 46 44
f 28 43 44
f 44 43 45
f 44 2 28
f 44 46 2
f 917 2 1
f 2 46 1
f 1 915 917
f 46 915 1
f 73 46 62
f 74 46 73
f 62 61 73
f 827 758 824
f 758 764 824
f 824 825 827
f 824 764 825
f 766 764 763
f 763 770 766
f 771 764 766
f 766 770 771
f 491 442 451
f 490 442 491
f 316 490 491
f 491 495 316
f 451 495 491
f 368 319 318
f 368 321 319
f 318 488 368
f 488 321 368
f 487 489 411
f 487 321 489
f 411 467 487
f 487 467 589
f 344 353 485
f 485 367 344
f 1060 1040 485
f 485 354 1060
f 485 353 354
f 420 309 310
f 411 309 420
f 310 554 420
f 560 467 556
f 467 412 556
f 556 554 560
f 556 420 554
f 245 424 419
f 419 424 234
f 203 240 204
f 204 202 203
f 240 133 204
f 133 252 204
f 198 202 204
f 204 252 198
f 201 202 198
f 198 200 201
f 230 202 201
f 207 208 209
f 207 200 208
f 209 220 207
f 207 220 230
f 197 252 253
f 1075 1076 1073
f 1075 1051 1076
f 1075 1073 1024
f 1024 1051 1075
f 379 468 11
f 306 468 379
f 379 11 313
f 313 306 379
f 642 617 618
f 624 618 617
f 735 620 624
f 620 618 624
f 624 737 640
f 624 617 737
f 403 402 401
f 404 402 403
f 406 404 403
f 403 422 406
f 440 439 473
f 439 422 473
f 401 432 473
f 69 4 53
f 69 66 71
f 70 59 69
f 59 4 69
f 69 935 70
f 71 935 69
f 64 908 941
f 48 66 52
f 52 50 48
f 66 69 52
f 54 50 52
f 52 69 53
f 53 56 52
f 52 55 54
f 52 56 55
f 1011 1009 1015
f 1011 1010 1009
f 1047 1010 1011
f 1011 1013 1047
f 1014 1015 1016
f 1014 1011 1015
f 1016 691 1014
f 691 693 1014
f 904 971 903
f 903 905 904
f 241 142 116
f 241 116 115
f 145 144 241
f 115 89 241
f 89 260 241
f 241 258 145
f 260 258 241
f 454 841 840
f 454 840 820
f 820 821 454
f 454 821 817
f 476 841 454
f 817 455 454
f 454 455 476
f 75 905 913
f 913 915 75
f 75 904 905
f 61 904 75
f 589 320 322
f 322 487 589
f 322 320 319
f 319 321 322
f 321 487 322
f 450 485 1040
f 450 1040 444
f 444 448 450
f 450 448 326
f 326 367 450
f 367 485 450
f 555 412 411
f 411 420 555
f 555 556 412
f 420 556 555
f 235 419 234
f 234 410 235
f 245 419 235
f 410 224 235
f 235 224 245
f 223 201 200
f 200 207 223
f 230 201 223
f 223 207 230
f 233 205 196
f 192 233 196
f 196 129 192
f 253 129 196
f 196 197 253
f 252 197 199
f 206 198 199
f 198 252 199
f 197 196 199
f 199 205 206
f 199 196 205
f 619 620 621
f 619 618 620
f 619 621 642
f 642 618 619
f 640 632 736
f 736 624 640
f 632 631 736
f 736 631 629
f 629 735 736
f 735 624 736
f 440 473 474
f 474 473 432
f 474 455 440
f 432 455 474
f 405 403 401
f 401 473 405
f 422 403 405
f 405 473 422
f 907 908 67
f 908 64 67
f 67 64 941
f 941 891 67
f 67 891 907
f 1013 1011 1012
f 1011 1014 1012
f 693 1013 1012
f 1012 1014 693
f 971 904 63
f 63 904 61
f 63 61 62
f 142 241 141
f 141 241 144
f 141 140 142
f 141 144 140
f 914 915 74
f 914 75 915
f 74 73 914
f 914 73 61
f 61 75 914
f 60 971 57
f 971 63 57
f 57 59 60
f 57 4 59
f 53 4 57
f 62 58 57
f 57 63 62
f 57 56 53
f 58 55 57
f 55 56 57

