# https://github.com/mikedh/trimesh
v 0.00618033 0.08654203 0.01004527
v -0.01530989 0.08216891 0.05679646
v 0.01753742 0.07742705 0.09258696
v 0.01750708 0.07748547 0.09262712
v 0.00965382 0.07724105 0.12208852
v 0.00969374 0.07724063 0.12208117
v -0.01858388 0.07781077 -0.11095508
v -0.01854786 0.07785577 -0.11099989
v -0.01433485 0.07587342 -0.12294535
v -0.01431554 0.07592088 -0.12293021
v -0.01983264 0.07581098 -0.10941248
v -0.01982936 0.07581142 -0.10946325
v 0.01859128 0.07444937 -0.01580433
v 0.01736974 0.07321072 0.11539221
v 0.01773569 0.06894562 -0.06672922
v 0.02004685 0.06441958 -0.01466331
v 0.02004635 0.06441973 -0.01467832
v -0.02177456 0.06175067 -0.10080436
v -0.02176256 0.06199569 -0.10081352
v 0.01946350 -0.07089618 0.12211371
v -0.01880489 -0.07440822 0.11244120
v -0.01883648 -0.07433828 0.11241643
v -0.01142636 -0.07620155 -0.12070243
v -0.01425107 -0.07619530 -0.12034135
v -0.01426390 -0.07617040 -0.12035141
v 0.02178972 -0.08199633 0.02482159
v -0.01419901 -0.08230654 -0.10759352
v 0.01494050 0.06347269 -0.11841274
v 0.01560498 0.05745290 -0.11726176
v 0.01375925 0.03550699 -0.12084890
v 0.01365863 0.07549330 -0.11878740
v 0.01132912 0.07756382 -0.12317899
v 0.01321578 0.07750194 -0.11910317
v 0.01896357 -0.06691016 0.12426326
v 0.01616253 0.07693441 -0.06345423
v 0.01624058 0.07691365 -0.06138071
v -0.01625948 0.07561221 0.11619659
v -0.01659729 0.07361111 0.11671650
v -0.01591145 0.07559787 0.11725427
v -0.01575674 0.07358149 0.11874633
v -0.01666847 0.07331576 0.11666069
v -0.01704083 0.07161958 0.11636871
v -0.01730696 0.07364339 0.11424141
v -0.01753554 0.07365383 0.11343945
v -0.01695247 0.07564315 0.11383939
v -0.01750454 0.07567411 0.11130245
v -0.01572205 0.07761198 0.11556126
v -0.01599720 0.07762407 0.11464565
v -0.01639354 0.07764293 0.11317663
v -0.01499268 0.07758103 0.11787206
v -0.01504493 0.07738100 0.11793369
v -0.01443517 0.07958081 0.11721111
v -0.01376567 0.07755010 0.11954814
v -0.01805266 0.07781016 0.09778553
v -0.01685302 0.07973558 0.10408958
v -0.01653958 0.07970462 0.10693089
v -0.01736422 0.07770484 0.10793255
v -0.01799347 0.07622480 0.10545618
v -0.01811938 0.07573602 0.10560452
v -0.01726135 0.07769748 0.10857165
v -0.01611362 0.07967516 0.10947156
v -0.01609068 0.07967366 0.10959939
v -0.01671344 0.08001004 0.10391844
v -0.01731189 0.07634014 0.11107343
v -0.01674772 0.07766310 0.11151579
v -0.01637295 0.08004224 0.10672681
v -0.01570187 0.07929312 0.11233580
v -0.01467355 0.08164250 0.11108311
v -0.01546792 0.07963819 0.11251924
v -0.01568568 0.08173984 0.10218285
v -0.01566539 0.08173537 0.10262494
v -0.01332054 0.08158060 0.11583956
v -0.01240639 0.08154965 0.11791469
v -0.01218184 0.08190197 0.11763712
v -0.01443582 0.08192791 0.11078706
v -0.01617079 -0.06014166 -0.12073232
v -0.01721857 -0.06013471 -0.12012623
v -0.01989006 0.07578001 -0.10609816
v -0.01945546 0.07673075 -0.10662865
v -0.01873857 0.07777980 -0.10751671
v -0.01785629 0.07879179 -0.10537480
v -0.01820179 0.07834713 -0.10818712
v -0.01980603 0.07586944 -0.10944495
v -0.01889883 0.07696179 -0.11381651
v -0.01948934 0.07585330 -0.11427951
v -0.01764276 0.07877571 -0.11537310
v -0.01916884 0.07587129 -0.11656966
v -0.01779388 0.07786879 -0.11803303
v -0.01799833 0.07750343 -0.11819333
v -0.01912986 0.07587293 -0.11679098
v -0.01652097 0.07984401 -0.11703497
v -0.01659973 0.07984155 -0.11667672
v -0.01925460 0.07567296 -0.11663690
v -0.01870520 0.07588646 -0.11874758
v -0.01729522 0.07787274 -0.11908085
v -0.01563440 0.07985087 -0.11888131
v -0.01675709 0.07809816 -0.11976157
v -0.01686454 0.07787481 -0.11984582
v -0.01770209 0.07589103 -0.12050253
v -0.02052724 0.07380062 -0.10746903
v -0.02050514 0.07381120 -0.10860486
v -0.02107578 0.07181142 -0.10792716
v -0.02016410 0.07439112 -0.11226715
v -0.02033344 0.07384537 -0.11239993
v -0.02014474 0.07386594 -0.11479342
v -0.02002525 0.07387314 -0.11569908
v -0.01983260 0.07388409 -0.11709011
v -0.02024336 0.07189193 -0.11741221
v -0.02047860 0.07187337 -0.11517098
v -0.02098254 0.06788169 -0.11545041
v -0.01957503 0.07190307 -0.11942964
v -0.01931661 0.07389823 -0.11922699
v -0.02039796 0.06790482 -0.11861513
v -0.01994294 0.06790983 -0.11971818
v -0.02082892 0.06590272 -0.11787143
v -0.02066767 0.06590505 -0.11832126
v -0.01833085 -0.06213737 -0.11845691
v -0.01817709 -0.06814111 -0.11833648
v -0.01809671 -0.07014293 -0.11827349
v -0.01659357 -0.07414866 -0.11963649
v -0.01778126 -0.07414960 -0.11802625
v -0.01627164 -0.07615523 -0.11938412
v -0.01511953 -0.07215311 -0.12102218
v -0.01892865 -0.07015086 -0.11638434
v -0.02003727 0.06191096 -0.11979226
v -0.02006253 0.06391170 -0.11981203
v -0.02005893 0.06591187 -0.11980916
v -0.01908520 0.06591701 -0.12158714
v -0.02061227 0.05990577 -0.11854228
v -0.02065083 0.06190553 -0.11844298
v -0.01903859 0.06791634 -0.12155056
v -0.01883885 0.06991265 -0.12139392
v -0.01739224 0.06590803 -0.12280123
v -0.01736115 0.06790766 -0.12277682
v -0.02087878 0.05990298 -0.11791065
v -0.01861006 0.07190839 -0.12121450
v -0.01935737 0.07190437 -0.11984211
v -0.01838574 0.07361165 -0.12103859
v -0.01761299 0.07190441 -0.12206698
v -0.01833793 0.07390328 -0.12100109
v -0.01952947 -0.07216357 -0.11431402
v -0.01936979 -0.07416695 -0.11418887
v -0.01674162 -0.07804834 -0.11721122
v 0.01047803 0.08203520 -0.11873955
v 0.01082518 0.08261496 -0.11592593
v 0.01116686 0.08274487 -0.11311662
v 0.01192678 0.08147046 -0.11411781
v 0.01203692 0.08078364 -0.11751735
v 0.01295938 0.07948323 -0.11679413
v 0.01012251 0.08076629 -0.12155975
v 0.01072050 0.07956356 -0.12235260
v 0.00891442 0.08289808 -0.11996546
v 0.01240472 0.07753288 -0.12130979
v 0.00832668 0.08159423 -0.12249036
v 0.00855225 0.08108275 -0.12279088
v 0.01054854 0.08462320 -0.08310423
v 0.01176854 0.08347103 -0.08468915
v 0.01205004 0.08319152 -0.08505520
v 0.01298692 0.08218574 -0.08627535
v 0.01366994 0.08119180 -0.08717142
v 0.01347936 0.08123043 -0.09097214
v 0.01231324 0.08272126 -0.09188639
v 0.01252496 0.08139488 -0.10696898
v 0.01339063 0.08023464 -0.10629029
v 0.01419491 0.08004628 -0.08786971
v 0.01382437 0.07936911 -0.10595024
v 0.01109340 0.08388652 -0.09030133
v 0.01021018 0.08476640 -0.08591093
v 0.00963842 0.08522219 -0.08517025
v 0.00974491 0.08520717 -0.08373429
v 0.00898766 0.08571097 -0.08432799
v 0.00864837 0.08577753 -0.08713543
v 0.00830881 0.08582151 -0.08994309
v 0.01044938 0.08347018 -0.11218333
v 0.01023384 0.08348871 -0.11384813
v 0.00994673 0.08388613 -0.11153180
v 0.00960753 0.08395982 -0.11433917
v 0.00838431 0.08484760 -0.11275677
v 0.00715507 0.08523980 -0.11117910
v 0.00742152 0.08636640 -0.08555589
v 0.00803974 0.08447939 -0.11556836
v 0.00810241 0.08356302 -0.11891311
v 0.00708116 0.08634461 -0.08836417
v 0.00769206 0.08385651 -0.11838238
v 0.00585026 0.08660061 -0.08678781
v 0.00592464 0.08553439 -0.10960237
v 0.00611822 0.08387807 -0.11961634
v -0.01993321 0.07540841 -0.06715023
v -0.02034240 0.07409548 -0.06666124
v -0.02052325 0.07341203 -0.06680305
v 0.01738378 0.07697267 -0.01420957
v 0.01632875 0.07945043 0.09170330
v 0.01382379 0.08339527 0.10071494
v 0.01514544 0.08137680 0.10094130
v 0.01299336 0.08424704 0.10179547
v 0.01379762 0.08337924 0.10242602
v 0.01277502 0.08386831 0.11178999
v 0.01465845 0.08126496 0.11326662
v 0.01177135 0.08523440 0.10337882
v 0.01310313 0.08288248 0.11458865
v 0.01440518 0.08124565 0.11560947
v 0.01607719 0.07930968 0.10675464
v 0.01708071 0.07728972 0.10754139
v 0.01714574 0.07730318 0.10605081
v 0.01854358 0.07540643 0.09343973
v 0.01652960 0.07722771 0.11473359
v 0.01678443 0.07724123 0.11299379
v 0.01790099 0.07524908 0.11072591
v 0.01754789 0.07523174 0.11299050
v 0.01775065 0.07524150 0.11171131
v 0.01961588 0.07128775 0.10444608
v -0.01856535 0.07794906 0.07705212
v -0.01924729 0.07602765 0.07651742
v -0.01932594 0.07388326 0.09170429
v -0.01874712 0.07584785 0.09469959
v -0.01799735 0.07779772 0.09901683
v -0.01848104 0.07579405 0.09999105
v -0.01792585 0.07778338 0.10042639
v -0.01850315 0.07579795 0.09961183
v -0.01781305 0.07776676 0.10202284
v -0.01891578 0.07709913 0.07423593
v -0.01854175 0.07801447 0.07702366
v 0.01159511 0.07922779 0.12103053
v 0.01363723 0.07721170 0.12009016
v 0.01311295 0.07922224 0.11967915
v 0.01208968 0.07721783 0.12141825
v 0.01445669 0.07922012 0.11819126
v 0.01597124 0.07721440 0.11683724
v 0.01538945 0.07922607 0.11638114
v 0.01878076 0.06118156 0.11649825
v 0.01847430 -0.08424709 0.05526070
v 0.01830808 -0.08436552 0.05513037
v 0.01144190 -0.08567539 0.05737129
v 0.01404009 -0.08536293 0.06703266
v 0.01953058 -0.06889726 0.12216634
v 0.01871578 -0.07488196 0.12152738
v 0.01730795 -0.07487858 0.12296502
v 0.01928871 -0.07686918 0.11943510
v 0.01902261 -0.07756621 0.11922645
v 0.01779436 -0.07709181 0.12080491
v 0.01986873 0.04318232 0.11480946
v -0.00712341 -0.07854464 0.11905840
v -0.01060712 -0.07546649 0.12140996
v -0.00831469 -0.07654528 0.12066586
v -0.01116832 -0.07849307 0.11880801
v -0.01098718 -0.07875201 0.11857049
v -0.00818607 -0.07932915 0.11822522
v -0.01422266 -0.07646242 0.11951272
v -0.01498397 -0.07502340 0.12051979
v 0.01389465 -0.08295657 0.11266440
v 0.01547622 -0.08234287 0.11390442
v 0.01471641 -0.06687526 0.12601618
v 0.01650075 -0.06689635 0.12595225
v 0.01746732 -0.06690504 0.12563156
v 0.01706278 -0.08131872 0.11514836
v 0.01742543 -0.07946352 0.11797417
v 0.01620343 -0.07847552 0.11955753
v 0.01654241 -0.07883297 0.11911622
v 0.01824421 -0.07884889 0.11861613
v 0.01657506 -0.07588197 0.12239039
v 0.01670551 -0.08273087 0.11232680
v 0.01853712 -0.07090225 0.12392882
v 0.02182478 -0.07553248 -0.02369621
v 0.01462721 -0.08659896 0.00141582
v 0.01317946 -0.08660061 0.01298787
v 0.02178612 -0.08199991 0.02481877
v 0.02054012 -0.08298618 0.02638326
v 0.01488251 -0.08271960 -0.10004109
v 0.01263965 -0.08300497 -0.10942387
v 0.01422035 -0.08246283 -0.10818453
v 0.01546282 -0.08176720 -0.10975180
v 0.01670862 -0.08065811 -0.10877503
v 0.01354492 -0.08207064 -0.11379693
v 0.01197175 -0.08199362 -0.11503035
v 0.01374553 -0.08054104 -0.11725631
v 0.01580402 -0.08167677 -0.10694286
v 0.01678704 -0.08066483 -0.10817129
v 0.01365462 -0.08344285 -0.10100382
v -0.01142497 -0.04017490 -0.12304308
v -0.01369155 -0.04215331 -0.12244339
v -0.01488002 -0.04214378 -0.12192755
v -0.00631435 -0.05023550 -0.12332987
v -0.01716785 -0.06213594 -0.12008650
v -0.00970618 -0.06020342 -0.12249546
v -0.01318473 -0.07017135 -0.12155043
v -0.01331071 -0.07217111 -0.12143987
v -0.01357369 -0.07417088 -0.12115457
v -0.01488458 -0.07415796 -0.12083800
v 0.01026201 -0.07244919 -0.12233600
v 0.01254117 -0.07447986 -0.12205199
v 0.01211844 -0.07647963 -0.12156294
v 0.01393833 -0.07651055 -0.12064304
v 0.01230604 -0.07247351 -0.12239234
v 0.01133840 -0.07814214 -0.12060970
v 0.01289446 -0.07962580 -0.11938972
v 0.01115502 -0.07847942 -0.12038427
v 0.01126236 -0.06445013 -0.12341140
v -0.00989737 -0.07854110 -0.11946936
v -0.01019941 -0.07822623 -0.11970617
v -0.01270773 -0.07872594 -0.11913137
v -0.01234205 -0.07820133 -0.11958464
v -0.01308328 -0.07819384 -0.11942580
v -0.01550753 -0.07804166 -0.11878507
v -0.01542899 -0.07817202 -0.11872349
v -0.01239315 -0.08082406 -0.11634334
v -0.01345171 -0.08021112 -0.11717328
v -0.01363162 -0.08119083 -0.11477293
v 0.01061960 -0.02442397 -0.12483023
v 0.01164104 -0.05645108 -0.12369390
v 0.01352088 -0.05848175 -0.12290059
v 0.01087543 -0.01042564 -0.12480568
v -0.00975445 0.00581963 -0.12402095
v -0.00930023 0.02181773 -0.12419931
v -0.01251696 0.06386055 -0.12406172
v -0.00911848 0.07781102 -0.12302772
v 0.01006433 0.07159547 -0.12495726
v 0.00840620 0.07162640 -0.12608346
v 0.00809164 0.07362615 -0.12563214
v 0.00974078 0.07734300 -0.12440053
v 0.00969355 0.07759474 -0.12433398
v 0.01088014 0.07757242 -0.12350723
v 0.00678582 0.07762859 -0.12417590
v 0.00435455 0.07765654 -0.12400651
v 0.00996558 0.07559499 -0.12473105
v 0.00812009 0.07351208 -0.12567129
v -0.01375854 0.06987379 -0.12379220
v -0.01500188 0.06988581 -0.12346845
v -0.01501887 0.07188639 -0.12348172
v -0.01705118 0.07190204 -0.12253370
v -0.01676728 0.07389670 -0.12231108
v -0.01484325 0.07388317 -0.12334399
v -0.01628731 0.07588751 -0.12193472
v -0.01376152 0.07387331 -0.12368815
v -0.01429441 0.07587305 -0.12295836
v -0.01247498 0.07386092 -0.12402861
v -0.01557677 0.07787378 -0.12137759
v -0.01373239 0.07187355 -0.12377543
v -0.00846395 0.05181415 -0.12451412
v -0.01423808 -0.07617066 -0.12035729
v 0.01075491 -0.01842469 -0.12485245
v -0.00732193 -0.06423254 -0.12253269
v 0.01143822 0.07556406 -0.12336826
v 0.01052135 -0.02642373 -0.12475505
v 0.01262310 -0.07397345 -0.12214379
v 0.01420045 -0.07370619 -0.12090708
v -0.01146461 -0.07620113 -0.12069809
v -0.01144354 -0.07624344 -0.12068157
v -0.01114832 -0.07993413 -0.11790876
v -0.01151484 -0.08023204 -0.11744874
v -0.01152370 -0.03217043 -0.12328495
v 0.01280750 -0.07248009 -0.12234156
v 0.01239616 -0.02445489 -0.12385507
v -0.00682143 0.05179576 -0.12467932
v -0.00735975 -0.06623361 -0.12239750
v -0.01114379 0.07584217 -0.12373574
v 0.01302936 -0.06848057 -0.12252429
v -0.01890413 0.04367714 0.11236581
v -0.01945598 0.04371227 0.10939171
v -0.01877115 0.05367671 0.11236662
v -0.01917731 0.05770719 0.10974383
v -0.01907766 0.06170671 0.10971697
v -0.01906003 0.06202712 0.10970253
v -0.01904162 0.06773127 0.10717564
v -0.01923334 0.06573719 0.10677472
v -0.01910208 0.06773696 0.10665742
v -0.01861643 0.06970576 0.10932919
v -0.01849192 0.06969642 0.11014810
v -0.01807643 0.07167457 0.11193163
v -0.01829619 0.07169282 0.11030160
v -0.01787775 0.07367434 0.11172835
v -0.01802461 0.07368772 0.11051457
v -0.01795652 0.06966162 0.11310931
v -0.01782182 0.07165921 0.11321495
v -0.01756691 0.07567896 0.11087347
v -0.01713611 0.06962122 0.11629397
v -0.01999030 0.05376958 0.10419835
v -0.02003573 0.05377342 0.10385451
v -0.02032037 0.05380054 0.10137826
v -0.02025120 0.05580030 0.10134016
v -0.01980540 0.06176984 0.10403526
v -0.01954341 0.06576815 0.10392909
v -0.01956102 0.06981456 0.09914419
v -0.01962977 0.06982960 0.09765734
v -0.01940040 0.07182937 0.09741492
v -0.02063587 0.06189247 0.09225795
v -0.01908162 0.07382990 0.09697871
v -0.01930363 0.07180974 0.09934603
v -0.02106008 0.05795487 0.08621660
v -0.02104061 0.05793933 0.08781816
v -0.01990652 0.06989153 0.09152818
v -0.01961734 -0.07930381 0.00506410
v -0.01899552 -0.08045947 0.00555160
v -0.01975904 -0.07925246 -0.00012986
v -0.02072112 -0.07722369 -0.00189196
v -0.02116219 0.06213645 0.06739150
v -0.01772165 -0.06640779 0.11837352
v -0.01793420 -0.06640178 0.11801505
v -0.01673036 -0.06443296 0.11977081
v -0.01794018 -0.07040130 0.11792243
v -0.01786918 -0.07240106 0.11778175
v -0.01654868 -0.07425095 0.11929301
v -0.01667183 -0.07243200 0.11949568
v -0.01669700 -0.07043224 0.11957790
v -0.01759024 -0.07440081 0.11737587
v -0.01691320 -0.07625931 0.11646574
v -0.01670944 -0.07640459 0.11662549
v -0.01580897 -0.07643149 0.11829489
v -0.01535016 -0.07717011 0.11769120
v -0.01377631 -0.07719120 0.11892516
v -0.01895579 -0.07035974 0.11486440
v -0.01909397 -0.06835678 0.11475609
v -0.01947713 -0.06833965 0.11345071
v -0.01934912 -0.07033941 0.11323731
v -0.01956361 -0.07032351 0.11184641
v -0.01928811 -0.07232916 0.11206238
v -0.01912615 -0.07233916 0.11290280
v -0.01969711 -0.06832065 0.11174178
v -0.01844603 -0.07286502 0.11526402
v -0.01596227 0.06758221 0.11885811
v -0.01592116 0.06958197 0.11885579
v -0.01445102 0.07155080 0.12027191
v -0.01268253 0.07151988 0.12125736
v -0.01434372 0.07355056 0.12018517
v -0.01409123 0.07555033 0.11991326
v -0.01544618 0.07558126 0.11840034
v -0.01218349 0.07751917 0.12077123
v -0.01344761 0.07929009 0.11918608
v -0.01187803 0.07891792 0.12041669
v -0.01339321 0.07954987 0.11912321
v -0.01238445 0.07551941 0.12097742
v -0.01749215 -0.07041278 0.11855337
v -0.01941397 0.04370886 0.10969483
v -0.02134569 -0.06837022 -0.09032364
v -0.02142206 -0.06636849 -0.09038347
v -0.01970946 -0.07835636 -0.09398250
v -0.01653141 -0.07443175 0.11926645
v -0.01920130 0.05770893 0.10959167
v -0.01729724 0.04961530 0.11686863
v -0.01726790 0.05161506 0.11688132
v -0.01776955 0.05563199 0.11579704
v -0.01490871 0.04755366 0.12025421
v -0.02059625 -0.06421450 -0.10752596
v -0.02078505 -0.06423420 -0.10522409
v -0.01880538 -0.07215352 -0.11628773
v -0.01972389 -0.07217128 -0.11326018
v -0.01993616 -0.07217986 -0.11209145
v -0.01975919 -0.07418358 -0.11195274
v -0.01950050 -0.07417103 -0.11359523
v -0.01880307 -0.07617833 -0.11374457
v -0.01931662 -0.07619252 -0.11160579
v -0.01993889 -0.07420201 -0.10979501
v -0.01940208 -0.07620176 -0.11052981
v -0.02004551 -0.07327467 -0.10963578
v -0.01871909 -0.07820450 -0.11113734
v -0.01995213 -0.07420407 -0.10956259
v -0.01811990 -0.07819199 -0.11320899
v -0.01917226 -0.07497441 -0.11403401
v -0.01853914 -0.07884505 -0.10845484
v -0.01757589 -0.08023220 -0.10971819
v -0.01820926 -0.07968535 -0.10565479
v -0.02074936 -0.06823625 -0.10510467
v -0.02072337 -0.06823372 -0.10540301
v -0.02059089 -0.07023961 -0.10498046
v -0.01810844 0.05564552 0.11481256
v -0.01991567 -0.07878803 -0.04853980
v -0.01841863 -0.08038061 -0.09311182
v -0.01809582 -0.08074859 -0.09285873
v -0.01886680 -0.07782249 -0.11125315
v -0.01982398 -0.07905071 -0.04846791
v -0.02139032 0.06762610 -0.08817978
v -0.02086979 -0.06609219 0.08934851
v -0.01774516 -0.07834801 0.09802342
v -0.01618509 -0.07950308 0.09924655
v -0.01803382 -0.07818358 0.09515386
v -0.01935467 0.06373743 0.10687933
v -0.02079050 -0.06423497 -0.10513683
v -0.02102130 0.06613416 0.06750204
v -0.02059974 0.07010207 0.07037407
v -0.02082162 0.06810619 0.07020007
v -0.02074282 0.06808036 0.07280328
v -0.02093360 0.06608387 0.07265365
v -0.02073368 0.06807755 0.07308659
v -0.02053282 0.07007731 0.07288054
v -0.02022602 0.07207708 0.07253934
v -0.02101330 0.06610875 0.07015204
v -0.02027001 0.07209583 0.07063263
v -0.02020897 0.07207035 0.07322192
v -0.01977214 0.07404589 0.07525164
v -0.01978049 0.07406217 0.07355790
v -0.01928515 0.07604566 0.07468063
v -0.01929320 0.07605283 0.07394000
v -0.01938671 0.06313020 0.10690499
v -0.02181916 -0.07316226 -0.00687335
v -0.02182478 -0.07313130 -0.01010726
v -0.02182478 -0.07311402 -0.01191507
v -0.02166850 0.06375043 -0.10088951
v -0.02177450 0.06175085 -0.10082289
v -0.02005488 -0.06617682 -0.11218441
v -0.01891938 0.04367791 0.11230507
v -0.02117768 0.05788433 -0.11560360
v -0.02119848 0.05988498 -0.11561987
v -0.02117669 0.06188479 -0.11560275
v -0.02118181 0.06586109 -0.11306526
v -0.02111372 0.06785999 -0.11301183
v -0.02048783 0.07187245 -0.11506246
v -0.02121494 0.06784287 -0.11109098
v -0.02133082 0.05787503 -0.11443488
v -0.02109253 0.07155292 -0.10791228
v -0.02107619 0.07181116 -0.10789946
v -0.02095697 -0.06203074 0.08307778
v -0.01874777 0.05367526 0.11248861
v -0.01939114 0.06978694 0.10181881
v -0.01669733 -0.07817138 -0.11717649
v -0.01737584 -0.07615781 -0.11770843
v -0.01948135 -0.07410188 0.10682798
v -0.01984206 -0.07227725 0.10733378
v -0.02007162 -0.07027749 0.10767670
v -0.01944208 -0.07427781 0.10685876
v -0.01977052 -0.07421507 0.10071024
v -0.01906818 -0.07621481 0.09976433
v -0.01895630 -0.07646737 0.09961531
v -0.01861956 -0.07674342 0.10242075
v -0.01772633 -0.07823916 0.10057961
v -0.01828222 -0.07697047 0.10522665
v -0.01733703 -0.07827646 0.10398838
v -0.01704911 -0.07830103 0.10619343
v -0.01794299 -0.07704138 0.10803404
v -0.01665767 -0.07833301 0.10904176
v -0.01760203 -0.07697003 0.11084280
v -0.01801532 -0.07633865 0.11138575
v -0.01841093 -0.07630770 0.10864926
v -0.02144052 0.05786522 -0.11326826
v -0.02039679 -0.06620298 -0.10901049
v -0.01917098 0.07178285 0.10199146
v -0.01904633 0.07176745 0.10344546
v -0.01872982 0.07376721 0.10309189
v -0.01878704 0.07377555 0.10229253
v -0.01832589 0.07576698 0.10262682
v -0.01970398 -0.07835512 -0.09411954
v -0.02123945 0.06783818 -0.11056898
v -0.01926662 0.06976768 0.10367630
v -0.01969893 0.07189129 0.09131353
v -0.01947516 0.06173907 0.10683562
v -0.01482327 -0.07938432 0.11047997
v -0.01325802 -0.08011225 0.11170718
v -0.01360068 -0.08032391 0.10889708
v -0.01133998 -0.07979666 0.11575243
v -0.00976717 -0.07990329 0.11698557
v -0.02071484 0.06790071 -0.11778195
v -0.01904008 -0.08078963 -0.04951132
v -0.01887793 -0.07624578 0.10276276
v -0.01665931 -0.08014060 0.08362615
v -0.01253451 0.07351964 0.12111869
v -0.02149559 -0.07519298 -0.00409512
v -0.02029041 -0.07024653 0.10471468
v -0.01808243 -0.07811514 0.09521757
v -0.02101368 0.06610973 0.07004944
v -0.01628995 0.04758460 0.11877483
v -0.02161213 0.05438716 0.04162428
v -0.01638741 -0.07856446 0.10925365
v -0.01516735 -0.07971171 0.10766877
v -0.01416043 -0.08033807 0.10636880
v -0.01177689 -0.08043091 0.11305194
v -0.01547628 -0.06446389 0.12141237
v -0.01927859 -0.07430531 0.10952837
v -0.01924758 -0.07430796 0.10976649
v -0.02152338 -0.07498687 -0.00405451
v -0.01821972 0.04564672 0.11470388
v -0.01720621 0.05561458 0.11690289
v -0.01690765 0.06961291 0.11687294
v -0.01587040 0.07158173 0.11884118
v -0.01685398 0.07161267 0.11685461
v -0.01673611 -0.06643272 0.11972803
v -0.01839310 0.06166925 0.11276684
v -0.01982883 0.04374387 0.10655795
v -0.01951891 0.06576469 0.10425996
v -0.01979618 0.06176862 0.10415124
v -0.01964283 -0.07852019 -0.09407160
v -0.01764893 -0.07915014 -0.11283975
v -0.01684898 -0.08021720 -0.11221258
v -0.01863293 -0.07820150 -0.11156094
v -0.01914770 -0.07463171 0.10963098
v -0.01820746 -0.07632659 0.11036813
v -0.01957301 -0.07230821 0.11023169
v -0.01569977 -0.07795184 0.11487566
v -0.01683304 -0.07640055 0.11635997
v -0.01882705 -0.07433891 0.11247120
v -0.01857134 -0.07236753 0.11516577
v -0.01802947 -0.07818464 0.09525909
v -0.01740709 -0.07851526 0.10082990
v -0.01767894 -0.07824550 0.10118339
v -0.01672981 -0.08008901 0.08357088
v -0.01974129 -0.07030845 0.11049643
v -0.02182478 0.05975091 -0.10079043
v -0.02182437 0.05975159 -0.10086203
v -0.02094756 0.05792391 0.08931417
v -0.02043365 -0.07018500 0.09845714
v -0.02019566 -0.07218992 0.09864370
v -0.02045336 -0.06824678 0.10497263
v -0.02012866 -0.07220036 -0.10970095
v -0.01975266 0.07139712 0.09136968
v -0.01891628 0.07379818 0.10008864
v -0.02113826 -0.07037454 -0.09016105
v -0.02082193 -0.07238099 -0.08991307
v 0.02084888 0.04205078 0.02263966
v 0.02071471 0.04613720 0.01381566
v 0.02081642 0.04786834 0.04185115
v 0.02024694 0.06232707 -0.00526105
v 0.02015541 0.06432683 -0.00509419
v 0.01993961 0.06639764 -0.01220592
v 0.01995429 0.06638852 -0.01126970
v 0.02023270 0.06234284 -0.00689335
v 0.01960344 0.07038803 -0.01072197
v 0.01920136 0.07243715 -0.01532605
v 0.01891518 0.07346026 -0.01300897
v 0.02032979 0.05436426 -0.00935883
v 0.01832666 0.05497828 -0.07107490
v 0.01821946 0.06294088 -0.06692466
v 0.01835114 0.06291401 -0.06427999
v 0.01457360 0.07919207 -0.08837411
v 0.01682208 0.06911475 -0.08326871
v 0.02069477 0.06133820 0.09766748
v 0.02069726 0.06136244 0.09512801
v 0.02112420 0.04130760 0.10007430
v 0.02109779 0.04330735 0.10015810
v 0.02089751 0.05530591 0.10071428
v 0.02094580 0.04525852 0.10548826
v 0.02081718 0.04323652 0.10792880
v 0.02061991 0.04321612 0.11031556
v 0.02059752 0.04321444 0.11051940
v 0.02023141 0.06525066 0.10746999
v 0.02045957 0.06527046 0.10510744
v 0.01983480 0.06925893 0.10715911
v 0.02015057 0.06927701 0.10486526
v 0.02037695 0.06729660 0.10250128
v 0.02041196 0.06732020 0.09998730
v 0.02023592 0.06934818 0.09730789
v 0.01970821 0.07135878 0.09689419
v 0.02149916 0.01546260 0.08304864
v 0.01377830 0.07937785 -0.10680622
v 0.01486115 0.06547245 -0.11826141
v 0.01267165 0.07950168 -0.11835904
v 0.01950371 -0.02685703 -0.09083653
v 0.01970570 -0.02688053 -0.08863410
v 0.01815659 0.07321954 0.11346770
v 0.01737444 0.07321076 0.11538210
v 0.01985752 0.06120897 0.11225962
v 0.01948641 0.05919174 0.11451004
v 0.01854304 0.07323623 0.11122926
v 0.01642232 0.07521050 0.11664660
v 0.01492392 0.07721070 0.11855754
v 0.01622832 0.07520911 0.11703876
v 0.01879410 0.06106027 0.11650871
v 0.01912816 0.05918152 0.11603555
v 0.01904062 0.05717598 0.11670191
v 0.01927632 0.05718176 0.11579645
v 0.01834587 0.06291538 -0.06441675
v 0.01726811 0.07098482 -0.07021182
v 0.01674388 0.07491390 -0.06207277
v 0.01874629 -0.08081043 0.11392688
v 0.01781265 -0.08081636 0.11573630
v 0.01829417 -0.08153344 0.11357239
v 0.01913036 -0.07884202 0.11676948
v 0.01934742 -0.07686411 0.11882977
v 0.01953221 -0.07487372 0.11962605
v 0.01963701 -0.07287554 0.11970827
v 0.01970078 -0.07087656 0.11975831
v 0.01769754 0.07644919 -0.01462288
v 0.01509642 0.07520707 0.11869275
v 0.02109069 0.04330399 0.10051896
v 0.01680139 -0.07865969 -0.10870225
v 0.01581102 -0.07457267 -0.11649929
v 0.01498519 -0.07454173 -0.11868706
v 0.01350675 -0.07851032 -0.12014271
v 0.01473662 -0.08057198 -0.11527931
v 0.01646626 -0.07460362 -0.11409394
v 0.01513788 -0.07254197 -0.11883169
v 0.01544097 -0.06254316 -0.11896766
v 0.01431112 -0.07251102 -0.12101828
v 0.01548341 -0.06054339 -0.11897167
v 0.01617512 -0.06257410 -0.11666296
v 0.02033358 0.04519770 0.11263254
v 0.01234452 -0.02845441 -0.12388946
v 0.01990775 0.04318346 0.11464025
v 0.01813352 0.06494281 -0.06699200
v 0.01827296 0.07414010 0.11101753
v 0.01976238 -0.02488140 -0.08858961
v 0.01771260 0.07644260 -0.01395178
v 0.01858726 0.07446173 -0.01580748
v 0.01974855 0.07143084 0.08930153
v 0.01456450 -0.05851269 -0.12099059
v 0.02140287 0.01343482 0.08605288
v 0.02081339 0.05528659 0.10284322
v 0.02058234 0.05597102 0.03150208
v 0.01834683 0.05298575 -0.07190786
v 0.01709868 0.06710908 -0.08305189
v 0.02015945 0.06432024 -0.00440932
v 0.01815303 0.06691838 -0.06443524
v 0.01521873 0.06346121 -0.11756447
v 0.01504383 0.06546488 -0.11770156
v -0.00934243 0.07980008 -0.12157245
v -0.00989341 0.07920266 -0.12200445
v -0.01095700 0.07783156 -0.12283837
v -0.00830031 0.08076480 -0.12075537
v -0.01233711 0.08120321 -0.11883750
v -0.00971785 0.08324784 -0.10915958
v -0.00758254 0.08385530 -0.11510969
v -0.00600144 0.08443073 -0.11387003
v -0.00476759 0.08441731 -0.11544408
v -0.00634935 0.08378742 -0.11668425
v -0.00195712 0.08461110 -0.11578199
v 0.00366113 0.08477655 -0.11645992
v 0.00523703 0.08492384 -0.11522436
v 0.00646570 0.08448477 -0.11680247
v 0.00681268 0.08505084 -0.11398899
v 0.00400723 0.08527000 -0.11364713
v 0.00558325 0.08542804 -0.11241146
v 0.00435167 0.08562746 -0.11083564
v 0.00154396 0.08566082 -0.11049556
v -0.01766151 0.07952648 -0.08234921
v -0.01043634 0.08407216 -0.05635288
v -0.01167368 0.08379816 -0.05478158
v -0.01086823 0.08447315 0.05767280
v -0.00984399 0.08479852 0.06610014
v -0.01855747 0.07803861 0.07451688
v -0.01765393 0.07938877 0.07268389
v -0.00349510 0.08590490 0.10665795
v -0.00473009 0.08582399 0.10823109
v -0.00315632 0.08579696 0.10946499
v -0.00630590 0.08568431 0.10699560
v -0.00439418 0.08548010 0.11103588
v -0.00530032 0.08447447 0.11540826
v -0.00811329 0.08407534 0.11574421
v -0.00771160 0.08348760 0.11845900
v -0.00931119 0.08351853 0.11725811
v -0.00935439 0.08349169 0.11731255
v -0.00968817 0.08401131 0.11450944
v -0.01045510 0.08354947 0.11547604
v -0.01126562 0.08373644 0.11327265
v -0.01148528 0.08358041 0.11354890
v -0.01162658 0.08358747 0.11298965
v -0.01160341 0.08392610 0.11046639
v -0.01002227 0.08450438 0.11170607
v -0.01194162 0.08408166 0.10765981
v -0.01251183 0.08273302 0.11483699
v -0.01284911 0.08296465 0.11203112
v -0.01318646 0.08319078 0.10922521
v -0.01352572 0.08325976 0.10641780
v -0.01258269 0.08364231 0.10846645
v -0.01511331 0.08215052 0.10517305
v -0.01386603 0.08324173 0.10360955
v -0.01297684 0.08367327 0.10572810
v -0.01545570 0.08196121 0.10236316
v -0.01556124 0.08171311 0.10482184
v -0.01548903 0.08170441 0.10564108
v -0.01420850 0.08304581 0.10079961
v -0.01322435 0.08370423 0.10280272
v -0.01324361 0.08371637 0.10155613
v -0.01262218 0.08405074 0.10204336
v -0.01283927 0.08365986 0.10695601
v -0.01311338 0.08368953 0.10419967
v -0.01070151 0.08458278 0.10609068
v -0.00788401 0.08535500 0.10575830
v -0.00946244 0.08499924 0.10452074
v -0.00822508 0.08527459 0.10294945
v -0.01104147 0.08459457 0.10328271
v -0.01093176 0.08322382 0.11607583
v 0.01020676 0.08601686 0.10215214
v 0.01146818 0.08540097 0.10314113
v 0.01144300 0.08539497 0.10380165
v 0.01121417 0.08495868 0.11056625
v 0.01154840 0.08447574 0.11336972
v 0.00998721 0.08553819 0.11214571
v 0.00841855 0.08598498 0.11091583
v 0.00718285 0.08584699 0.11248843
v 0.00684857 0.08632446 0.10968491
v 0.00808310 0.08636713 0.10811140
v 0.00875198 0.08543849 0.11371868
v 0.00594429 0.08547240 0.11405877
v 0.00813714 0.08533295 0.11450024
v 0.00470555 0.08508380 0.11562898
v 0.00751524 0.08521427 0.11529046
v 0.01329813 0.08329193 0.11220012
v 0.01274948 0.08327843 0.11431139
v -0.00778071 0.08345720 0.11854638
v -0.00621195 0.08301635 0.11977633
v 0.00627695 0.08486182 0.11686101
v 0.00503435 0.08415516 0.11842818
v 0.00784494 0.08435930 0.11809037
v 0.00908165 0.08458098 0.11651857
v -0.00754316 0.08541718 0.10856697
v -0.00563241 0.08513308 0.11260649
v -0.01574432 0.08145361 -0.05289030
v -0.01598149 0.08122661 -0.05307626
v -0.01618256 0.08133246 0.06113039
v -0.01535627 0.08213794 0.06009668
v 0.00235762 0.08624470 -0.09206761
v 0.00359357 0.08640456 -0.09364000
v 0.00482697 0.08635417 -0.09521440
v -0.00250405 0.08517711 -0.10858651
v -0.01219690 0.08234067 -0.10602041
v -0.00126738 0.08539572 -0.11015834
v -0.00003263 0.08545674 -0.11173167
v -0.01228168 0.08408421 0.10485176
v 0.00119961 0.08531159 -0.11330698
v -0.00072816 0.08419531 -0.11735988
v -0.00231125 0.08345692 -0.11860109
v -0.00434167 0.08370228 -0.11765159
v -0.00512141 0.08328833 -0.11826294
v -0.00353776 0.08407324 -0.11702128
v -0.00800319 0.08371743 -0.11457663
v -0.01480729 0.08102564 -0.11569136
v -0.01515532 0.08037303 -0.11850567
v -0.01364524 0.07984163 -0.12044502
v -0.01270749 0.07871241 -0.12166938
v -0.01333747 0.07785406 -0.12216332
v -0.01545166 0.07787278 -0.12143222
v -0.01419590 0.07984689 -0.12029489
v -0.01552460 0.07797258 -0.12133669
v -0.01793835 0.07922691 -0.08256627
v -0.01201466 0.07784191 -0.12257487
v -0.01198668 0.07585156 -0.12364572
v -0.01904676 0.07752918 -0.08089391
v -0.01291395 0.08328370 -0.05321258
v 0.00672875 0.08359395 -0.12040215
v -0.01149502 0.07694133 -0.12326022
v -0.00718332 0.08175789 -0.11987959
v 0.00734252 0.08307976 -0.12119788
v 0.00897609 0.08629126 0.10372868
v 0.01194360 0.08326998 0.11622099
v 0.01342512 0.08139410 0.11738252
v 0.01219025 0.08132365 0.11895576
v 0.01083139 0.08326756 0.11789040
v 0.00086465 0.08557593 -0.11102817
v 0.01031587 0.08459793 0.11494481
v -0.00615429 0.08371748 -0.11693480
v 0.00460592 0.08651755 0.00881087
v 0.00774418 0.08646432 0.10530425
v 0.01064239 0.08348195 0.11774222
v -0.01392402 0.08015012 -0.12008172
v -0.01307763 0.08319406 -0.05334091
v -0.01709730 0.08015585 0.06041318
v -0.01493451 0.08248752 0.05956751
v -0.01708343 0.07976707 0.10108692
v -0.01705595 0.07981227 0.10110846
v -0.01227874 0.08362456 0.10993690
v -0.01449931 0.08235818 -0.05445558
v -0.01356919 0.08136161 -0.11726207
v -0.01639419 0.07997290 -0.11693558
v 0.00277629 0.08552312 -0.11207080
v -0.00676688 0.08558934 0.10663417
v 0.00651022 0.08646797 0.10687821
v -0.00596748 0.08554645 0.10980236
v -0.00720625 0.08515486 0.11137254
v -0.00844639 0.08465007 0.11294162
v -0.00687226 0.08465196 0.11417580
v 0.01187467 0.08333976 0.11616695
v 0.01054430 0.08580658 0.10495821
v 0.00931469 0.08616853 0.10653558
v 0.02109471 -0.08233691 0.06135254
v 0.01067703 0.08124607 0.12031076
v 0.00940482 0.08318880 0.11931334
v 0.00970937 0.08327130 0.11892697
v 0.00815550 0.08192975 0.12087523
v 0.00851382 0.08126430 0.12115616
v 0.00917672 0.07925103 0.12167586
v 0.01014553 0.07924082 0.12151150
v 0.00785815 0.08127149 0.12123798
v 0.00690832 0.07527218 0.12229908
v 0.01224310 0.08123957 0.11899720
v 0.00944557 0.07524128 0.12230402
v 0.00699404 0.07326892 0.12250586
v 0.00716284 0.07126537 0.12263816
v 0.00989424 0.07523645 0.12223833
v -0.01066674 0.07549481 0.12136632
v -0.01112752 0.07750410 0.12100509
v -0.01001463 0.07748826 0.12124603
v -0.01369408 -0.06449481 0.12238035
v -0.01366188 -0.06649457 0.12228915
v -0.01170580 0.07951895 0.12021208
v -0.00962506 0.07948803 0.12079927
v -0.00919499 0.08148781 0.12030086
v -0.00903542 0.08175470 0.12010403
v -0.01060404 0.08220584 0.11887418
v -0.01101812 0.08151872 0.11938510
v -0.00411561 0.07941511 0.12141987
v -0.00466298 0.08094951 0.12099074
v -0.00539135 0.07742645 0.12183144
v 0.00378709 0.08306570 0.11999168
v 0.01643717 -0.06489659 0.12608346
v 0.01756947 -0.06490680 0.12571170
v 0.00655840 0.07127265 0.12264514
v -0.01022142 0.07548850 0.12145966
v 0.01353024 0.08123856 0.11746493
v -0.00948804 -0.06855615 0.12339768
v -0.01167832 -0.06852525 0.12295019
v -0.01110287 -0.07452451 0.12206586
v -0.01165396 -0.06652703 0.12313081
v -0.01518142 -0.07446268 0.12078569
v 0.00535906 0.08130239 0.12118437
v 0.00641445 0.08330218 0.11988839
v 0.00660051 0.08350197 0.11965609
v 0.00692277 0.08329580 0.11990875
v -0.00484115 0.08142961 0.12085106
v 0.00930963 0.08327318 0.11923872
v -0.00551117 0.07542669 0.12193414
v -0.01050992 0.07149125 0.12148918
v -0.00953087 -0.06655640 0.12350242
v -0.01176220 -0.06652549 0.12310730
v -0.01174111 -0.06724115 0.12306247
v -0.00702416 0.08145690 0.12077318
v 0.01246370 -0.08555154 0.06579671
v -0.01621525 -0.08274909 0.00518996
v -0.01655467 -0.08269399 0.00238241
v -0.01532655 -0.08317815 0.00080387
v -0.01744045 -0.08202503 0.00677080
v -0.01981771 -0.07922703 -0.00271729
v -0.01777878 -0.08187971 0.00396411
v -0.01999606 -0.07883466 -0.00285711
v -0.01370783 -0.08348363 -0.05637986
v -0.01672163 -0.08282228 -0.04603564
v -0.01861772 -0.08133352 -0.05006364
v -0.01794729 -0.08213521 -0.04445516
v -0.01575179 -0.08243327 -0.09102095
v -0.01206337 -0.08167220 -0.11354337
v -0.01486529 -0.08116278 -0.11319874
v 0.00769520 -0.08369698 -0.10313481
v 0.01106501 -0.08304898 -0.11065845
v 0.01337600 -0.08260276 -0.11035296
v 0.00825480 -0.08322144 -0.11032033
v 0.00949124 -0.08302175 -0.11189234
v 0.00668298 -0.08303327 -0.11155270
v 0.00792007 -0.08277984 -0.11312419
v -0.01491851 -0.08020658 -0.11578188
v -0.01603087 -0.08020900 -0.11411257
v 0.00701914 -0.08335697 -0.10874771
v -0.01262741 -0.08251259 -0.10636133
v -0.01519081 -0.07996362 -0.11599536
v -0.01395466 -0.07978781 -0.11756760
v -0.01609617 -0.08090509 -0.11162236
v -0.01732465 -0.08045045 -0.11004410
v -0.01752243 -0.08022825 -0.11019916
v -0.01453307 -0.08180995 -0.11039685
v -0.01576391 -0.08154923 -0.10882044
v -0.01698941 -0.08085000 -0.10723984
v -0.01542769 -0.08186869 -0.10601541
v -0.01423743 -0.08229305 -0.10762364
v -0.01386486 -0.08229380 -0.10801938
v -0.01642282 -0.07979975 -0.11441988
v 0.01428710 -0.08660061 -0.00139228
v 0.00747577 -0.08416632 -0.09314114
v -0.01661571 -0.08285127 -0.04617147
v -0.01386930 -0.08162919 0.08327216
v -0.01229972 -0.08200135 0.08450276
v -0.01509597 -0.08102507 0.08485185
v -0.01394215 -0.08043609 0.10608794
v 0.01093888 -0.08470724 0.10018121
v 0.00970819 -0.08443389 0.10175774
v 0.01851000 -0.08264664 0.09705996
v 0.01657609 -0.08276802 0.11222533
v -0.01306759 -0.08355997 -0.08637504
v -0.01340665 -0.08347468 -0.08918230
v 0.01084050 -0.08393629 -0.10066878
v 0.01207523 -0.08387726 -0.10224213
v 0.01241421 -0.08396936 -0.09943493
v 0.01117953 -0.08402444 -0.09786154
v 0.00915995 -0.08229753 -0.11469350
v 0.01040378 -0.08148887 -0.11625969
v 0.01188561 -0.08051012 -0.11812515
v -0.01011475 -0.08051890 0.11417161
v -0.01168863 -0.08050013 0.11293763
v -0.01203185 -0.08075703 0.11012710
v -0.01296436 -0.08225364 -0.10916693
v -0.01497361 -0.08288661 -0.09041084
v 0.01039165 -0.08416469 0.10737646
v -0.01344131 -0.08037217 0.10902203
v -0.01278374 -0.08039997 0.11109505
v -0.01829739 -0.08131605 0.00463970
v -0.01103120 -0.08390441 -0.06952986
v 0.01354633 -0.08363292 0.10984986
v 0.01301534 -0.08572981 0.05860493
v -0.01331979 -0.08198379 0.07607871
v -0.01454800 -0.08150741 0.07765718
v -0.01583028 -0.08303275 -0.05041964
v -0.01183619 -0.08377465 -0.08795101
v -0.01330009 -0.08189491 -0.11197158
v 0.01073018 -0.08261617 -0.11346239
v 0.01092045 -0.08254089 -0.11370318
v 0.01231674 -0.08326931 0.11142725
v 0.01305411 -0.08651639 0.00018245
f 263 687 616
f 644 687 263
f 263 277 644
f 389 471 599
f 972 954 957
f 263 639 26
f 26 277 263
f 677 681 672
f 676 672 681
f 510 471 389
f 389 559 510
f 433 434 461
f 461 434 476
f 434 532 476
f 595 532 434
f 471 510 493
f 493 559 494
f 493 510 559
f 954 972 956
f 261 234 232
f 392 923 978
f 923 918 978
f 914 918 923
f 552 914 955
f 260 237 897
f 605 639 263
f 238 239 663
f 860 26 639
f 860 663 660
f 617 17 687
f 677 672 673
f 671 676 687
f 277 676 671
f 687 644 671
f 671 644 277
f 687 676 643
f 643 676 681
f 272 676 277
f 672 676 272
f 272 675 672
f 185 180 183
f 981 234 957
f 990 265 985
f 979 265 915
f 985 265 979
f 950 990 985
f 265 990 950
f 273 675 271
f 675 272 271
f 271 272 277
f 276 271 277
f 268 271 276
f 268 276 266
f 277 26 266
f 266 276 277
f 26 860 266
f 922 923 392
f 532 595 497
f 594 595 434
f 494 559 594
f 594 559 18
f 18 497 594
f 594 497 595
f 389 599 378
f 532 497 540
f 597 599 471
f 471 493 597
f 141 135 124
f 498 135 141
f 463 433 461
f 685 617 29
f 29 643 681
f 687 643 29
f 958 972 957
f 957 975 958
f 958 975 972
f 970 975 548
f 989 250 548
f 548 975 989
f 234 261 960
f 960 261 250
f 662 860 660
f 660 663 662
f 548 250 247
f 260 242 247
f 552 918 916
f 916 914 552
f 918 914 916
f 953 956 562
f 562 955 953
f 954 956 953
f 245 247 242
f 392 978 474
f 474 556 392
f 34 891 254
f 236 239 238
f 236 237 239
f 252 897 237
f 244 242 260
f 244 245 242
f 419 564 441
f 655 891 34
f 263 616 606
f 606 605 263
f 616 612 606
f 606 612 608
f 238 663 664
f 663 860 664
f 721 708 722
f 722 724 721
f 723 724 722
f 837 852 1
f 837 1 185
f 686 209 645
f 608 612 609
f 17 617 619
f 619 698 17
f 275 675 273
f 274 275 273
f 27 985 962
f 265 981 233
f 915 265 233
f 957 954 233
f 233 954 915
f 278 271 268
f 951 950 985
f 268 266 264
f 264 278 268
f 264 950 965
f 965 278 264
f 232 234 264
f 265 950 264
f 234 981 264
f 264 981 265
f 231 860 232
f 507 442 532
f 498 442 507
f 443 476 532
f 532 442 443
f 461 476 443
f 443 442 461
f 509 189 100
f 329 131 132
f 190 509 486
f 190 189 509
f 506 503 532
f 532 540 506
f 508 496 509
f 508 540 496
f 19 540 497
f 496 540 19
f 19 497 18
f 18 559 477
f 559 557 477
f 477 19 18
f 496 19 477
f 477 479 509
f 477 557 479
f 480 483 479
f 486 509 478
f 479 483 478
f 509 479 478
f 575 378 599
f 599 417 575
f 575 417 412
f 412 417 593
f 598 597 493
f 24 303 25
f 533 442 498
f 444 141 124
f 446 533 498
f 554 493 494
f 394 554 469
f 434 433 495
f 495 554 494
f 494 594 495
f 495 594 434
f 433 463 603
f 603 463 455
f 603 495 433
f 695 617 687
f 687 29 695
f 695 29 617
f 972 975 971
f 975 970 971
f 971 970 548
f 980 960 250
f 250 989 980
f 980 989 975
f 980 975 957
f 957 234 980
f 234 960 980
f 251 247 250
f 258 247 251
f 251 256 258
f 250 261 251
f 257 258 260
f 260 247 257
f 257 247 258
f 261 662 661
f 915 954 982
f 982 953 915
f 954 953 982
f 913 914 915
f 915 953 913
f 913 953 914
f 983 955 914
f 914 953 983
f 983 953 955
f 564 398 573
f 564 879 878
f 878 879 909
f 548 247 246
f 247 245 246
f 592 918 552
f 592 978 918
f 531 524 527
f 519 554 394
f 598 554 519
f 526 527 525
f 237 236 262
f 34 254 262
f 20 34 262
f 262 238 20
f 262 236 238
f 258 256 259
f 256 661 259
f 259 661 662
f 259 663 239
f 259 662 663
f 897 252 895
f 890 252 253
f 253 891 890
f 253 254 891
f 253 252 237
f 237 262 253
f 253 262 254
f 897 245 243
f 245 244 243
f 260 897 243
f 243 244 260
f 45 46 44
f 400 402 399
f 558 564 419
f 558 398 564
f 724 723 766
f 766 722 759
f 766 723 722
f 797 721 730
f 730 721 724
f 730 798 797
f 731 775 776
f 645 209 206
f 209 686 206
f 645 206 228
f 228 206 229
f 645 228 646
f 653 655 654
f 648 654 656
f 656 654 655
f 667 666 860
f 860 666 665
f 665 664 860
f 238 664 665
f 20 238 665
f 665 666 20
f 860 662 959
f 232 860 959
f 959 662 261
f 959 261 232
f 487 478 483
f 542 487 483
f 214 487 542
f 797 798 802
f 623 626 608
f 694 606 608
f 608 626 694
f 685 29 696
f 696 698 685
f 618 617 685
f 292 673 672
f 672 675 292
f 295 348 298
f 298 296 295
f 295 275 969
f 275 274 969
f 969 348 295
f 987 269 928
f 171 199 170
f 920 979 915
f 985 979 920
f 915 914 921
f 921 914 923
f 974 962 921
f 912 981 957
f 957 233 912
f 912 233 981
f 965 950 966
f 950 951 966
f 963 951 985
f 963 966 951
f 965 966 963
f 232 264 267
f 267 264 266
f 267 231 232
f 267 266 860
f 860 231 267
f 500 135 498
f 498 507 500
f 502 503 110
f 532 503 502
f 129 135 130
f 389 378 596
f 379 378 577
f 42 464 375
f 411 399 397
f 83 84 85
f 85 93 105
f 329 132 139
f 124 135 117
f 117 135 129
f 110 503 504
f 503 506 504
f 509 496 470
f 470 477 509
f 496 477 470
f 388 559 389
f 388 395 559
f 485 557 559
f 559 395 485
f 395 388 485
f 485 388 389
f 481 480 485
f 479 557 485
f 485 480 479
f 385 383 390
f 382 383 385
f 385 485 389
f 481 485 385
f 389 596 385
f 385 596 378
f 378 379 385
f 358 412 432
f 358 575 412
f 410 411 412
f 400 399 410
f 399 411 410
f 413 410 412
f 416 410 413
f 517 417 599
f 517 593 417
f 584 593 517
f 456 143 513
f 302 24 301
f 303 24 302
f 301 298 300
f 300 298 348
f 300 302 301
f 300 348 306
f 306 939 300
f 498 141 445
f 445 446 498
f 462 446 461
f 533 446 462
f 461 442 462
f 442 533 462
f 461 446 600
f 455 452 539
f 567 598 493
f 493 554 567
f 567 554 598
f 919 917 394
f 394 469 919
f 350 279 280
f 350 314 312
f 286 289 287
f 164 166 640
f 547 971 548
f 548 246 547
f 547 246 408
f 408 585 547
f 545 585 544
f 256 251 255
f 255 661 256
f 255 251 261
f 261 661 255
f 526 525 560
f 403 402 564
f 564 573 403
f 909 879 910
f 409 246 245
f 245 248 409
f 408 246 409
f 404 436 400
f 589 474 978
f 978 592 589
f 556 474 589
f 589 523 556
f 531 527 583
f 522 523 524
f 522 524 531
f 598 519 555
f 597 598 555
f 599 597 555
f 555 517 599
f 590 592 552
f 590 523 592
f 552 473 590
f 590 560 525
f 260 258 240
f 258 259 240
f 240 237 260
f 240 259 239
f 239 237 240
f 908 895 252
f 45 44 43
f 373 372 42
f 42 44 373
f 398 558 396
f 396 558 397
f 396 573 398
f 397 399 396
f 45 43 38
f 42 375 572
f 724 766 764
f 764 766 791
f 852 837 727
f 229 206 207
f 775 780 778
f 768 171 180
f 652 653 230
f 230 653 645
f 645 646 230
f 650 228 652
f 486 478 484
f 478 487 484
f 215 214 386
f 214 542 386
f 534 602 386
f 536 371 59
f 219 216 215
f 215 386 219
f 219 386 602
f 823 725 820
f 726 70 795
f 726 820 725
f 189 190 491
f 59 371 374
f 59 374 57
f 57 374 46
f 759 722 824
f 722 812 824
f 812 841 824
f 795 70 796
f 793 843 847
f 92 793 847
f 847 841 812
f 801 812 722
f 722 706 801
f 801 706 812
f 722 708 707
f 707 706 722
f 708 721 800
f 800 802 708
f 800 721 797
f 797 802 800
f 636 637 634
f 626 623 622
f 622 632 626
f 622 623 636
f 636 632 622
f 631 634 633
f 632 634 631
f 605 606 607
f 606 694 607
f 607 626 605
f 607 694 626
f 17 698 610
f 698 613 610
f 697 637 636
f 636 623 697
f 608 609 697
f 697 623 608
f 698 696 621
f 657 619 617
f 617 618 657
f 657 618 685
f 685 698 657
f 698 619 657
f 299 298 301
f 296 298 299
f 292 291 290
f 287 289 290
f 290 291 287
f 287 291 23
f 296 299 294
f 294 299 291
f 674 291 292
f 674 275 295
f 674 294 291
f 675 275 674
f 674 292 675
f 295 296 674
f 296 294 674
f 964 278 965
f 964 269 278
f 965 963 964
f 928 269 964
f 273 271 929
f 929 269 273
f 278 269 929
f 986 925 932
f 932 973 986
f 932 930 936
f 936 973 932
f 930 964 936
f 936 964 963
f 931 930 932
f 931 987 928
f 928 964 931
f 931 964 930
f 988 274 273
f 273 269 988
f 269 987 988
f 988 967 274
f 987 967 988
f 173 180 172
f 180 171 172
f 158 159 162
f 961 962 985
f 985 920 961
f 984 920 915
f 984 961 920
f 962 961 984
f 927 963 985
f 985 936 927
f 927 936 963
f 135 500 501
f 501 500 507
f 501 507 532
f 532 502 501
f 135 501 115
f 115 501 502
f 115 502 110
f 110 549 115
f 111 132 131
f 129 130 126
f 382 542 601
f 601 383 382
f 390 383 601
f 601 483 390
f 601 542 483
f 464 511 357
f 440 411 397
f 464 411 440
f 440 375 464
f 570 572 440
f 440 572 375
f 360 511 361
f 577 378 377
f 377 543 577
f 378 575 377
f 575 358 377
f 85 105 103
f 103 105 104
f 107 93 94
f 99 140 94
f 87 93 85
f 106 93 107
f 106 105 93
f 505 105 109
f 505 109 110
f 104 105 102
f 102 101 104
f 105 505 102
f 509 100 102
f 100 101 102
f 102 505 110
f 110 504 102
f 102 504 506
f 102 506 540
f 102 508 509
f 540 508 102
f 482 480 481
f 481 385 482
f 482 385 390
f 390 483 482
f 483 480 482
f 541 385 381
f 381 576 541
f 381 385 380
f 577 576 380
f 380 576 381
f 380 379 577
f 380 385 379
f 415 413 584
f 416 413 415
f 414 593 584
f 584 413 414
f 412 593 414
f 414 413 412
f 588 410 416
f 400 410 588
f 588 404 400
f 418 404 588
f 393 917 392
f 392 391 393
f 394 917 393
f 303 302 304
f 302 300 304
f 304 300 939
f 939 938 304
f 304 513 303
f 304 938 513
f 141 444 142
f 449 143 456
f 25 303 122
f 122 513 143
f 303 513 122
f 283 117 77
f 453 600 446
f 455 463 453
f 453 463 461
f 461 600 453
f 460 466 578
f 604 603 455
f 495 603 604
f 465 469 554
f 917 919 550
f 550 919 469
f 392 917 550
f 550 469 578
f 550 922 392
f 578 466 550
f 550 466 922
f 281 76 77
f 353 317 312
f 338 314 353
f 282 350 312
f 279 350 282
f 354 286 341
f 193 159 158
f 191 159 193
f 620 166 165
f 614 613 698
f 637 613 614
f 614 690 637
f 699 696 29
f 32 324 321
f 586 585 408
f 405 530 586
f 971 547 563
f 563 547 585
f 563 545 971
f 585 545 563
f 562 956 976
f 976 956 972
f 972 971 977
f 971 545 977
f 977 976 972
f 561 545 544
f 544 585 561
f 585 560 561
f 560 590 561
f 561 473 552
f 561 590 473
f 561 955 562
f 552 955 561
f 528 527 526
f 526 560 528
f 431 403 573
f 573 396 431
f 431 396 399
f 431 399 402
f 402 403 431
f 897 895 896
f 895 910 896
f 401 402 400
f 400 436 401
f 408 409 407
f 407 409 248
f 407 404 405
f 436 404 407
f 587 404 418
f 587 588 416
f 418 588 587
f 416 415 587
f 592 523 472
f 472 589 592
f 523 589 472
f 518 515 519
f 591 590 525
f 523 590 591
f 591 525 527
f 591 527 524
f 524 523 591
f 895 908 898
f 909 910 898
f 898 910 895
f 370 373 44
f 370 44 46
f 46 374 370
f 370 374 371
f 574 511 464
f 574 464 42
f 361 511 574
f 42 372 574
f 574 372 361
f 66 56 68
f 45 38 37
f 37 38 39
f 40 38 41
f 41 572 40
f 42 572 41
f 41 38 43
f 41 44 42
f 41 43 44
f 40 572 571
f 571 423 40
f 571 572 570
f 421 441 564
f 419 441 421
f 423 571 421
f 39 38 425
f 425 38 40
f 755 66 68
f 63 66 755
f 70 71 750
f 748 751 750
f 750 747 748
f 757 751 761
f 763 764 791
f 791 766 762
f 762 743 791
f 748 747 760
f 791 743 854
f 776 852 728
f 852 727 728
f 728 730 791
f 185 798 728
f 798 730 728
f 728 837 185
f 728 727 837
f 208 207 206
f 686 211 208
f 208 211 205
f 204 208 205
f 199 171 769
f 171 768 769
f 1 852 838
f 185 1 838
f 790 778 780
f 652 230 14
f 14 230 646
f 14 650 652
f 14 646 228
f 228 650 14
f 624 627 667
f 626 632 693
f 693 627 626
f 632 627 693
f 632 631 629
f 384 386 542
f 384 542 382
f 216 219 218
f 794 796 793
f 720 793 92
f 720 794 793
f 720 820 795
f 795 796 720
f 796 794 720
f 216 218 844
f 795 820 842
f 842 726 795
f 820 726 842
f 189 491 188
f 78 100 188
f 188 100 189
f 188 725 78
f 489 190 486
f 489 491 190
f 213 214 215
f 46 64 60
f 60 57 46
f 56 57 60
f 2 843 793
f 793 796 2
f 2 796 843
f 843 796 756
f 92 847 849
f 849 847 812
f 812 813 849
f 812 706 811
f 811 707 812
f 706 707 811
f 848 705 813
f 848 813 812
f 812 707 848
f 705 848 710
f 710 848 707
f 635 632 636
f 636 634 635
f 635 634 632
f 649 211 686
f 649 634 211
f 649 686 645
f 645 633 649
f 633 634 649
f 191 688 160
f 688 668 160
f 160 159 191
f 160 668 165
f 165 166 160
f 166 164 160
f 205 211 638
f 637 690 638
f 638 690 205
f 638 634 637
f 211 634 638
f 17 610 16
f 16 609 612
f 16 612 616
f 16 616 687
f 687 17 16
f 611 610 613
f 611 697 609
f 609 16 611
f 611 16 610
f 611 613 637
f 637 697 611
f 680 29 681
f 308 282 312
f 312 317 308
f 677 673 679
f 351 292 344
f 292 290 344
f 344 293 351
f 344 290 289
f 289 293 344
f 25 287 339
f 339 24 25
f 301 24 339
f 271 278 270
f 270 929 271
f 278 929 270
f 926 986 943
f 973 936 937
f 937 985 27
f 937 936 985
f 306 348 349
f 349 305 306
f 348 969 349
f 969 305 349
f 968 305 969
f 967 305 968
f 968 969 274
f 274 967 968
f 925 986 307
f 307 305 925
f 307 986 926
f 306 305 307
f 933 931 932
f 987 931 933
f 932 925 933
f 933 967 987
f 925 305 933
f 933 305 967
f 170 199 156
f 915 921 952
f 952 984 915
f 952 921 962
f 962 984 952
f 974 944 946
f 924 944 974
f 924 921 923
f 974 921 924
f 467 924 923
f 923 922 467
f 922 466 467
f 116 130 135
f 135 115 116
f 116 115 549
f 114 111 131
f 136 139 132
f 108 111 549
f 108 106 107
f 110 109 108
f 108 549 110
f 109 105 108
f 105 106 108
f 125 117 129
f 129 126 125
f 568 357 412
f 464 357 568
f 412 411 568
f 568 411 464
f 499 357 511
f 432 412 499
f 412 357 499
f 397 558 438
f 438 440 397
f 361 543 437
f 437 360 361
f 543 377 437
f 437 358 432
f 432 360 437
f 359 360 432
f 511 360 359
f 432 499 359
f 359 499 511
f 475 576 577
f 11 101 100
f 11 103 104
f 104 101 11
f 11 100 78
f 78 83 11
f 112 94 140
f 107 94 112
f 112 108 107
f 111 108 112
f 89 94 90
f 90 87 89
f 90 94 93
f 93 87 90
f 178 180 173
f 178 183 180
f 173 172 178
f 178 172 171
f 174 156 167
f 167 162 174
f 382 385 512
f 385 541 512
f 534 382 512
f 512 541 534
f 534 541 535
f 535 536 534
f 371 536 535
f 521 393 391
f 394 393 521
f 392 556 521
f 521 391 392
f 556 523 521
f 523 522 521
f 934 939 306
f 934 938 939
f 306 307 934
f 934 307 926
f 448 445 141
f 141 142 448
f 446 445 448
f 448 142 457
f 457 450 448
f 581 449 456
f 581 942 454
f 288 287 25
f 25 122 288
f 288 122 120
f 514 122 143
f 143 449 514
f 514 449 457
f 457 142 514
f 119 444 124
f 119 283 120
f 578 454 458
f 458 460 578
f 455 539 435
f 435 604 455
f 495 604 435
f 554 495 435
f 435 465 554
f 469 465 435
f 578 469 435
f 435 539 578
f 77 117 128
f 117 125 128
f 128 125 126
f 313 353 312
f 338 353 313
f 312 314 313
f 313 314 338
f 192 688 191
f 698 621 658
f 640 166 658
f 658 621 640
f 166 620 35
f 31 33 640
f 640 621 31
f 28 699 29
f 310 30 28
f 326 314 327
f 327 328 326
f 32 321 151
f 545 561 546
f 546 977 545
f 976 977 546
f 562 976 546
f 546 561 562
f 529 583 527
f 527 528 529
f 530 583 529
f 529 586 530
f 529 528 560
f 585 586 529
f 529 560 585
f 436 407 249
f 249 407 248
f 249 245 897
f 249 248 245
f 405 586 406
f 406 407 405
f 406 586 408
f 408 407 406
f 22 415 584
f 22 587 415
f 405 404 21
f 404 587 21
f 21 530 405
f 21 583 530
f 587 22 21
f 515 518 516
f 584 517 516
f 519 515 516
f 517 555 516
f 516 555 519
f 741 747 746
f 746 745 741
f 68 52 72
f 72 745 68
f 767 736 738
f 419 421 420
f 420 421 571
f 420 571 570
f 420 440 419
f 570 440 420
f 754 750 71
f 755 750 754
f 63 755 754
f 75 755 68
f 75 750 755
f 747 750 75
f 746 747 75
f 68 745 75
f 75 745 746
f 758 757 759
f 759 824 758
f 758 824 841
f 841 847 758
f 758 847 843
f 843 756 758
f 751 757 758
f 758 756 751
f 791 730 851
f 851 763 791
f 851 730 724
f 724 764 765
f 764 763 765
f 765 851 724
f 763 851 765
f 748 760 752
f 752 751 748
f 761 751 752
f 743 762 744
f 744 762 766
f 744 752 760
f 855 854 743
f 776 728 729
f 729 731 776
f 210 206 686
f 686 208 210
f 210 208 206
f 229 207 198
f 198 201 229
f 829 180 185
f 185 838 829
f 829 768 180
f 639 624 692
f 692 624 667
f 692 860 639
f 692 667 860
f 626 627 670
f 627 624 670
f 667 627 628
f 628 627 632
f 632 629 628
f 648 656 682
f 682 629 631
f 534 386 387
f 386 384 387
f 387 382 534
f 387 384 382
f 57 844 220
f 220 844 218
f 537 602 534
f 534 536 537
f 537 536 59
f 538 537 59
f 59 218 538
f 84 83 7
f 81 80 820
f 81 720 92
f 820 720 81
f 216 844 54
f 54 844 222
f 215 216 54
f 54 213 215
f 63 844 55
f 55 844 57
f 55 57 56
f 55 66 63
f 56 66 55
f 725 222 845
f 222 844 845
f 845 726 725
f 70 726 845
f 845 71 70
f 845 754 71
f 845 844 63
f 63 754 845
f 725 188 221
f 221 188 491
f 221 222 725
f 486 484 488
f 488 489 486
f 488 484 487
f 488 487 214
f 214 213 488
f 491 489 488
f 490 221 491
f 491 488 490
f 490 488 213
f 48 47 52
f 45 37 48
f 48 37 47
f 65 60 64
f 65 64 46
f 753 750 751
f 751 756 753
f 70 750 753
f 753 796 70
f 753 756 796
f 91 88 92
f 92 849 91
f 813 96 91
f 91 849 813
f 712 187 806
f 352 30 310
f 29 680 691
f 691 28 29
f 310 28 691
f 691 679 310
f 680 679 691
f 309 308 310
f 282 308 343
f 345 292 351
f 351 679 345
f 673 292 345
f 345 679 673
f 356 679 351
f 310 679 356
f 677 679 678
f 678 679 680
f 678 681 677
f 678 680 681
f 287 23 346
f 346 339 287
f 944 943 947
f 947 946 944
f 947 986 27
f 947 943 986
f 974 946 947
f 27 962 947
f 947 962 974
f 948 937 27
f 973 937 948
f 27 986 948
f 948 986 973
f 167 156 157
f 158 162 157
f 157 162 167
f 195 156 199
f 195 196 193
f 195 157 156
f 195 193 158
f 158 157 195
f 161 163 162
f 161 162 159
f 159 160 161
f 161 160 164
f 164 163 161
f 944 924 945
f 924 467 945
f 926 943 940
f 940 943 944
f 456 513 579
f 579 581 456
f 942 581 579
f 127 126 130
f 130 116 127
f 127 114 131
f 131 128 127
f 127 128 126
f 113 116 549
f 549 111 113
f 111 114 113
f 113 127 116
f 114 127 113
f 569 558 419
f 419 440 569
f 376 377 358
f 358 437 376
f 376 437 377
f 577 543 492
f 492 475 577
f 492 543 361
f 361 475 492
f 12 83 85
f 12 11 83
f 85 103 12
f 103 11 12
f 138 112 140
f 139 136 138
f 140 330 138
f 329 139 138
f 138 330 329
f 111 112 137
f 132 111 137
f 137 136 132
f 137 138 136
f 112 138 137
f 708 802 803
f 712 805 716
f 714 187 712
f 185 183 186
f 149 164 640
f 640 33 149
f 169 171 170
f 176 169 170
f 176 174 177
f 171 169 176
f 176 178 171
f 177 178 176
f 148 144 145
f 162 163 146
f 146 174 162
f 146 163 164
f 148 145 146
f 520 519 394
f 394 521 520
f 520 518 519
f 551 522 531
f 551 521 522
f 551 520 521
f 446 448 447
f 447 453 446
f 447 448 450
f 468 581 454
f 452 450 468
f 468 450 457
f 468 539 452
f 457 449 468
f 449 581 468
f 468 454 578
f 578 539 468
f 120 283 123
f 123 288 120
f 77 76 123
f 123 283 77
f 76 281 123
f 123 286 287
f 287 288 123
f 123 281 280
f 121 119 120
f 120 122 121
f 122 514 121
f 444 119 121
f 121 142 444
f 121 514 142
f 124 117 118
f 118 119 124
f 117 283 118
f 283 119 118
f 133 281 77
f 77 128 133
f 280 281 133
f 133 350 280
f 133 328 327
f 327 314 133
f 314 350 133
f 286 123 285
f 280 279 285
f 285 123 280
f 282 341 284
f 279 282 284
f 284 341 286
f 284 285 279
f 286 285 284
f 191 193 194
f 194 192 191
f 193 196 194
f 196 198 194
f 688 192 4
f 192 194 4
f 4 204 205
f 15 614 698
f 698 658 15
f 15 658 614
f 614 658 659
f 659 35 614
f 659 658 166
f 166 35 659
f 36 35 620
f 700 621 696
f 700 31 621
f 696 699 700
f 342 28 30
f 30 352 342
f 342 324 32
f 96 97 95
f 88 91 95
f 95 91 96
f 89 88 95
f 95 94 89
f 98 95 97
f 99 94 98
f 94 95 98
f 177 145 152
f 152 145 144
f 332 140 99
f 332 330 140
f 436 249 899
f 899 401 436
f 402 401 899
f 564 402 899
f 899 879 564
f 899 249 897
f 897 896 899
f 899 910 879
f 899 896 910
f 531 583 582
f 583 21 582
f 582 551 531
f 582 21 22
f 518 520 582
f 520 551 582
f 740 745 767
f 740 741 745
f 425 429 51
f 39 425 51
f 51 37 39
f 40 423 424
f 424 425 40
f 73 72 52
f 52 429 73
f 749 760 747
f 749 744 760
f 804 766 759
f 804 744 766
f 759 757 804
f 804 757 761
f 761 752 804
f 752 744 804
f 737 855 743
f 743 738 737
f 731 729 853
f 853 729 728
f 791 854 853
f 853 728 791
f 207 208 203
f 208 204 203
f 778 790 773
f 835 773 790
f 772 773 835
f 782 780 775
f 775 787 782
f 779 787 775
f 423 421 422
f 422 898 908
f 909 898 422
f 422 878 909
f 564 878 422
f 422 421 564
f 891 655 224
f 224 226 891
f 224 655 653
f 731 853 792
f 792 853 854
f 775 731 792
f 792 779 775
f 626 670 625
f 625 670 624
f 625 624 639
f 639 605 625
f 605 626 625
f 647 682 631
f 647 631 633
f 648 682 647
f 647 633 645
f 647 654 648
f 645 653 647
f 653 654 647
f 241 656 655
f 241 682 656
f 241 655 34
f 235 34 20
f 20 666 235
f 666 667 235
f 667 628 235
f 235 628 629
f 235 241 34
f 58 218 59
f 58 220 218
f 59 57 58
f 57 220 58
f 217 218 219
f 217 538 218
f 537 538 217
f 217 219 602
f 602 537 217
f 8 7 80
f 79 7 83
f 80 7 79
f 79 83 78
f 823 820 79
f 820 80 79
f 78 725 79
f 79 725 823
f 86 81 92
f 86 8 80
f 92 88 86
f 7 8 86
f 86 88 89
f 84 7 86
f 85 84 86
f 86 87 85
f 89 87 86
f 212 490 213
f 212 54 222
f 213 54 212
f 222 221 212
f 221 490 212
f 705 710 836
f 836 809 705
f 711 805 712
f 712 806 711
f 683 352 310
f 317 324 316
f 316 352 317
f 324 342 316
f 316 342 352
f 297 309 310
f 310 356 297
f 308 309 297
f 297 356 351
f 297 343 308
f 282 343 297
f 351 293 297
f 297 341 282
f 297 293 289
f 297 286 354
f 289 286 297
f 354 341 297
f 301 339 347
f 339 346 347
f 347 346 23
f 347 299 301
f 291 299 347
f 347 23 291
f 459 467 466
f 466 460 459
f 460 458 459
f 454 942 459
f 459 458 454
f 941 940 944
f 944 945 941
f 941 459 942
f 941 945 467
f 467 459 941
f 513 938 949
f 949 579 513
f 439 438 558
f 558 569 439
f 440 438 439
f 439 569 440
f 365 366 541
f 365 541 576
f 373 370 368
f 361 372 368
f 372 373 368
f 362 475 361
f 362 366 475
f 361 368 362
f 181 178 177
f 177 152 181
f 715 181 714
f 178 181 715
f 183 178 179
f 179 186 183
f 178 715 179
f 642 149 33
f 148 149 642
f 642 144 148
f 151 144 642
f 156 174 168
f 174 176 168
f 170 156 168
f 168 176 170
f 175 145 177
f 175 146 145
f 177 174 175
f 174 146 175
f 164 149 147
f 147 146 164
f 147 149 148
f 148 146 147
f 451 447 450
f 451 452 455
f 451 450 452
f 455 453 451
f 453 447 451
f 134 131 329
f 134 128 131
f 134 133 128
f 328 133 134
f 329 328 134
f 205 688 3
f 3 4 205
f 688 4 3
f 204 4 202
f 202 4 194
f 202 194 198
f 202 203 204
f 202 198 207
f 207 203 202
f 205 690 615
f 690 614 615
f 614 35 13
f 35 36 13
f 13 615 614
f 205 615 13
f 31 700 641
f 699 28 641
f 641 700 699
f 184 181 182
f 182 181 152
f 150 144 151
f 150 152 144
f 825 182 152
f 184 182 825
f 825 809 807
f 825 827 809
f 825 181 184
f 187 714 825
f 714 181 825
f 152 150 154
f 151 155 154
f 154 150 151
f 337 326 328
f 355 325 317
f 566 22 584
f 566 582 22
f 767 738 739
f 739 740 767
f 739 738 743
f 741 740 739
f 50 429 52
f 50 51 429
f 52 47 50
f 47 37 50
f 37 51 50
f 425 424 53
f 745 72 74
f 72 73 74
f 767 745 74
f 884 74 73
f 884 736 767
f 767 74 884
f 744 749 742
f 741 739 742
f 743 744 742
f 742 739 743
f 858 769 768
f 771 773 772
f 776 775 774
f 775 778 774
f 778 773 774
f 197 195 199
f 196 195 197
f 199 771 197
f 197 771 772
f 787 779 781
f 779 792 781
f 781 732 787
f 781 792 732
f 902 788 786
f 789 782 787
f 787 788 789
f 789 788 902
f 789 790 780
f 780 782 789
f 426 424 423
f 426 53 424
f 906 252 890
f 890 892 906
f 906 892 888
f 874 6 5
f 226 6 874
f 890 891 874
f 891 226 874
f 888 892 872
f 866 888 5
f 864 865 861
f 868 865 864
f 868 866 865
f 888 866 868
f 651 653 652
f 652 228 651
f 854 855 856
f 856 792 854
f 855 733 856
f 732 792 856
f 629 682 630
f 630 235 629
f 682 235 630
f 682 241 684
f 684 235 682
f 241 235 684
f 80 81 82
f 82 86 80
f 81 86 82
f 69 52 68
f 68 67 69
f 69 67 52
f 62 67 68
f 65 67 62
f 52 67 49
f 49 67 65
f 49 48 52
f 45 48 49
f 49 46 45
f 49 65 46
f 809 836 808
f 807 809 808
f 808 825 807
f 709 803 805
f 805 711 709
f 708 803 709
f 709 707 708
f 709 710 707
f 310 308 340
f 340 683 310
f 340 308 317
f 942 579 580
f 579 949 580
f 580 941 942
f 940 941 580
f 576 475 364
f 364 365 576
f 475 366 364
f 369 368 370
f 366 368 369
f 369 370 371
f 541 366 369
f 371 535 369
f 369 535 541
f 367 368 366
f 366 362 367
f 367 362 368
f 719 802 798
f 850 716 805
f 850 719 718
f 805 803 850
f 799 798 185
f 185 186 799
f 186 718 799
f 799 719 798
f 718 719 799
f 712 716 717
f 716 850 717
f 717 850 718
f 717 718 186
f 186 179 717
f 717 179 715
f 713 714 712
f 713 715 714
f 712 717 713
f 713 717 715
f 153 642 33
f 32 151 153
f 151 642 153
f 33 31 153
f 153 342 32
f 28 342 153
f 31 641 153
f 153 641 28
f 689 36 620
f 689 13 36
f 689 620 165
f 165 668 689
f 689 668 688
f 689 688 205
f 205 13 689
f 320 322 155
f 320 151 321
f 320 155 151
f 705 809 840
f 809 827 840
f 813 705 840
f 840 96 813
f 701 840 704
f 704 840 827
f 702 154 703
f 703 821 702
f 702 821 815
f 702 840 701
f 701 704 828
f 828 702 701
f 154 702 828
f 828 825 152
f 152 154 828
f 827 825 828
f 828 704 827
f 819 97 96
f 325 355 318
f 318 355 322
f 318 320 325
f 322 320 318
f 335 355 317
f 317 353 335
f 335 353 314
f 335 337 328
f 314 326 335
f 326 337 335
f 826 821 703
f 518 582 565
f 582 566 565
f 565 516 518
f 584 516 565
f 565 566 584
f 427 429 425
f 425 53 427
f 427 426 429
f 53 426 427
f 741 742 846
f 846 742 749
f 747 741 846
f 846 749 747
f 770 858 773
f 770 771 199
f 773 771 770
f 199 769 770
f 769 858 770
f 773 858 859
f 768 829 859
f 859 858 768
f 784 197 772
f 772 857 784
f 783 198 196
f 196 197 783
f 201 198 783
f 783 200 201
f 783 784 200
f 197 784 783
f 903 789 902
f 785 788 787
f 785 786 788
f 736 884 785
f 884 786 785
f 785 856 733
f 430 426 423
f 426 881 882
f 252 906 907
f 907 908 252
f 907 422 908
f 5 888 869
f 888 872 869
f 871 874 5
f 5 869 871
f 871 869 872
f 890 874 871
f 867 6 226
f 865 866 867
f 5 6 867
f 867 866 5
f 669 224 653
f 653 651 669
f 669 651 224
f 60 65 61
f 65 62 61
f 56 60 61
f 68 56 61
f 61 62 68
f 810 711 806
f 825 808 810
f 810 709 711
f 810 806 187
f 187 825 810
f 710 709 810
f 810 836 710
f 810 808 836
f 352 683 311
f 683 340 311
f 317 352 311
f 311 340 317
f 940 580 935
f 935 580 949
f 926 940 935
f 935 934 926
f 938 934 935
f 935 949 938
f 366 365 363
f 363 364 366
f 365 364 363
f 834 850 803
f 719 850 834
f 834 803 802
f 802 719 834
f 319 324 317
f 317 325 319
f 325 320 319
f 319 321 324
f 319 320 321
f 818 702 815
f 96 840 818
f 818 819 96
f 815 821 816
f 816 818 815
f 819 818 816
f 821 826 816
f 331 328 329
f 329 330 331
f 330 332 331
f 322 355 323
f 355 826 323
f 155 322 323
f 323 826 155
f 315 826 703
f 155 826 315
f 703 154 315
f 315 154 155
f 777 774 773
f 773 859 777
f 776 774 777
f 777 852 776
f 777 838 852
f 777 829 838
f 777 859 829
f 200 784 830
f 830 784 857
f 201 200 830
f 889 786 864
f 864 903 889
f 889 903 786
f 902 786 901
f 901 903 902
f 786 903 901
f 862 903 864
f 864 861 862
f 787 732 734
f 734 785 787
f 732 856 734
f 856 785 734
f 736 785 735
f 735 785 733
f 735 733 855
f 855 737 735
f 735 738 736
f 735 737 738
f 423 422 553
f 553 430 423
f 893 906 888
f 422 907 893
f 893 907 906
f 883 786 884
f 883 882 786
f 786 882 911
f 888 886 911
f 911 882 881
f 873 872 892
f 873 871 872
f 873 892 890
f 890 871 873
f 223 867 226
f 223 870 861
f 223 861 865
f 865 867 223
f 226 224 223
f 201 830 831
f 831 830 833
f 224 651 227
f 227 228 229
f 227 651 228
f 840 702 814
f 814 818 840
f 702 818 814
f 819 816 817
f 333 335 328
f 328 331 333
f 789 903 905
f 903 862 905
f 861 870 832
f 832 862 861
f 833 862 832
f 832 831 833
f 426 430 875
f 430 553 875
f 875 553 422
f 422 893 875
f 877 875 893
f 877 893 888
f 888 911 877
f 877 911 881
f 426 882 428
f 882 880 428
f 429 426 428
f 428 880 429
f 885 880 882
f 885 883 884
f 882 883 885
f 429 880 885
f 885 73 429
f 885 884 73
f 864 786 904
f 786 911 904
f 225 223 224
f 224 227 225
f 870 223 225
f 225 227 870
f 870 227 894
f 894 832 870
f 831 832 894
f 201 831 894
f 894 227 229
f 229 201 894
f 819 817 336
f 336 332 99
f 99 98 336
f 336 98 97
f 97 819 336
f 334 333 331
f 790 789 839
f 839 835 790
f 772 835 839
f 839 857 772
f 833 830 839
f 839 830 857
f 876 881 426
f 876 877 881
f 426 875 876
f 875 877 876
f 900 868 864
f 864 904 900
f 888 868 900
f 900 886 888
f 887 911 886
f 887 904 911
f 886 900 887
f 887 900 904
f 9 331 332
f 9 334 331
f 332 336 9
f 335 333 822
f 333 334 822
f 355 335 822
f 822 826 355
f 789 905 863
f 863 839 789
f 863 905 862
f 863 862 833
f 833 839 863
f 10 336 817
f 10 9 336
f 10 817 816
f 10 816 826
f 334 9 10
f 826 822 10
f 10 822 334

