# https://github.com/mikedh/trimesh
v -0.01393427 -0.07593546 -0.12309923
v -0.01403563 -0.07595386 -0.12308583
v 0.01574870 0.07982980 -0.11869076
v 0.01749532 0.07598945 -0.10878752
v 0.01907831 -0.06593980 0.09785951
v 0.01340559 -0.08072441 0.11533506
v 0.01571352 -0.00551787 0.11950132
v 0.01820823 0.07569456 0.10980250
v 0.01821383 0.07567641 0.10978923
v 0.01433903 0.07132209 0.11766153
v 0.01433734 0.07132512 0.11766201
v 0.01387784 -0.08313890 -0.10444727
v 0.01366065 -0.08333751 -0.11094459
v 0.01455919 -0.08269065 -0.11370383
v 0.01367118 -0.08330627 -0.11339243
v 0.01452633 -0.08271114 -0.11380760
v 0.01601582 -0.08160877 -0.11457592
v 0.01377443 -0.08304964 -0.11599575
v 0.01533250 -0.08202088 -0.11671402
v 0.01297395 -0.08378250 -0.11313742
v 0.01331865 -0.08319097 -0.11723074
v 0.01490440 -0.08205321 -0.11773031
v 0.01173511 -0.08412800 -0.11643890
v 0.01732167 -0.08030929 -0.11547823
v 0.01669957 -0.08078712 -0.11757166
v 0.01649078 -0.08085706 -0.11814485
v 0.01698639 -0.08025539 -0.11793900
v 0.01423384 -0.08198720 -0.11915520
v 0.01718552 -0.07860758 -0.11907220
v 0.01525938 -0.08052513 -0.12045997
v 0.01295364 -0.08356745 -0.06710791
v 0.01422458 -0.08239933 -0.03395151
v 0.01510647 -0.08094282 0.02734093
v 0.01527263 -0.08075079 0.02799224
v 0.01215667 -0.08337524 -0.01142896
v -0.01920253 -0.07588991 -0.11581191
v -0.01877248 -0.07668175 -0.11769763
v -0.01879240 -0.07675526 -0.11764700
v -0.01868292 -0.07876736 -0.11626593
v -0.01814390 -0.08005759 -0.11538388
v -0.01788146 -0.08050653 -0.11543176
v -0.01719597 -0.08103378 -0.11714687
v -0.01776493 -0.07931190 -0.11832515
v -0.01499881 -0.08268408 -0.11360373
v -0.01672935 -0.08169591 -0.11426936
v -0.01666017 -0.08175997 -0.11445841
v -0.01796845 -0.08039732 -0.11515188
v -0.01407309 -0.08322375 -0.11566636
v 0.01380831 0.08337139 0.08221518
v -0.01417050 0.08352304 0.11629306
v 0.01023250 0.08138620 0.11563315
v 0.01458281 0.08296084 0.11198734
v 0.01300663 0.08269483 0.11375622
v 0.01580691 0.08196323 0.11333318
v 0.01448352 0.08294692 0.11210294
v 0.01422882 0.08152311 0.11484854
v 0.01406433 0.08330394 0.09972940
v 0.01559955 0.08315155 0.09740115
v -0.01932574 -0.07276209 -0.11553282
v -0.01917885 -0.07509999 -0.11635460
v -0.01907995 -0.07373123 -0.11729539
v -0.01816786 -0.07462959 -0.11911158
v -0.01716682 -0.07702398 -0.12027023
v -0.01559035 -0.07673162 -0.12200074
v -0.01525673 -0.07734431 -0.12212168
v -0.01606397 -0.07917899 -0.12085557
v -0.01610171 -0.07938575 -0.12071328
v -0.01797877 -0.07416008 -0.11943546
v -0.01521742 -0.07356679 -0.12234720
v -0.01679586 -0.07403900 -0.12087857
v -0.01753052 -0.07934642 -0.11869720
v -0.01417144 -0.07608526 -0.12299456
v -0.01740765 -0.07700498 -0.11991221
v -0.01772066 -0.07895630 -0.11856971
v -0.01631722 -0.08132852 -0.11878483
v -0.01837003 -0.07412255 -0.11884401
v -0.01595752 -0.07937044 -0.12088838
v -0.02049536 0.07249934 -0.11580953
v -0.01975889 0.07243317 -0.11819592
v -0.02035924 0.07422314 -0.11699443
v -0.02056959 0.07357686 -0.11412268
v -0.02053951 0.07556221 -0.11548642
v -0.02053624 0.07670427 -0.11384451
v -0.01960498 0.07726027 -0.11665967
v -0.01942871 0.07592549 -0.11817060
v -0.01883382 -0.07276920 -0.11795796
v -0.01589699 -0.08133769 -0.11937425
v -0.01474175 -0.08112747 -0.12064829
v -0.01787131 0.07580938 -0.12052888
v -0.01669974 0.07839857 -0.11988965
v -0.01747101 0.07466539 -0.12125916
v -0.01589001 0.07537028 -0.12238901
v -0.01721546 0.07395983 -0.12168989
v -0.01784562 0.07134720 -0.12113598
v -0.01736251 0.07027098 -0.12158162
v -0.01400911 -0.07600368 -0.12309703
v -0.01873726 -0.07676691 -0.11773972
v -0.01902284 0.07434427 -0.11951399
v -0.01834262 0.07246857 -0.12065721
v -0.02056959 -0.07282347 0.11259107
v -0.02037665 -0.06954673 0.11519180
v -0.02054596 -0.06785654 0.11403227
v -0.02046131 -0.07179412 0.11430961
v -0.02015175 -0.06828029 0.11674662
v -0.01979688 -0.06693174 0.11824409
v -0.01915205 -0.06860569 0.11938888
v -0.01823722 -0.06719527 0.12020991
v -0.01701686 -0.06853367 0.12105954
v -0.01579866 -0.07006857 0.12162307
v -0.02036474 -0.07418892 0.11110100
v -0.02032799 -0.06694493 0.11583084
v -0.01562614 -0.05451285 0.12181503
v -0.01550845 -0.05435556 0.12188513
v -0.02027859 -0.07269044 0.11492381
v -0.02038924 -0.07388472 0.11331857
v -0.01990384 -0.07570484 0.10997576
v -0.01795444 -0.07746617 0.11818622
v -0.01733552 -0.07785037 0.11844542
v -0.01794747 -0.07633737 0.11983724
v -0.01611116 -0.07838313 0.11880209
v -0.01777593 -0.07606662 0.12000043
v -0.01899807 -0.07488962 0.11891578
v -0.01901839 -0.07493254 0.11888048
v -0.01887098 -0.07708823 0.11550726
v -0.02022010 -0.07490228 0.11158984
v -0.01974933 -0.07556177 0.11446552
v -0.01854866 -0.07800903 0.11371092
v -0.01977551 -0.07596696 0.10989139
v -0.01902509 -0.07735311 0.11083773
v -0.01947568 -0.07651332 0.11269067
v -0.01687789 -0.07903497 0.11440294
v -0.01746865 -0.07888574 0.11094102
v -0.01605513 -0.07980720 0.10764819
v -0.01728120 -0.07676311 0.12012461
v -0.01822232 -0.07330533 0.12018322
v -0.01912949 -0.07179708 0.11915421
v -0.02037658 -0.06634104 0.11541646
v 0.00815526 -0.08362966 0.06884387
v 0.01224770 -0.08290621 0.02949535
v 0.01193694 -0.08303978 0.02860004
v 0.01029071 -0.08407352 -0.01093533
v 0.01182924 -0.08350777 -0.01236054
v 0.00931627 -0.08417316 -0.01328587
v 0.01024961 -0.08408867 -0.01105014
v 0.00717711 -0.08489169 -0.10497574
v -0.00894710 -0.08452687 -0.11238372
v 0.01139404 -0.08438868 -0.11186385
v -0.00716247 -0.08488686 -0.11457622
v -0.00684557 -0.08490232 -0.11456799
v -0.00546179 -0.08493561 -0.11651348
v -0.00573701 -0.08486135 -0.11703079
v -0.00668983 -0.08429717 -0.11838228
v -0.00511086 -0.08377698 -0.11978107
v -0.00798864 -0.08466748 -0.11714697
v -0.00854317 -0.08455045 -0.11722318
v -0.00379178 -0.08314098 -0.12065328
v -0.00352918 -0.08300921 -0.12081935
v -0.00597517 -0.08305014 -0.12069922
v -0.00633449 -0.08273612 -0.12106394
v -0.00475137 -0.08183783 -0.12191218
v 0.00050070 -0.08423728 -0.11916686
v -0.00791491 -0.08338915 -0.11985858
v 0.00330740 -0.08438371 -0.11873787
v 0.00172774 -0.08496676 -0.11743062
v 0.00201141 -0.08507485 -0.11694255
v 0.00124211 -0.08508074 -0.11693270
v 0.00366474 -0.08264031 -0.12115400
v 0.00524897 -0.08164030 -0.12185414
v 0.00447517 -0.08501823 -0.11699999
v 0.00611452 -0.08449081 -0.11825159
v 0.00453531 -0.08503313 -0.11688504
v -0.00826746 -0.08469588 -0.11680662
v -0.00983726 -0.08438004 -0.11419053
v 0.01326145 -0.08243876 0.02674037
v -0.00455770 -0.08498161 -0.11453077
v 0.01279866 -0.08385739 -0.11300735
v 0.00927710 -0.08302708 -0.12043274
v 0.01086165 -0.08199873 -0.12109161
v 0.01208670 -0.08290909 -0.11961872
v 0.01367233 -0.08178162 -0.12013327
v 0.01549609 -0.08064092 -0.12008932
v 0.01403564 -0.07949442 -0.12175762
v 0.01050286 -0.08387349 -0.11886674
v 0.01279510 -0.08314403 -0.11834985
v 0.01299899 -0.08377288 -0.11306690
v 0.00993479 -0.08470946 -0.11482687
v 0.00793966 -0.08489019 -0.11468772
v 0.01015586 -0.08467449 -0.11507841
v 0.00734525 -0.08488456 -0.11602651
v 0.00552909 -0.08500390 -0.11459146
v 0.00853035 -0.08463970 -0.11729051
v 0.00892255 -0.08451587 -0.11764587
v 0.00769563 -0.08377559 -0.11936640
v 0.01023771 -0.08465571 -0.11486607
v 0.01116328 -0.08409363 -0.11768539
v -0.01035852 -0.08097588 -0.12194156
v -0.00892419 -0.08258589 -0.12099584
v -0.00932869 -0.08247579 -0.12106841
v -0.00968572 -0.08176849 -0.12155148
v -0.00913918 -0.08240679 -0.12122663
v 0.00466339 -0.08500097 -0.11701326
v -0.01357050 -0.08341096 -0.11554157
v -0.01188890 -0.08392538 -0.11520094
v -0.01106812 -0.08399854 -0.11643348
v -0.01203936 -0.08349888 -0.11791904
v -0.01386835 -0.08326298 -0.11600466
v -0.01249338 -0.08335035 -0.11801763
v -0.01437606 -0.08245826 -0.11861611
v -0.01509405 -0.08241082 -0.11756230
v -0.01352016 -0.08235410 -0.11963591
v -0.01581342 -0.08224176 -0.11632766
v -0.01316137 -0.08047850 -0.12185956
v -0.01021173 -0.08431502 -0.11494598
v -0.01071853 -0.08296257 -0.11987966
v -0.01229589 -0.08333612 -0.11826737
v -0.01194192 -0.08189944 -0.12113010
v 0.00908920 -0.08456851 -0.11734362
v 0.00385947 -0.08497975 -0.10689806
v 0.00085921 -0.08238747 -0.12142806
v 0.00737656 -0.08365879 0.06886974
v 0.01572781 0.07993116 -0.11859304
v 0.01450755 0.08127863 -0.11942948
v 0.01445761 0.08121562 -0.11963280
v 0.01455845 0.08119633 -0.11962031
v 0.01467884 0.07902358 -0.12298160
v -0.01599100 0.08140013 -0.10254601
v -0.01348050 0.08181658 -0.10770352
v -0.01738421 0.07986884 -0.11361533
v -0.01921890 0.07913701 -0.11309890
v -0.01966235 0.07846742 -0.11506200
v -0.01788391 0.07925962 -0.11561948
v -0.01651463 0.07934546 -0.11811504
v -0.01444052 0.07867474 -0.12009633
v -0.01439713 0.07955688 -0.11827620
v -0.01607506 0.08001921 -0.11615478
v -0.01446235 0.07755260 -0.12175179
v -0.02021433 0.07750432 -0.11197008
v -0.01507069 0.08025582 -0.11632485
v -0.01583618 0.08027722 -0.11524426
v -0.01441683 0.08167603 -0.11002626
v -0.01458672 0.08159048 -0.11053365
v 0.00873929 0.07301641 0.11884021
v 0.00851816 0.06177320 0.11941085
v 0.01391082 0.04100804 0.11907368
v 0.01543865 0.04206925 0.11833333
v 0.01535576 0.04222968 0.11837513
v 0.01264850 0.03134991 0.11955368
v 0.01396374 0.06810002 0.11792072
v 0.01582933 0.06857688 0.11710937
v 0.01571292 0.07254855 0.11680887
v 0.01353410 -0.02512726 0.12082404
v 0.01468152 -0.02718959 0.12047230
v -0.01139577 -0.06812534 0.12293854
v 0.00224491 -0.07383382 0.12279234
v 0.00785032 -0.07485391 0.12259148
v 0.00345728 -0.07590099 0.12258086
v -0.00751959 -0.07374569 0.12283133
v -0.00790532 -0.07373119 0.12282428
v 0.00393451 -0.07916587 0.12161494
v 0.00513438 -0.07921418 0.12163909
v 0.01312490 0.07338602 0.11786437
v 0.00906024 -0.07714337 0.12205632
v 0.01103882 -0.07630285 0.12202142
v 0.01065062 -0.07558385 0.12217084
v -0.00378470 -0.07667348 0.12238765
v -0.00370517 -0.07668393 0.12239423
v -0.00981496 -0.07053588 0.12307046
v -0.01063780 -0.07042836 0.12300282
v -0.01288288 -0.06994400 0.12268707
v -0.01298728 -0.06978900 0.12267236
v -0.01308414 -0.06989233 0.12265310
v -0.01458179 -0.07172622 0.12200787
v -0.01487913 -0.06894485 0.12201591
v -0.01652245 -0.06790159 0.12131179
v 0.00943823 -0.07351891 0.12237908
v 0.00715189 0.07172828 0.11912083
v -0.00616420 -0.07239396 0.12296224
v -0.01648998 0.07716157 0.11909588
v -0.01808809 0.07489645 0.11795395
v -0.01815756 0.07493484 0.11785147
v -0.01526624 0.07613105 0.12039380
v 0.01588894 -0.02970713 0.11960505
v 0.01191123 0.07533429 0.11790274
v -0.01018061 -0.06993689 0.12309923
v -0.01330986 0.08022452 0.11924328
v -0.01452793 0.08177136 0.11869714
v -0.01575747 0.08227271 0.11662872
v 0.00995396 0.07115981 0.11893531
v 0.00883082 0.06127023 0.11939944
v 0.01377173 0.04124771 0.11910153
v 0.01076594 0.06975507 0.11876467
v 0.00836663 0.06987719 0.11922396
v 0.01435110 0.07133263 0.11765420
v 0.01416491 0.07535571 0.11731890
v 0.01242610 0.07452095 0.11790530
v 0.00880833 -0.07660986 0.12224908
v 0.01223723 -0.07436690 0.12178658
v 0.01288580 -0.07558420 0.12151395
v 0.01422114 -0.07431637 0.12063315
v -0.02053186 0.07848424 -0.00830972
v -0.01990324 0.06919959 0.09996681
v -0.01964566 0.07787208 0.11099282
v -0.02005129 0.07677820 0.08748413
v -0.01918456 0.07304398 0.11673154
v -0.01932829 0.07774703 0.11350262
v -0.01612105 0.07996071 0.11821695
v -0.01697842 0.07876749 0.11763667
v -0.01837886 0.07883978 0.11517127
v -0.01613164 0.08349251 0.04887506
v -0.01909244 0.07934592 0.11240275
v -0.01735308 0.08023611 0.11581952
v -0.01396015 0.08508074 0.11327806
v -0.01874584 0.08023298 0.10693830
v -0.01750223 0.08159927 0.10599057
v -0.01804989 0.08104154 0.10395145
v -0.01679795 0.08239889 0.10300981
v -0.01938458 0.07899385 0.10779413
v -0.01812343 0.07483862 0.11791730
v -0.01695532 0.08019224 0.11665799
v -0.01381609 0.08499850 0.11348678
v -0.02056208 0.07839176 -0.00824598
v -0.01734920 0.08184501 0.10096806
v -0.01941561 0.07706054 0.11397475
v -0.01961893 0.07580771 0.11241040
v 0.01750540 0.04140644 0.11634668
v 0.01809455 0.04276507 0.11540914
v 0.01829764 0.02478388 0.11562539
v 0.01810667 0.02422864 0.11600816
v 0.01846817 0.02168594 0.11532542
v 0.01804614 0.02044689 0.11617956
v 0.01753348 0.01901430 0.11716731
v 0.01553497 0.01838581 0.11898177
v 0.01478773 0.01193120 0.11949276
v 0.01694032 -0.00030085 0.11830570
v 0.01819318 0.03182920 0.11564012
v 0.01880939 0.03359965 0.11441955
v 0.01887072 0.03380308 0.11427938
v 0.01858463 0.06103714 0.11256161
v 0.01816937 0.06262844 0.11389816
v 0.01702864 0.06661257 0.11602310
v 0.01689881 0.06628336 0.11625017
v 0.01675570 0.06660970 0.11639295
v 0.01640647 0.06942523 0.11652239
v 0.01689057 0.07013892 0.11602858
v 0.01591943 0.07212968 0.11667729
v 0.01470932 0.07440249 0.11718821
v 0.01527596 0.07686427 0.11627446
v 0.01543773 0.07730588 0.11596995
v 0.01507827 0.07720403 0.11631277
v 0.01386275 0.07898419 0.11610637
v 0.00947870 0.07875711 0.11728971
v 0.00789378 0.07769499 0.11789942
v 0.00902400 0.07931823 0.11706251
v 0.01264553 0.08060862 0.11567321
v 0.01703260 0.07718887 0.11361200
v 0.01775562 0.07652116 0.11163881
v 0.01699051 0.07657950 0.11403083
v 0.01349665 0.07644191 0.11735930
v 0.01665317 0.07735360 0.11437435
v 0.00984353 0.08118339 0.11586789
v 0.01628172 0.02479504 0.11840471
v 0.01450324 -0.00326059 0.11998962
v 0.01711514 0.01901529 0.11774212
v 0.01732489 0.01851992 0.11750842
v 0.01615791 0.07950357 -0.10633828
v 0.01719716 0.07695435 -0.10702166
v 0.01747894 0.07605654 -0.10872862
v 0.01816533 0.07256916 -0.10644355
v 0.01748999 0.07601493 -0.10880498
v 0.01617076 0.07934415 -0.11108151
v 0.01627835 0.07919631 -0.10695535
v 0.01820979 0.07230706 -0.10626388
v 0.01821517 0.04027082 -0.11823002
v 0.01959784 0.02331544 -0.09931678
v 0.02053881 0.06115839 0.05423237
v 0.02054690 0.05816435 0.05386228
v 0.02053359 0.06136158 0.05409286
v 0.02026999 0.06535759 0.05135043
v 0.02016480 0.06641554 0.05305094
v 0.01957388 0.07132919 0.05210706
v 0.01836532 0.07927421 0.09239775
v 0.01912604 0.07575978 0.09516729
v 0.01930842 0.07491812 0.09817027
v 0.02032077 0.06443280 0.05441148
v 0.01958765 0.02655218 -0.09911334
v 0.01962127 0.06303558 0.10632870
v 0.01944060 0.06571974 0.10691290
v 0.01940944 0.06440852 0.10781367
v 0.01913293 0.06664979 0.10870277
v 0.01890847 0.05913987 0.11143589
v 0.01923840 0.06843882 0.10747330
v 0.01845108 0.05997535 0.11329184
v 0.01748180 0.06835874 0.11482043
v 0.01961029 0.06262128 0.10661332
v 0.01911743 0.02305289 0.11195542
v 0.01891995 0.00374837 -0.11741515
v 0.01835676 0.00266503 -0.11909319
v 0.01798108 -0.00023616 -0.11952416
v 0.01890426 0.00413526 -0.11768074
v 0.01912693 -0.04521652 0.11031595
v 0.01912502 -0.04528524 0.11036317
v 0.01901385 -0.04736921 0.11179525
v 0.01876913 -0.04639939 0.11355733
v 0.01875251 -0.04320422 0.11378937
v 0.01881527 -0.04266162 0.11341624
v 0.01835147 -0.04233314 0.11562044
v 0.01858521 -0.04126911 0.11488791
v 0.01799732 -0.04333922 0.11631406
v 0.01826768 -0.04559172 0.11543273
v 0.01873540 -0.04631980 0.11372064
v 0.01896903 -0.04781894 0.11210446
v 0.01923314 -0.06340485 0.09611737
v 0.01850662 -0.05616159 0.11055868
v 0.01754865 -0.04191712 0.11733274
v 0.01627830 -0.07611447 0.11699996
v 0.01541466 -0.07788860 0.11822492
v 0.01589210 -0.07802430 0.11588822
v 0.01667321 -0.07544965 0.11411410
v 0.01660514 -0.07720087 0.11046472
v 0.01630476 -0.07802401 0.10860602
v 0.01805155 0.08036799 0.09443683
v 0.01761853 0.08121887 0.09628201
v 0.01650493 0.08259672 0.09534411
v 0.01514028 -0.07644851 0.11966427
v 0.01370773 -0.07761200 0.12047413
v 0.01670270 -0.07655542 0.11244700
v 0.01959674 0.02335226 -0.09934206
v 0.01902791 -0.07143021 -0.11673652
v 0.01907719 -0.07179905 -0.11648357
v 0.01883710 -0.07204951 -0.11738605
v 0.01782493 -0.07160048 -0.11903682
v 0.01760832 -0.07147847 -0.11935300
v 0.01840742 -0.07294653 -0.11811676
v 0.01899813 -0.07441533 -0.11468615
v 0.01867985 -0.07521927 -0.11655792
v 0.01855379 -0.07701658 -0.11532260
v 0.01835753 -0.07757444 -0.11493799
v 0.01809133 -0.07836899 -0.11667830
v 0.01791387 -0.07646392 -0.11812364
v 0.01846264 -0.07535284 -0.11724126
v 0.01562962 -0.07760542 -0.12116334
v 0.01805775 -0.07839824 -0.11679626
v 0.01685394 -0.07858323 -0.11978867
v 0.01914622 -0.07072757 -0.11479367
v 0.01954895 0.07090754 0.10092287
v 0.01857399 0.07782740 0.10345664
v 0.01893972 0.07686283 0.10169003
v 0.01889969 0.07706484 0.10188846
v 0.01893261 0.07692952 0.10164428
v 0.01809639 0.07960698 0.10223805
v 0.01848852 0.07873027 0.10041090
v 0.01732112 0.08119855 0.10115082
v 0.01788621 0.08043108 0.09924733
v 0.01682307 0.08210108 0.09867004
v 0.01848304 0.07849859 0.10299636
v 0.01917559 0.07546408 0.10022260
v 0.01924621 0.07113157 0.10562388
v 0.01874692 0.07642882 0.06074243
v 0.01895994 0.02102161 0.11335166
v 0.01913346 0.07442419 0.05726368
v 0.01765414 0.07162104 -0.11549375
v 0.01533473 0.08072979 -0.11687946
v 0.01600858 0.07840527 -0.12014069
v 0.01641571 0.07708255 -0.11923532
v 0.01649171 0.07600617 -0.12092294
v 0.01585877 0.07881201 -0.12041890
v 0.01613652 0.07712238 -0.12168687
v 0.01891681 0.07263072 0.10702308
v 0.01821283 0.07568556 0.10978295
v 0.01666442 0.08111882 0.11091573
v 0.01743451 0.07356355 -0.11682619
v 0.01867998 0.02246768 0.11478693
v 0.01888694 0.00732996 -0.11744839
v 0.01828659 0.04326906 0.11506156
v 0.01564305 0.08255493 0.10993712
v 0.02056959 0.06025993 0.05242289
v 0.01699440 0.08194903 0.09821154
v 0.01744983 -0.04160598 0.11755414
v 0.01805926 -0.07845334 -0.11675843
v 0.01769919 0.08021284 0.10367369
v 0.01608602 0.08187787 0.11282507
v 0.01939201 0.07408622 0.09874098
v 0.01767422 0.07470005 0.11289015
v 0.01875967 -0.04644864 0.11359123
v 0.01585724 -0.03760541 0.11967118
v 0.01876393 -0.00236468 -0.11806821
v 0.01803609 0.08009366 0.09854554
v 0.01560153 0.08315049 0.09739689
v 0.01888540 0.06120317 -0.10106924
v 0.01833519 0.07942274 0.09265756
v 0.01736027 0.07239227 -0.11844750
v 0.02035664 0.06428792 0.04965811
v 0.01912248 0.07592506 0.09990640
v 0.01836351 0.04113704 -0.11639975
v 0.01828032 0.03996010 -0.11801712
v 0.01573871 0.07986058 -0.11871182
v 0.00366945 -0.08295963 0.10723835
v 0.00096279 -0.08275553 0.10711856
v 0.00196215 -0.08268265 0.10948727
v -0.00379140 -0.08126134 0.11564769
v -0.00742058 -0.08112494 0.11334075
v -0.00829902 -0.08132762 0.11106028
v -0.01328383 -0.08023377 0.11277288
v -0.01227876 -0.08016701 0.11514576
v -0.01359878 -0.08016939 0.11273104
v -0.01599886 -0.07960413 0.11236091
v -0.01503684 -0.08012087 0.11028226
v -0.01467587 -0.08030176 0.10952144
v -0.01670840 -0.07925910 0.11212929
v -0.01566838 -0.07996542 0.10775394
v -0.01393940 -0.08055208 0.10814383
v -0.01220408 -0.08014584 0.11534528
v -0.01299318 -0.07961934 0.11720131
v -0.01778664 -0.07865210 0.11172053
v -0.01126848 -0.08084141 0.11074873
v -0.01153948 -0.07981496 0.11732470
v -0.00921333 -0.07593991 0.12192475
v -0.00775514 -0.07400468 0.12277316
v -0.00946692 -0.07590173 0.12190044
v -0.01182922 -0.07551095 0.12164985
v -0.01177350 -0.07172689 0.12264909
v -0.01033161 -0.07777065 0.12076422
v -0.01595626 -0.07716089 0.12038781
v -0.00307976 -0.07850079 0.12121103
v -0.00229610 -0.08006326 0.11985189
v -0.00172162 -0.08082479 0.11794427
v 0.00271633 -0.08046544 0.12009034
v 0.00246615 -0.07905132 0.12154734
v 0.00356459 -0.08052393 0.12012412
v 0.00402298 -0.07687568 0.12246769
v 0.00245377 -0.07689553 0.12249315
v 0.00531671 -0.08055547 0.12013258
v 0.00778728 -0.08050616 0.12008010
v -0.01430072 -0.08028784 0.11039139
v -0.01211845 -0.08019122 0.11516118
v 0.00726671 -0.08223854 0.11642120
v 0.00768178 -0.08225338 0.11642827
v 0.00874404 -0.08270681 0.11430537
v 0.00654549 -0.08260999 0.11425543
v 0.00899909 -0.08271790 0.11393951
v 0.00380722 -0.08237194 0.11411258
v 0.00957584 -0.08201597 0.11625094
v 0.00338526 -0.08246538 0.11302278
v 0.00988845 -0.07891480 0.12139765
v 0.01016192 -0.08035390 0.11995764
v 0.01208329 -0.07971510 0.11950444
v 0.01394409 -0.07901128 0.11900705
v 0.01190904 -0.08067363 0.11773776
v 0.01374719 -0.07994550 0.11722384
v 0.01533773 -0.07895161 0.11652926
v 0.01606477 -0.07679084 0.11746610
v -0.00724847 -0.08144519 0.11113311
v -0.00587503 -0.08196388 0.10420008
v -0.01153826 -0.08111311 0.10402767
v -0.00373373 -0.08123556 0.11581525
v -0.01623984 -0.07945457 0.11291120
v 0.00631952 -0.08310301 0.10731685
v 0.00809838 -0.08307251 0.10567015
v 0.00780451 -0.08314138 0.10490571
v 0.01526241 -0.07960632 0.10970059
v 0.01631897 -0.07792220 0.11096228
v 0.01336435 -0.08141572 0.10853125
v 0.01233851 -0.08187018 0.11127740
v 0.01457957 -0.08042896 0.11269700
v 0.01572492 -0.07895721 0.11167759
v 0.01291986 -0.08134862 0.11334112
v 0.01115663 -0.08215715 0.11390969
v 0.01496565 -0.07969779 0.11461824
v 0.01532725 -0.07951746 0.10997469
v 0.00535473 -0.08321301 0.10497336
v 0.00692186 -0.08333955 0.10262214
v -0.00593092 -0.08195797 0.10408191
v 0.00528849 -0.08321599 0.10481902
v -0.00929796 -0.08140096 0.10869186
v 0.00675109 -0.08334385 0.10262638
v -0.01547752 -0.07485243 0.12122507
v 0.00989086 -0.08120853 0.11812033
v 0.00454560 -0.08201893 0.11629087
v -0.01049194 -0.08126494 0.10618115
v 0.01498753 -0.07965453 0.11472975
v -0.01266229 -0.08086980 0.10592612
v 0.00862608 -0.08366736 0.05916101
v 0.00832680 -0.08373138 0.05947699
v -0.01673675 -0.07444825 0.12095697
v 0.00240361 -0.08271671 0.10950733
v -0.01102025 -0.07933003 0.11941405
v -0.01095838 -0.07917556 0.11955649
v 0.01623479 -0.07721334 0.11532868
v 0.01169190 -0.08158613 0.11593979
v 0.00686037 -0.08334309 0.10247773
v 0.01163862 -0.08226452 0.10912719
v 0.00955120 -0.08272509 0.10945924
v 0.00910375 -0.08265482 0.11426695
v 0.01057552 -0.08242972 0.11220289
v -0.00317460 -0.08069014 0.11786275
v -0.01760930 -0.07837256 0.11637982
v -0.01548563 -0.07911241 0.11687194
v -0.01429701 0.07716999 -0.12192474
v -0.01659240 0.07713779 -0.12145086
v -0.01576258 0.07510151 -0.12248493
v -0.01468082 0.07301311 -0.12302275
v -0.01626480 0.07203657 -0.12228843
v -0.00316563 -0.08070016 -0.12241187
v 0.00402990 -0.08018435 -0.12253261
v 0.00244301 -0.08142686 -0.12218556
v 0.00879543 -0.07601381 -0.12292870
v 0.00837368 -0.07641365 -0.12293889
v 0.00910564 -0.07648274 -0.12289696
v 0.01115186 -0.07674010 -0.12273562
v 0.01001109 -0.07778050 -0.12270269
v 0.01213634 -0.07703466 -0.12254074
v 0.01281734 -0.07796832 -0.12233395
v 0.01122886 -0.07935542 -0.12219744
v 0.00842323 -0.07911171 -0.12248480
v 0.01335998 -0.07742662 -0.12228077
v 0.01496704 -0.07849279 -0.12156064
v 0.01244795 -0.08080989 -0.12151680
v 0.01441055 -0.07615007 -0.12184268
v 0.00805519 -0.08182991 -0.12148801
v 0.00720622 -0.07746777 -0.12288954
v -0.01157624 -0.07939634 -0.12244009
v -0.01437824 -0.07882182 -0.12224576
v -0.01279378 -0.07780095 -0.12291553
v 0.01160083 -0.07627856 -0.12267199
v 0.01730895 0.00087880 -0.12028484
v 0.01426688 0.07912920 -0.12305104
v 0.01447990 0.07875828 -0.12309923
v 0.01600698 -0.07403787 -0.12092342
v 0.01665335 -0.07309761 -0.12042609
v 0.00561779 -0.07885085 -0.12274718
v 0.01566776 -0.08013144 -0.12044052
v 0.00559816 -0.08137243 -0.12193865
v 0.01589480 0.07771038 -0.12208887
v -0.01435747 0.07244774 -0.12309923
v -0.01597404 0.07148176 -0.12242363
v 0.00683565 -0.08041706 -0.12222924
f 229 309 226
f 309 316 312
f 312 226 309
f 312 222 227
f 223 238 222
f 234 238 223
f 96 601 634
f 601 626 634
f 36 38 39
f 59 100 81
f 36 100 59
f 81 82 59
f 110 100 36
f 36 39 110
f 110 39 125
f 281 113 271
f 81 100 321
f 229 226 241
f 241 228 229
f 222 238 241
f 314 312 316
f 287 312 310
f 50 312 287
f 254 281 284
f 600 626 601
f 166 175 150
f 160 603 605
f 74 38 97
f 41 39 42
f 42 46 41
f 40 39 41
f 303 321 102
f 102 321 100
f 251 275 264
f 166 150 151
f 426 5 418
f 476 374 385
f 385 489 476
f 273 113 109
f 109 271 273
f 273 271 113
f 284 281 253
f 461 372 489
f 379 372 380
f 476 489 492
f 489 372 492
f 626 225 627
f 627 634 626
f 224 466 225
f 224 223 222
f 626 223 224
f 224 225 626
f 633 466 467
f 225 466 633
f 467 397 633
f 465 467 463
f 467 466 463
f 83 82 81
f 81 321 83
f 311 287 310
f 308 311 310
f 351 285 352
f 352 358 351
f 281 242 352
f 352 285 281
f 350 56 354
f 351 358 354
f 354 358 350
f 462 224 222
f 226 312 240
f 240 241 226
f 240 312 227
f 227 222 240
f 222 241 240
f 228 241 239
f 239 241 238
f 234 223 233
f 233 223 626
f 626 236 233
f 232 238 234
f 234 233 232
f 222 312 49
f 277 254 284
f 277 531 254
f 24 420 565
f 479 420 24
f 438 420 479
f 561 565 420
f 417 565 561
f 419 420 438
f 419 561 420
f 426 561 419
f 419 5 426
f 436 5 419
f 550 565 417
f 545 577 589
f 220 175 166
f 44 48 133
f 133 46 44
f 44 46 48
f 132 46 133
f 41 46 45
f 272 271 109
f 598 236 626
f 626 600 598
f 602 600 601
f 69 95 602
f 160 605 219
f 78 59 82
f 82 80 78
f 78 80 59
f 43 42 39
f 43 38 74
f 43 39 38
f 48 46 211
f 46 42 211
f 48 206 202
f 202 204 203
f 206 204 202
f 622 72 96
f 65 72 622
f 125 39 116
f 39 40 116
f 47 40 41
f 303 102 301
f 115 110 125
f 100 110 115
f 324 102 304
f 109 113 274
f 274 108 109
f 113 108 274
f 112 113 281
f 281 108 112
f 112 108 113
f 376 412 476
f 376 400 412
f 376 386 400
f 402 5 412
f 411 5 402
f 476 492 377
f 377 492 384
f 413 5 411
f 411 418 413
f 413 418 5
f 427 385 374
f 436 438 435
f 438 479 435
f 399 429 428
f 412 5 434
f 434 5 436
f 436 435 434
f 434 435 429
f 396 429 399
f 396 427 374
f 399 385 396
f 385 427 396
f 281 271 270
f 270 253 281
f 495 491 461
f 372 379 378
f 378 492 372
f 237 83 300
f 300 83 321
f 321 317 300
f 300 309 229
f 276 242 281
f 311 308 319
f 306 287 319
f 287 311 319
f 283 352 242
f 358 352 283
f 286 285 351
f 281 285 286
f 286 287 306
f 286 53 50
f 50 287 286
f 320 312 50
f 50 53 320
f 320 53 312
f 52 312 55
f 312 53 55
f 349 56 350
f 349 348 56
f 350 358 349
f 221 462 370
f 224 462 221
f 370 462 365
f 365 371 370
f 421 371 365
f 380 372 460
f 460 369 458
f 235 232 231
f 235 231 229
f 235 239 238
f 238 232 235
f 229 228 235
f 228 239 235
f 57 312 52
f 57 49 312
f 94 95 64
f 64 70 94
f 64 95 69
f 63 70 64
f 69 72 64
f 64 72 65
f 511 202 203
f 146 148 554
f 213 511 203
f 150 148 172
f 154 151 172
f 172 151 150
f 172 213 203
f 203 204 172
f 594 591 567
f 281 254 255
f 264 275 255
f 275 251 255
f 560 564 24
f 437 438 436
f 436 419 437
f 437 419 438
f 533 260 532
f 533 544 260
f 545 544 533
f 264 255 296
f 568 6 564
f 564 565 568
f 542 589 577
f 545 589 548
f 549 589 6
f 549 550 547
f 6 550 549
f 547 548 549
f 549 548 589
f 149 150 175
f 149 148 150
f 144 187 186
f 562 591 174
f 174 591 139
f 24 564 34
f 34 33 24
f 564 33 34
f 41 45 127
f 127 45 46
f 127 47 41
f 129 47 127
f 267 277 284
f 271 272 521
f 236 598 92
f 92 598 600
f 635 602 601
f 69 602 2
f 96 72 2
f 2 72 69
f 602 635 2
f 2 601 96
f 2 635 601
f 604 605 603
f 630 610 604
f 167 219 605
f 59 80 61
f 236 92 599
f 42 43 75
f 75 211 42
f 71 43 74
f 71 75 43
f 209 206 48
f 48 211 209
f 211 75 209
f 160 219 159
f 65 622 77
f 87 77 88
f 88 77 622
f 216 88 212
f 212 88 622
f 130 47 129
f 129 127 130
f 125 116 130
f 128 116 40
f 40 47 128
f 128 130 116
f 47 130 128
f 302 102 324
f 302 301 102
f 303 301 302
f 310 317 302
f 302 321 303
f 302 317 321
f 576 521 272
f 523 520 576
f 120 586 523
f 114 115 123
f 107 108 281
f 131 132 509
f 509 556 131
f 509 132 133
f 412 400 401
f 401 402 412
f 361 342 249
f 298 424 299
f 425 424 298
f 338 390 389
f 476 377 375
f 375 376 476
f 386 376 375
f 606 627 609
f 606 607 627
f 1 607 96
f 627 607 1
f 96 634 1
f 634 627 1
f 440 479 442
f 440 435 479
f 486 397 399
f 444 434 429
f 412 434 444
f 444 396 374
f 429 396 444
f 444 374 476
f 476 412 444
f 494 461 489
f 494 495 461
f 465 491 373
f 491 495 373
f 373 467 465
f 373 397 467
f 399 397 373
f 373 495 399
f 370 371 366
f 366 221 370
f 366 371 421
f 471 491 465
f 372 461 471
f 461 491 471
f 458 369 490
f 313 300 317
f 313 317 310
f 309 300 313
f 310 312 313
f 312 314 313
f 294 261 11
f 358 261 294
f 294 349 358
f 295 261 358
f 358 283 295
f 360 354 56
f 422 365 462
f 421 365 422
f 3 369 463
f 3 221 369
f 368 460 372
f 372 471 368
f 58 57 52
f 49 57 58
f 222 49 58
f 79 80 98
f 98 76 79
f 511 574 508
f 202 511 508
f 148 146 173
f 173 172 148
f 213 172 173
f 173 146 554
f 591 594 592
f 254 531 256
f 256 255 254
f 531 277 257
f 277 267 257
f 528 259 266
f 531 257 266
f 260 531 266
f 266 259 260
f 523 522 266
f 569 565 564
f 564 560 569
f 24 565 569
f 569 560 24
f 588 561 426
f 417 561 588
f 299 424 485
f 485 298 299
f 252 298 485
f 416 425 547
f 416 424 425
f 547 550 416
f 416 550 417
f 260 544 262
f 262 296 260
f 580 550 6
f 6 568 580
f 565 550 580
f 580 568 565
f 546 548 547
f 545 548 546
f 547 425 546
f 546 544 545
f 425 544 546
f 591 592 583
f 583 220 166
f 187 190 171
f 567 591 563
f 591 562 563
f 563 562 564
f 35 139 140
f 140 139 591
f 24 33 17
f 141 142 35
f 35 140 141
f 141 591 144
f 141 140 591
f 514 132 131
f 131 127 514
f 46 132 514
f 514 127 46
f 124 130 127
f 268 267 284
f 91 98 89
f 89 599 91
f 93 602 95
f 600 602 93
f 93 92 600
f 93 95 94
f 93 599 92
f 93 91 599
f 98 91 93
f 609 610 608
f 608 606 609
f 607 606 608
f 620 610 630
f 96 607 620
f 607 608 620
f 620 608 610
f 614 610 613
f 613 604 614
f 614 604 610
f 636 632 605
f 605 604 636
f 636 604 613
f 168 167 605
f 605 632 168
f 38 76 37
f 76 62 37
f 37 97 38
f 37 62 97
f 73 62 63
f 97 62 73
f 74 97 73
f 63 71 73
f 73 71 74
f 68 70 63
f 63 62 68
f 68 62 76
f 86 61 80
f 86 80 79
f 79 76 86
f 86 76 38
f 38 61 86
f 36 59 60
f 59 61 60
f 60 38 36
f 60 61 38
f 90 233 236
f 236 599 90
f 90 232 233
f 599 84 90
f 85 599 89
f 85 84 599
f 89 98 85
f 85 98 80
f 85 80 82
f 82 84 85
f 82 83 230
f 230 84 82
f 230 83 237
f 229 231 230
f 230 300 229
f 237 300 230
f 230 90 84
f 231 232 230
f 232 90 230
f 87 88 210
f 210 88 216
f 152 162 153
f 152 151 154
f 153 161 152
f 156 161 153
f 67 71 63
f 67 77 87
f 87 75 67
f 75 71 67
f 66 64 65
f 65 77 66
f 63 64 66
f 66 67 63
f 77 67 66
f 160 199 196
f 199 212 196
f 196 603 160
f 324 304 323
f 323 302 324
f 323 280 308
f 304 280 323
f 109 108 584
f 584 272 109
f 584 576 272
f 134 120 523
f 523 576 134
f 576 584 134
f 596 127 131
f 586 120 513
f 103 102 100
f 100 115 103
f 115 114 103
f 281 286 278
f 278 286 306
f 308 280 307
f 306 319 307
f 307 319 308
f 307 278 306
f 280 278 307
f 108 107 135
f 135 584 108
f 318 280 304
f 337 402 459
f 459 395 337
f 402 395 459
f 363 342 361
f 341 363 364
f 342 363 341
f 341 344 342
f 297 252 251
f 297 298 252
f 297 251 264
f 415 410 409
f 415 484 410
f 426 418 415
f 415 588 426
f 415 418 411
f 411 484 415
f 430 428 429
f 429 435 430
f 435 440 430
f 397 486 430
f 399 428 430
f 430 486 399
f 398 633 397
f 398 625 633
f 616 627 225
f 616 618 627
f 616 443 631
f 631 182 616
f 225 633 628
f 489 385 473
f 473 494 489
f 473 385 399
f 399 495 473
f 495 494 473
f 369 221 367
f 221 366 367
f 367 366 421
f 421 490 367
f 367 490 369
f 463 369 464
f 369 471 464
f 465 463 464
f 464 471 465
f 458 490 381
f 322 316 309
f 322 314 316
f 289 255 251
f 56 53 51
f 51 360 56
f 53 286 51
f 286 360 51
f 351 354 353
f 354 360 353
f 353 286 351
f 353 360 286
f 421 422 453
f 221 3 496
f 466 224 496
f 224 221 496
f 496 463 466
f 496 3 463
f 369 460 4
f 460 368 4
f 4 471 369
f 4 368 471
f 475 58 52
f 423 422 462
f 423 462 222
f 581 574 511
f 511 213 581
f 581 173 554
f 213 173 581
f 554 148 579
f 579 581 554
f 574 581 579
f 506 509 133
f 556 509 506
f 202 508 510
f 133 48 510
f 48 202 510
f 587 586 528
f 523 586 587
f 587 522 523
f 502 574 499
f 530 256 531
f 255 256 530
f 530 296 255
f 530 531 260
f 260 296 530
f 518 576 520
f 478 485 424
f 264 296 263
f 296 262 263
f 263 262 544
f 263 297 264
f 298 297 263
f 263 544 425
f 425 298 263
f 499 574 498
f 148 573 498
f 575 573 148
f 148 149 575
f 575 149 175
f 175 220 575
f 220 583 575
f 144 591 582
f 582 583 144
f 591 583 582
f 145 187 144
f 145 190 187
f 145 583 190
f 190 583 218
f 167 168 177
f 178 179 177
f 177 179 183
f 163 161 177
f 177 161 167
f 164 161 163
f 166 151 164
f 151 152 164
f 164 152 161
f 170 164 163
f 189 171 191
f 189 186 187
f 187 171 189
f 28 181 26
f 26 181 631
f 612 610 609
f 613 610 612
f 612 182 613
f 613 182 617
f 617 636 613
f 632 636 617
f 617 168 632
f 566 589 567
f 567 563 566
f 6 589 566
f 566 563 564
f 564 6 566
f 32 17 33
f 32 33 564
f 564 562 32
f 32 562 174
f 130 124 126
f 126 115 125
f 125 130 126
f 123 115 126
f 126 124 123
f 271 521 269
f 521 268 269
f 269 268 284
f 269 270 271
f 284 253 269
f 253 270 269
f 99 93 94
f 98 93 99
f 94 70 99
f 76 98 99
f 70 68 99
f 99 68 76
f 87 210 208
f 208 75 87
f 208 209 75
f 206 209 208
f 216 212 200
f 200 212 199
f 200 199 160
f 160 159 200
f 167 161 157
f 161 156 157
f 219 167 157
f 157 159 219
f 623 622 96
f 623 604 603
f 623 212 622
f 96 620 623
f 623 620 630
f 630 604 623
f 310 302 305
f 302 323 305
f 305 308 310
f 305 323 308
f 119 134 121
f 121 134 584
f 121 135 119
f 584 135 121
f 516 555 586
f 586 513 516
f 597 513 120
f 597 596 131
f 120 596 597
f 131 556 597
f 556 506 597
f 104 114 123
f 123 105 104
f 104 103 114
f 104 105 304
f 122 123 119
f 119 135 122
f 106 135 107
f 304 105 106
f 106 318 304
f 279 107 281
f 281 278 279
f 279 106 107
f 318 106 279
f 279 278 280
f 280 318 279
f 361 249 245
f 245 246 361
f 249 246 245
f 244 290 251
f 244 10 11
f 249 10 244
f 244 246 249
f 343 249 342
f 342 344 343
f 326 335 474
f 331 326 364
f 331 335 326
f 336 329 337
f 337 474 336
f 336 474 335
f 364 326 325
f 325 341 364
f 326 341 325
f 403 484 411
f 410 484 403
f 403 407 410
f 337 329 472
f 424 416 551
f 551 416 417
f 417 588 551
f 588 415 551
f 388 389 390
f 388 390 337
f 386 387 388
f 348 344 359
f 344 357 359
f 357 355 359
f 432 398 397
f 441 616 225
f 225 628 441
f 443 616 441
f 309 313 315
f 315 322 309
f 315 313 314
f 314 322 315
f 292 276 281
f 242 276 292
f 251 290 247
f 247 289 251
f 290 289 247
f 452 453 422
f 54 53 56
f 52 55 54
f 348 359 54
f 56 348 54
f 54 55 53
f 422 423 477
f 477 452 422
f 58 475 488
f 475 423 488
f 222 58 488
f 488 423 222
f 505 597 506
f 524 587 528
f 522 587 524
f 528 266 524
f 524 266 522
f 586 555 595
f 595 526 586
f 527 259 528
f 526 536 527
f 258 266 257
f 258 518 266
f 258 257 267
f 267 268 258
f 258 268 521
f 521 576 258
f 576 518 258
f 519 520 523
f 523 517 519
f 519 518 520
f 519 517 518
f 523 266 265
f 265 517 523
f 266 518 265
f 518 517 265
f 252 485 282
f 282 7 252
f 252 7 362
f 362 7 333
f 251 252 362
f 333 244 362
f 362 244 251
f 332 7 361
f 333 7 332
f 361 246 332
f 332 244 333
f 246 244 332
f 500 502 552
f 552 502 499
f 578 536 526
f 578 595 555
f 526 595 578
f 538 575 571
f 557 575 538
f 148 498 553
f 553 498 574
f 590 583 571
f 571 575 590
f 590 575 583
f 571 583 138
f 138 559 571
f 558 559 138
f 138 592 558
f 138 583 592
f 144 583 143
f 143 145 144
f 583 145 143
f 165 171 190
f 190 218 165
f 166 164 165
f 165 583 166
f 165 218 583
f 184 179 28
f 18 21 19
f 20 21 18
f 23 21 20
f 20 176 23
f 23 176 147
f 163 177 193
f 193 177 183
f 193 170 163
f 183 170 193
f 192 217 191
f 192 170 183
f 443 432 433
f 433 430 440
f 397 430 433
f 24 17 25
f 25 17 19
f 19 26 25
f 442 479 29
f 29 440 442
f 443 433 29
f 28 26 22
f 22 184 28
f 21 184 22
f 19 21 22
f 22 26 19
f 631 443 27
f 27 26 631
f 443 29 27
f 27 29 479
f 27 25 26
f 27 479 24
f 24 25 27
f 611 612 609
f 627 618 615
f 612 611 615
f 618 616 615
f 615 616 182
f 182 612 615
f 631 181 30
f 30 182 631
f 30 617 182
f 619 617 178
f 168 617 619
f 178 177 619
f 619 177 168
f 17 32 12
f 13 12 31
f 31 12 32
f 31 32 174
f 147 176 31
f 174 139 31
f 31 139 35
f 35 142 31
f 142 141 31
f 144 147 31
f 31 141 144
f 19 17 16
f 16 15 19
f 206 208 207
f 214 210 216
f 162 152 214
f 153 200 158
f 158 200 159
f 158 156 153
f 159 157 158
f 158 157 156
f 153 162 197
f 197 200 153
f 162 214 197
f 603 196 621
f 621 623 603
f 621 196 212
f 212 623 621
f 118 596 120
f 120 134 118
f 102 103 111
f 111 104 304
f 136 122 135
f 135 106 136
f 123 122 136
f 136 105 123
f 136 106 105
f 249 250 346
f 346 294 11
f 11 10 346
f 345 343 344
f 345 250 249
f 249 343 345
f 339 393 344
f 339 474 337
f 344 341 340
f 340 341 326
f 326 474 340
f 340 339 344
f 474 339 340
f 335 331 328
f 328 336 335
f 330 478 329
f 330 331 478
f 330 328 331
f 337 407 405
f 405 402 337
f 411 402 405
f 405 403 411
f 394 388 337
f 386 388 394
f 337 395 394
f 394 395 402
f 402 401 394
f 400 386 394
f 394 401 400
f 629 432 443
f 443 441 629
f 629 441 628
f 625 398 629
f 398 432 629
f 629 628 633
f 633 625 629
f 449 381 490
f 449 460 458
f 458 381 449
f 243 292 281
f 289 292 243
f 281 255 243
f 255 289 243
f 242 292 288
f 288 283 242
f 288 295 283
f 261 295 288
f 11 261 288
f 290 244 288
f 288 289 290
f 288 292 289
f 454 423 475
f 454 477 423
f 470 452 481
f 452 477 481
f 481 454 475
f 477 454 481
f 481 475 52
f 52 54 481
f 481 359 355
f 481 54 359
f 507 505 506
f 507 506 133
f 133 510 507
f 507 510 508
f 501 502 500
f 500 535 501
f 501 535 502
f 500 555 512
f 512 535 500
f 555 516 512
f 512 516 513
f 574 502 515
f 515 508 574
f 586 526 525
f 526 527 525
f 528 586 525
f 525 527 528
f 260 259 529
f 259 527 529
f 532 260 529
f 529 527 536
f 7 282 334
f 334 363 361
f 361 7 334
f 364 363 334
f 334 331 364
f 478 331 334
f 485 478 334
f 334 282 485
f 414 478 424
f 424 408 414
f 543 552 499
f 571 559 540
f 540 538 571
f 540 559 558
f 558 592 540
f 540 592 594
f 540 594 567
f 537 538 542
f 536 538 537
f 537 542 577
f 537 577 545
f 545 533 537
f 537 533 532
f 532 529 537
f 537 529 536
f 557 497 570
f 573 575 570
f 570 575 557
f 570 498 573
f 570 497 498
f 557 538 539
f 539 497 557
f 539 543 499
f 539 538 536
f 536 578 539
f 574 579 572
f 572 553 574
f 572 579 148
f 148 553 572
f 144 186 188
f 191 217 188
f 186 189 188
f 188 189 191
f 195 184 21
f 21 23 195
f 183 179 195
f 179 184 195
f 195 192 183
f 217 192 195
f 195 188 217
f 23 188 195
f 170 192 169
f 164 170 169
f 171 165 169
f 169 165 164
f 431 432 397
f 397 433 431
f 431 433 432
f 439 433 440
f 440 29 439
f 439 29 433
f 609 627 624
f 624 611 609
f 627 615 624
f 624 615 611
f 617 30 180
f 180 179 178
f 178 617 180
f 180 30 181
f 180 181 28
f 28 179 180
f 185 176 20
f 185 31 176
f 13 31 185
f 185 15 13
f 19 15 185
f 185 18 19
f 20 18 185
f 17 12 14
f 14 16 17
f 14 12 13
f 13 15 14
f 15 16 14
f 205 204 206
f 206 207 205
f 205 172 204
f 200 197 198
f 198 197 214
f 216 200 198
f 198 214 216
f 596 118 117
f 127 596 117
f 117 124 127
f 117 134 119
f 117 118 134
f 119 123 117
f 123 124 117
f 103 104 101
f 101 111 103
f 104 111 101
f 137 304 102
f 102 111 137
f 137 111 304
f 293 10 249
f 249 346 293
f 293 346 10
f 347 346 250
f 348 349 347
f 349 294 347
f 294 346 347
f 250 345 347
f 347 344 348
f 347 345 344
f 392 339 337
f 338 339 392
f 337 390 392
f 392 390 338
f 329 336 327
f 336 328 327
f 327 330 329
f 328 330 327
f 407 403 404
f 404 405 407
f 403 405 404
f 380 460 383
f 383 379 380
f 451 490 421
f 11 288 248
f 248 244 11
f 534 507 508
f 505 507 534
f 503 505 534
f 534 515 503
f 508 515 534
f 502 535 504
f 504 515 502
f 503 515 504
f 504 505 503
f 535 512 504
f 597 505 504
f 513 597 504
f 504 512 513
f 406 414 408
f 478 414 406
f 329 478 406
f 406 472 329
f 409 410 406
f 410 407 406
f 406 415 409
f 406 551 415
f 424 551 406
f 406 408 424
f 406 407 337
f 337 472 406
f 500 552 541
f 552 543 541
f 543 539 541
f 541 539 578
f 541 555 500
f 541 578 555
f 567 589 593
f 593 540 567
f 538 540 593
f 589 542 593
f 542 538 593
f 585 539 499
f 497 539 585
f 499 498 585
f 498 497 585
f 194 23 147
f 194 188 23
f 194 147 144
f 144 188 194
f 201 192 191
f 201 169 192
f 191 171 201
f 171 169 201
f 154 172 155
f 172 205 155
f 155 152 154
f 155 214 152
f 460 449 382
f 382 383 460
f 445 375 377
f 386 375 445
f 482 378 379
f 379 383 482
f 384 492 482
f 492 378 482
f 482 377 384
f 482 445 377
f 448 449 490
f 490 451 448
f 421 453 487
f 487 451 421
f 453 451 487
f 450 451 453
f 470 481 356
f 356 481 355
f 291 288 244
f 244 248 291
f 291 248 288
f 214 155 215
f 215 155 205
f 215 205 207
f 210 214 215
f 215 208 210
f 215 207 208
f 493 382 449
f 383 382 493
f 456 493 449
f 456 482 383
f 383 493 456
f 445 482 457
f 482 456 457
f 457 387 386
f 386 445 457
f 470 450 480
f 480 450 453
f 480 452 470
f 453 452 480
f 455 448 451
f 451 450 455
f 455 450 470
f 470 356 455
f 455 356 8
f 483 355 357
f 483 356 355
f 483 357 344
f 344 393 483
f 393 339 483
f 483 339 338
f 338 389 483
f 449 448 447
f 448 457 447
f 447 456 449
f 447 457 456
f 387 457 391
f 391 483 389
f 389 388 391
f 391 388 387
f 446 455 8
f 448 455 446
f 468 391 457
f 468 457 448
f 9 468 448
f 448 446 9
f 391 468 9
f 483 391 9
f 8 356 9
f 356 483 9
f 469 446 8
f 8 9 469
f 469 9 446

